<?xml version="1.0" encoding="UTF-8" standalone="no"?>
<svg
   version="1.1"
   width="368"
   height="1408"
   id="svg128"
   sodipodi:docname="split_1.svg"
   inkscape:version="1.4 (e7c3feb1, 2024-10-09)"
   xmlns:inkscape="http://www.inkscape.org/namespaces/inkscape"
   xmlns:sodipodi="http://sodipodi.sourceforge.net/DTD/sodipodi-0.dtd"
   xmlns="http://www.w3.org/2000/svg"
   xmlns:svg="http://www.w3.org/2000/svg">
  <defs
     id="defs128" />
  <sodipodi:namedview
     id="namedview128"
     pagecolor="#ffffff"
     bordercolor="#000000"
     borderopacity="0.25"
     inkscape:showpageshadow="2"
     inkscape:pageopacity="0.0"
     inkscape:pagecheckerboard="0"
     inkscape:deskcolor="#d1d1d1"
     inkscape:zoom="0.34190072"
     inkscape:rotation="90"
     inkscape:cx="428.48696"
     inkscape:cy="684.4092"
     inkscape:window-width="1696"
     inkscape:window-height="980"
     inkscape:window-x="0"
     inkscape:window-y="44"
     inkscape:window-maximized="0"
     inkscape:current-layer="svg128" />
  <path
     d="M0 0 C3.0625 0.1875 3.0625 0.1875 5.0625 2.1875 C5.29011991 4.22167288 5.42169697 6.26712992 5.5 8.3125 C5.86282833 13.93326423 6.81195873 18.09368231 9.0625 23.1875 C9.88231229 25.30968968 10.69412127 27.43498015 11.5 29.5625 C11.93570313 30.68785156 12.37140625 31.81320313 12.8203125 32.97265625 C13.55436887 34.87243107 14.28132547 36.77501881 14.9921875 38.68359375 C18.08609305 46.80167335 22.09780961 54.47102226 26.0625 62.1875 C26.45775879 62.96399902 26.85301758 63.74049805 27.26025391 64.54052734 C33.35169058 76.48846258 39.8718067 87.81408173 47.58984375 98.796875 C48.21040649 99.68173584 48.21040649 99.68173584 48.84350586 100.58447266 C49.9909437 102.21106289 51.15130729 103.82851293 52.3125 105.4453125 C54.8677876 109.44935691 54.8677876 109.44935691 55.0625 112.1875 C54.4025 112.8475 53.7425 113.5075 53.0625 114.1875 C52.388116 116.27213469 52.388116 116.27213469 51.9140625 118.703125 C51.71530518 119.61835938 51.51654785 120.53359375 51.31176758 121.4765625 C51.10575928 122.45367187 50.89975098 123.43078125 50.6875 124.4375 C48.58546499 134.05393942 46.46428506 143.68420508 43.046875 152.9375 C41.72512282 157.3013802 41.12661977 161.67849003 40.5 166.1875 C40.24907316 167.93755384 39.99778008 169.68755522 39.74609375 171.4375 C39.62983643 172.26233887 39.5135791 173.08717773 39.39379883 173.93701172 C39.12270281 175.77854678 38.80605665 177.61332504 38.4765625 179.4453125 C38.03641148 182.36027488 37.96407516 185.11666299 38 188.0625 C38.00902344 189.02929688 38.01804687 189.99609375 38.02734375 190.9921875 C38.03894531 191.71664062 38.05054688 192.44109375 38.0625 193.1875 C39.03832031 193.71859375 40.01414062 194.2496875 41.01953125 194.796875 C42.30494561 195.50995158 43.59008768 196.22351917 44.875 196.9375 C45.51759766 197.28554687 46.16019531 197.63359375 46.82226562 197.9921875 C50.32588456 199.95276183 53.14847742 201.58714527 55.0625 205.1875 C55.0625 211.85347032 53.3965897 214.0949446 49.0625 219.1875 C48.24379815 222.74956661 48.24379815 222.74956661 48.0625 226.1875 C47.88776657 226.79143585 47.71303314 227.3953717 47.53300476 228.01760864 C46.91692902 230.85884967 47.10447767 233.37874429 47.28442383 236.28076172 C47.3950843 238.14041061 47.3950843 238.14041061 47.50798035 240.03762817 C47.59507953 241.39748669 47.68226567 242.75733965 47.76953125 244.1171875 C47.8557853 245.5330766 47.94145178 246.94900161 48.02656555 248.36495972 C48.20835721 251.37125717 48.39382919 254.37729491 48.58233643 257.38317871 C48.87618983 262.06923746 49.16249116 266.75573493 49.44677734 271.44238281 C49.4936179 272.21457405 49.54045845 272.98676529 49.58871841 273.78235626 C49.68285913 275.33485195 49.77696404 276.8873498 49.87103271 278.43984985 C50.01152451 280.75461213 50.15280236 283.06932545 50.29418945 285.3840332 C51.07844012 298.2566495 51.77629478 311.1326821 52.37817383 324.01513672 C52.76377574 331.85554555 53.34009048 339.65687666 54.01953125 347.4765625 C55.18056646 360.90694105 55.91669178 374.35183673 56.625 387.8125 C56.87459256 392.49228033 57.12638072 397.17193963 57.37890625 401.8515625 C57.46786667 403.51717224 57.46786667 403.51717224 57.55862427 405.21643066 C57.85410588 410.67407074 58.18939792 416.12184829 58.62109375 421.5703125 C59.36150211 431.39837913 59.42233444 441.26154731 59.61474609 451.11230469 C58.78523048 470.16120642 58.78523048 470.16120642 67.0625 486.1875 C67.328125 488.4296875 67.328125 488.4296875 67.3125 491.0625 C67.31765625 491.92617188 67.3228125 492.78984375 67.328125 493.6796875 C67.0625 496.1875 67.0625 496.1875 66.06047791 497.98678052 C64.79966539 500.76709723 64.81945057 502.85615838 64.8292284 505.90682411 C64.82811314 507.08260879 64.82699788 508.25839347 64.82584882 509.46980798 C64.83488319 510.76453362 64.84391757 512.05925925 64.85322571 513.39321899 C64.85576776 514.78435311 64.85742691 516.17548906 64.85827994 517.56662524 C64.86321164 521.40597129 64.88074413 525.24517417 64.90024717 529.08447009 C64.91918352 533.24495885 64.9264956 537.40547005 64.93524075 541.56599045 C64.95214597 548.84144305 64.97652461 556.11684093 65.00579071 563.39225388 C65.04898618 574.13670696 65.0808097 584.88117186 65.11017422 595.62567057 C65.1594357 613.53144191 65.21800878 631.43717127 65.28201294 649.34289551 C65.3449288 666.95022347 65.40374834 684.55755704 65.45700073 702.16491699 C65.46029871 703.25451027 65.46359669 704.34410354 65.46699461 705.4667148 C65.48367186 710.98331208 65.50027751 716.49990957 65.51685703 722.01650715 C65.64126428 763.36031114 65.77736758 804.70407013 65.91897663 846.04781839 C65.93777818 851.53737205 65.95656696 857.02692575 65.9753418 862.51647949 C65.97902569 863.59337959 65.98270958 864.67027968 65.9865051 865.77981311 C66.06626759 889.11784759 66.14204968 912.4558943 66.21679688 935.79394531 C66.22290857 937.70056113 66.22902087 939.60717694 66.23513377 941.51379275 C66.2591025 948.99075593 66.28305534 956.46771916 66.30698234 963.94468248 C66.54410047 1038.02567429 66.79640137 1112.10660667 67.0625 1186.1875 C67.7225 1186.1875 68.3825 1186.1875 69.0625 1186.1875 C69.3125 1188.875 69.3125 1188.875 69.0625 1192.1875 C68.42505859 1192.92589111 67.78761719 1193.66428223 67.13085938 1194.42504883 C64.62788108 1197.7679666 64.16768641 1200.66729634 63.71875 1204.69921875 C63.62436646 1205.42074127 63.52998291 1206.14226379 63.43273926 1206.88565063 C63.23278917 1208.42149409 63.03972097 1209.95824687 62.85302734 1211.49575806 C62.36666699 1215.47875303 61.8220988 1219.45378662 61.28125 1223.4296875 C61.17707764 1224.2032106 61.07290527 1224.9767337 60.96557617 1225.7736969 C57.81367888 1248.88662568 51.52433463 1270.71300658 34.0625 1287.1875 C30.75354109 1289.68082375 27.11780259 1291.16909141 23.3125 1292.75 C20.14550801 1293.90323723 20.14550801 1293.90323723 18.5859375 1295.734375 C13.90476185 1300.19949639 1.37561707 1298.42802371 -4.91015625 1298.33984375 C-9.46852547 1298.21290182 -13.60407738 1297.63474671 -17.9375 1296.1875 C-19.14599609 1295.82011719 -19.14599609 1295.82011719 -20.37890625 1295.4453125 C-33.02425075 1291.082186 -42.70299709 1279.51202214 -49.0378418 1268.04711914 C-50.57587674 1264.86795709 -51.53047476 1261.59260625 -52.4375 1258.1875 C-52.64689209 1257.41841309 -52.85628418 1256.64932617 -53.07202148 1255.85693359 C-55.46540694 1246.70334775 -56.91057228 1237.38371267 -58.45361328 1228.05810547 C-60.36499279 1209.94051604 -60.36499279 1209.94051604 -67.9375 1194.1875 C-68.0625 1191.1875 -68.0625 1191.1875 -67.9375 1188.1875 C-67.6075 1187.8575 -67.2775 1187.5275 -66.9375 1187.1875 C-66.8145978 1184.46299809 -66.75728274 1181.7628232 -66.74110413 1179.03688049 C-66.73209692 1178.16995168 -66.72308971 1177.30302286 -66.71380955 1176.40982348 C-66.68465407 1173.47579505 -66.6627455 1170.54175714 -66.64086914 1167.60766602 C-66.62177602 1165.50975396 -66.60230356 1163.41184533 -66.58247948 1161.31394005 C-66.52957351 1155.55290869 -66.48344228 1149.79184063 -66.43885684 1144.03073955 C-66.41001629 1140.36109804 -66.37943701 1136.69147506 -66.34828377 1133.02185249 C-65.86088281 1075.49999189 -65.6004587 1017.97704166 -65.39748333 960.4535621 C-65.37992849 955.48798121 -65.36191259 950.52240213 -65.34366608 945.55682373 C-65.04332062 863.73940185 -64.86821134 781.92205861 -64.81538659 649.8267718 C-64.8140339 641.12423346 -64.81213298 632.42169597 -64.80872726 623.71915817 C-64.80839052 622.85781097 -64.80805378 621.99646376 -64.80770683 621.10901513 C-64.80702599 619.37437201 -64.80634489 617.63972889 -64.80566352 615.90508578 C-64.79957128 600.21725954 -64.79739267 584.52943966 -64.80183834 568.84161264 C-64.80226905 567.29416772 -64.80269555 565.7467228 -64.80311775 564.19927788 C-64.80332583 563.4404712 -64.80353391 562.68166453 -64.8037483 561.89986372 C-64.80495737 556.60768515 -64.80369843 551.31551068 -64.80135918 546.0233326 C-64.79831417 539.04420438 -64.80036873 532.06509459 -64.80613434 525.08596814 C-64.80743754 522.54467902 -64.80703093 520.0033884 -64.80482662 517.46209991 C-64.80212477 514.02923644 -64.80548576 510.59643372 -64.81051636 507.16357422 C-64.80828581 506.15433271 -64.80605527 505.14509121 -64.80375713 504.10526663 C-64.8063647 503.19870949 -64.80897227 502.29215235 -64.81165886 501.35812378 C-64.81182121 500.57085844 -64.81198356 499.7835931 -64.81215084 498.97247124 C-64.74313253 497.16325572 -64.74313253 497.16325572 -65.9375 496.1875 C-66.17578125 493.89453125 -66.17578125 493.89453125 -66.25 491 C-66.28738281 490.05769531 -66.32476562 489.11539062 -66.36328125 488.14453125 C-65.9375 485.1875 -65.9375 485.1875 -63.97192383 482.79589844 C-60.65473571 477.96850961 -61.14478379 472.15124486 -60.9609375 466.49609375 C-60.9047525 465.24159927 -60.8485675 463.9871048 -60.79067993 462.69459534 C-60.64353398 459.34736787 -60.51198897 456.00029997 -60.38873291 452.65216064 C-60.1665901 446.7450115 -59.90175682 440.83946934 -59.6484375 434.93359375 C-59.59440262 433.62751663 -59.54036774 432.32143951 -59.48469543 430.9757843 C-59.05065234 420.81434846 -58.38347969 410.68022983 -57.64668274 400.53686523 C-57.11451019 393.0984013 -56.69315485 385.66691551 -56.41015625 378.21484375 C-56.37438477 377.28512253 -56.33861328 376.35540131 -56.30175781 375.39750671 C-56.16301158 371.70835206 -56.02928129 368.01913346 -55.90844727 364.3293457 C-55.58029256 354.54010743 -55.04681426 344.96300489 -53.4375 335.29296875 C-51.74966378 325.10513474 -51.28655128 314.98784227 -50.97067261 304.67669678 C-50.8059501 299.31488708 -50.60333124 293.95445057 -50.40625 288.59375 C-50.36821762 287.53219696 -50.33018524 286.47064392 -50.29100037 285.37692261 C-49.94636886 275.93052321 -49.45351309 266.49719712 -48.875 257.0625 C-48.79564209 255.75716309 -48.71628418 254.45182617 -48.63452148 253.10693359 C-48.55790283 251.87281738 -48.48128418 250.63870117 -48.40234375 249.3671875 C-48.33184814 248.18753418 -48.26135254 247.00788086 -48.1887207 245.79248047 C-48.01239597 243.26224626 -47.79078288 240.73495594 -47.53588867 238.21142578 C-46.83051417 230.69638531 -46.55263722 225.88428162 -50.375 219.3125 C-53.42711726 213.61015364 -55.091365 209.69110271 -53.9375 203.1875 C-51.22076108 197.87214124 -46.31613512 196.11926332 -40.9375 194.1875 C-39.60968816 193.83281054 -38.27769192 193.49208907 -36.9375 193.1875 C-36.28560993 177.46970606 -40.30965778 162.35255966 -43.9375 147.1875 C-44.11571289 146.4361377 -44.29392578 145.68477539 -44.47753906 144.91064453 C-46.31102423 137.21610647 -48.3459311 129.5925634 -50.5625 122 C-50.76875 121.29254639 -50.975 120.58509277 -51.1875 119.85620117 C-52.05378915 116.94126475 -52.91835525 114.22551283 -54.2890625 111.50390625 C-54.9375 109.1875 -54.9375 109.1875 -53.734375 106.8203125 C-53.05890625 105.99273437 -52.3834375 105.16515625 -51.6875 104.3125 C-50.55441406 102.84683594 -50.55441406 102.84683594 -49.3984375 101.3515625 C-48.99206055 100.83239258 -48.58568359 100.31322266 -48.16699219 99.77832031 C-37.82477791 86.39669437 -30.44707636 71.26537634 -22.9375 56.1875 C-22.51130371 55.33236816 -22.08510742 54.47723633 -21.64599609 53.59619141 C-13.44008466 36.99008307 -5.7356208 19.76808158 -3.9375 1.1875 C-2.9375 0.1875 -2.9375 0.1875 0 0 Z "
     fill="#070706"
     id="path2"
     transform="translate(172.9375,36.8125)" />
  <path
     d="M0 0 C0.19560918 97.58724461 0.19560918 97.58724461 -0.4375 125.1875 C-0.79383443 140.75509799 -1.06765653 156.31975277 -1.21875 171.890625 C-1.2275374 172.79383295 -1.23632481 173.6970409 -1.24537849 174.62761879 C-1.30111841 180.39436584 -1.35529781 186.16112715 -1.40929031 191.92789078 C-1.6695543 219.69469753 -1.98336869 247.45883171 -2.47265625 275.22265625 C-2.51566556 277.68317079 -2.55862877 280.14368614 -2.60154724 282.60420227 C-2.62309529 283.83874869 -2.64464334 285.07329512 -2.66684437 286.34525204 C-2.77821292 292.73016256 -2.88926952 299.11507838 -3 305.5 C-3.02227032 306.77845417 -3.04454063 308.05690834 -3.06748581 309.37410355 C-3.7041926 346.1108225 -4.09733904 382.84409061 -4.28125 419.5859375 C-4.29131521 421.56140903 -4.30138601 423.53688052 -4.3114624 425.51235199 C-4.40540402 444.07725645 -4.49017739 462.64216855 -4.544415 481.20723474 C-4.56618749 488.57839142 -4.59400258 495.94951121 -4.62573576 503.32063162 C-4.64370977 507.58759436 -4.65851952 511.85450372 -4.66419983 516.12150192 C-4.69217906 536.0491616 -5.23000147 555.88296396 -6.28267097 575.78381348 C-6.87111385 586.94126795 -7.28430968 598.06871191 -7.27439499 609.24410629 C-7.27336958 611.78552591 -7.2869988 614.32658534 -7.30337524 616.86795044 C-7.34812064 624.05159625 -7.37440126 631.23516267 -7.38085938 638.41894531 C-7.38585336 642.90786156 -7.40990149 647.3963379 -7.44618607 651.88510513 C-7.45594454 653.56841528 -7.45833771 655.2517858 -7.45301437 656.93511581 C-7.44599204 659.24874503 -7.46309149 661.56101204 -7.48583984 663.87451172 C-7.48868988 665.18314178 -7.49153992 666.49177185 -7.49447632 667.84005737 C-8 671 -8 671 -9.84317017 672.87234497 C-12.61984389 674.32407289 -15.37684105 675.27547263 -18.375 676.1875 C-19.47585937 676.53167969 -20.57671875 676.87585937 -21.7109375 677.23046875 C-24.93757437 677.98539448 -27.70098827 678.14451864 -31 678 C-31 678.66 -31 679.32 -31 680 C-38.76290989 683.88145495 -50.95464654 682.18299024 -59.4375 682.1875 C-60.67693359 682.19974609 -61.91636719 682.21199219 -63.19335938 682.22460938 C-64.38638672 682.22654297 -65.57941406 682.22847656 -66.80859375 682.23046875 C-67.87907959 682.23457764 -68.94956543 682.23868652 -70.05249023 682.24291992 C-73.09228636 681.99239419 -75.21448259 681.18457952 -78 680 C-78.10582732 603.9521798 -78.1203707 527.90782235 -77.52885818 451.8618927 C-77.44595496 441.20351367 -77.36424517 430.54512684 -77.28515625 419.88671875 C-77.27923753 419.09143658 -77.27331881 418.29615441 -77.26722074 417.47677279 C-77.02288242 384.51215633 -76.87763833 351.54726759 -76.74609375 318.58203125 C-76.73562941 315.97624396 -76.72516251 313.37045669 -76.71469307 310.76466942 C-76.62070901 287.30971272 -76.52922126 263.8547467 -76.4458313 240.39974976 C-76.25856707 187.79291 -76.02370807 135.18719046 -75.56195641 82.58193779 C-75.53164703 79.07716031 -75.50276094 75.57237377 -75.47425842 72.06758118 C-75.42937755 66.58908827 -75.3800855 61.11065182 -75.32736969 55.63222885 C-75.30880636 53.6471208 -75.29151544 51.66200031 -75.27570343 49.67686844 C-75.16843971 36.42925833 -74.71831649 23.22868175 -74 10 C-72.88675102 10.01126419 -71.77350204 10.02252838 -70.62651825 10.03413391 C-67.14283329 10.06848062 -63.65932905 10.09167496 -60.17553711 10.10986328 C-58.60910333 10.11989726 -57.04268817 10.13352754 -55.47631836 10.15087891 C-53.21984247 10.17524225 -50.96361506 10.18650916 -48.70703125 10.1953125 C-48.01100296 10.20563507 -47.31497467 10.21595764 -46.59785461 10.22659302 C-42.57707092 10.22751287 -39.63918977 9.67636954 -36 8 C-33.4362713 7.47403633 -30.8910414 6.99611669 -28.3125 6.5625 C-20.84427075 5.23672348 -13.7829401 3.33103448 -6.625 0.8125 C-4 0 -4 0 0 0 Z "
     fill="#ECECEC"
     id="path3"
     transform="translate(229,548)" />
  <path
     d="M0 0 C3.07378733 0.72998916 5.79134772 1.73147597 8.6875 3 C12.77036583 4.67517583 16.29853735 5.48364104 20.69921875 5.62890625 C24.0444466 6.16845913 26.9112141 7.6408623 30 9 C30.24125203 46.50320249 30.18074974 84.0040329 29.62037396 121.50413132 C29.56806923 125.01047681 29.51669094 128.51683592 29.4651947 132.02319336 C29.45463073 132.74156175 29.44406675 133.45993015 29.43318266 134.20006728 C29.30856936 142.67502972 29.18452973 151.14999992 29.0625 159.625 C29.04532968 160.81609139 29.04532968 160.81609139 29.02781248 162.03124523 C28.20124441 219.57809349 27.86260352 277.12390759 27.6796875 334.67578125 C27.67690055 335.55040721 27.67411361 336.42503316 27.67124221 337.32616293 C27.54639638 376.61582639 27.44715945 415.90554781 27.35948817 455.19531003 C27.32532954 470.47753704 27.28928023 485.75975946 27.25211307 501.04197943 C27.24610772 503.52157587 27.24018353 506.00117249 27.23427415 508.48076916 C27.09895006 564.99075136 26.72233501 621.49403032 26 678 C19.375 678.125 19.375 678.125 16 677 C16 676.34 16 675.68 16 675 C15.05125 674.896875 14.1025 674.79375 13.125 674.6875 C10 674 10 674 8 671 C7.68908691 668.09176636 7.68908691 668.09176636 7.60351562 664.49560547 C7.58549393 663.84059177 7.56747223 663.18557808 7.54890442 662.51071548 C7.49182032 660.33799273 7.44883709 658.16523915 7.40625 655.9921875 C7.36948589 654.45781965 7.33208094 652.92346704 7.29406738 651.38912964 C7.17963036 646.59303291 7.08642826 641.79667548 7 637 C6.98656555 636.25553116 6.9731311 635.51106232 6.95928955 634.74403381 C6.76697207 623.87152985 6.62943086 612.99840448 6.5 602.125 C6.22930143 578.68925417 6.22930143 578.68925417 5.64685726 555.25971889 C4.88478825 531.31966024 4.68460117 507.37551218 4.49389386 483.42527318 C4.46428297 479.73877781 4.43339669 476.05229487 4.40223503 472.3658123 C4.06193275 431.82576603 3.87760416 391.28583437 3.76014858 350.74459606 C3.75389911 348.5952015 3.74756723 346.44580719 3.74120665 344.29641294 C3.66159369 317.38502102 3.58683143 290.47361512 3.5280509 263.56216903 C3.48835892 245.44896526 3.44059924 227.33579928 3.37890625 209.22265625 C3.37655503 208.52621205 3.37420382 207.82976785 3.37178135 207.11221927 C3.22962407 165.35028008 2.69457796 123.6271301 1.33728313 81.8864069 C0.97335547 70.60784423 0.73855613 59.33013469 0.5859375 48.046875 C0.57529455 47.26983152 0.5646516 46.49278805 0.55368614 45.6921978 C0.49647807 41.41771978 0.44626868 37.14319057 0.39910889 32.86859131 C0.35608839 29.08812445 0.30651141 25.30774096 0.2578125 21.52734375 C0.16618104 14.35162568 0.08051602 7.17585234 0 0 Z "
     fill="#E5E5E5"
     id="path4"
     transform="translate(117,548)" />
  <path
     d="M0 0 C2.17750946 2.17750946 2.60308103 3.37470134 3.515625 6.26171875 C3.7940625 7.12587402 4.0725 7.9900293 4.359375 8.88037109 C4.80023438 10.2698999 4.80023438 10.2698999 5.25 11.6875 C9.88485348 25.91312061 15.48753324 39.53796544 22 53 C22.32258789 53.67240723 22.64517578 54.34481445 22.97753906 55.03759766 C27.73058647 64.91306419 32.91730352 74.16757646 39.21484375 83.1640625 C39.94832031 84.22367187 40.68179688 85.28328125 41.4375 86.375 C42.45650391 87.80972656 42.45650391 87.80972656 43.49609375 89.2734375 C45.18782033 92.34051583 45.62668945 93.5713354 45 97 C44.02082633 98.67156008 43.03827022 100.34143316 42.02441406 101.9921875 C40.10431643 105.75550564 39.5841407 109.86848462 38.875 114 C37.83169647 119.77696999 36.65879815 125.36008628 35 131 C32.22225969 143.02761555 31.36949947 155.06647185 30.734375 167.37353516 C30.66605469 168.58960449 30.59773438 169.80567383 30.52734375 171.05859375 C30.47312256 172.15486084 30.41890137 173.25112793 30.36303711 174.38061523 C30 177 30 177 28 179 C25.66365815 179.5775876 23.30436661 180.0640606 20.9375 180.5 C19.66777344 180.7371875 18.39804688 180.974375 17.08984375 181.21875 C16.42525146 181.34032471 15.76065918 181.46189941 15.07592773 181.5871582 C12.91617411 182.01667054 10.79364326 182.545367 8.65625 183.07421875 C3.61283021 184.20530165 -1.28455492 184.33134764 -6.4375 184.3125 C-7.31470703 184.32861328 -8.19191406 184.34472656 -9.09570312 184.36132812 C-15.259751 184.36587053 -21.39159087 183.74947267 -27 181 C-27.33 180.01 -27.66 179.02 -28 178 C-26.68 178 -25.36 178 -24 178 C-23.20544332 160.62773128 -24.67590905 145.52189218 -29.28662109 128.77978516 C-30.32241908 124.74364693 -30.99271773 120.67790549 -31.625 116.5625 C-32.47795255 111.12861509 -33.73972835 106.30593146 -36.23046875 101.37109375 C-38.34711883 94.84923285 -36.82678938 89.38983443 -34.1875 83.375 C-33.79594727 82.43140625 -33.79594727 82.43140625 -33.39648438 81.46875 C-32.14642248 78.49329402 -30.80401847 75.63723509 -29.26953125 72.796875 C-27.95440897 69.89955946 -27.76977071 68.88111056 -28.5 65.875 C-29 62 -29 62 -27.64453125 60.03515625 C-27.10183594 59.36355469 -26.55914062 58.69195312 -26 58 C-25.34287156 56.5435888 -24.74103771 55.06134869 -24.1875 53.5625 C-22.61783458 49.48855921 -20.9011549 45.52267978 -19.0625 41.5625 C-18.54816406 40.45261719 -18.03382813 39.34273437 -17.50390625 38.19921875 C-16.59066534 36.25650627 -15.66445348 34.31972789 -14.71484375 32.39453125 C-11.42229339 25.56593002 -9.17911255 18.54631416 -7.0546875 11.28466797 C-6.81621094 10.48689941 -6.57773438 9.68913086 -6.33203125 8.8671875 C-6.12296143 8.14644043 -5.9138916 7.42569336 -5.69848633 6.68310547 C-5 5 -5 5 -3 4 C-3.33 33.37 -3.66 62.74 -4 93 C-6.475 93.99 -6.475 93.99 -9 95 C-10.87248309 96.13289741 -10.87248309 96.13289741 -12 98 C-12.91565985 103.78391807 -13.05024382 109.20442185 -10.0625 114.3125 C-5.90608073 116.60277184 -2.64302864 116.76821019 2 116 C6.18531174 114.27128428 8.23950002 112.16960522 10 108 C10.5394827 105.02395256 10.39498332 103.11049363 10 100 C7.21794255 97.0633838 4.64269657 95.82134828 1 94 C0.67 62.98 0.34 31.96 0 0 Z "
     fill="#ECECEC"
     id="path5"
     transform="translate(175,55)" />
  <path
     d="M0 0 C3.0625 0.1875 3.0625 0.1875 5.0625 2.1875 C5.29011991 4.22167288 5.42169697 6.26712992 5.5 8.3125 C5.86282833 13.93326423 6.81195873 18.09368231 9.0625 23.1875 C9.88231229 25.30968968 10.69412127 27.43498015 11.5 29.5625 C11.93570313 30.68785156 12.37140625 31.81320313 12.8203125 32.97265625 C13.55436887 34.87243107 14.28132547 36.77501881 14.9921875 38.68359375 C18.08609305 46.80167335 22.09780961 54.47102226 26.0625 62.1875 C26.45775879 62.96399902 26.85301758 63.74049805 27.26025391 64.54052734 C33.35169058 76.48846258 39.8718067 87.81408173 47.58984375 98.796875 C48.21040649 99.68173584 48.21040649 99.68173584 48.84350586 100.58447266 C49.9909437 102.21106289 51.15130729 103.82851293 52.3125 105.4453125 C54.8677876 109.44935691 54.8677876 109.44935691 55.0625 112.1875 C54.4025 112.8475 53.7425 113.5075 53.0625 114.1875 C52.388116 116.27213469 52.388116 116.27213469 51.9140625 118.703125 C51.71530518 119.61835938 51.51654785 120.53359375 51.31176758 121.4765625 C51.10575928 122.45367187 50.89975098 123.43078125 50.6875 124.4375 C48.58546499 134.05393942 46.46428506 143.68420508 43.046875 152.9375 C41.72512282 157.3013802 41.12661977 161.67849003 40.5 166.1875 C40.24907316 167.93755384 39.99778008 169.68755522 39.74609375 171.4375 C39.62983643 172.26233887 39.5135791 173.08717773 39.39379883 173.93701172 C39.12270281 175.77854678 38.80605665 177.61332504 38.4765625 179.4453125 C38.03641148 182.36027488 37.96407516 185.11666299 38 188.0625 C38.00902344 189.02929688 38.01804687 189.99609375 38.02734375 190.9921875 C38.03894531 191.71664062 38.05054688 192.44109375 38.0625 193.1875 C39.03832031 193.71859375 40.01414062 194.2496875 41.01953125 194.796875 C42.30494561 195.50995158 43.59008768 196.22351917 44.875 196.9375 C45.51759766 197.28554687 46.16019531 197.63359375 46.82226562 197.9921875 C50.31998094 199.94945824 53.18082657 201.57270631 55.0625 205.1875 C55.26109596 208.08056011 54.67714975 210.30337425 54.0625 213.1875 C53.4025 213.5175 52.7425 213.8475 52.0625 214.1875 C52.09730469 213.48882812 52.13210937 212.79015625 52.16796875 212.0703125 C52.20857422 210.70519531 52.20857422 210.70519531 52.25 209.3125 C52.28480469 208.40757812 52.31960937 207.50265625 52.35546875 206.5703125 C52.25878906 205.78398437 52.16210938 204.99765625 52.0625 204.1875 C50.5775 203.1975 50.5775 203.1975 49.0625 202.1875 C49.0625 202.8475 49.0625 203.5075 49.0625 204.1875 C49.7225 204.5175 50.3825 204.8475 51.0625 205.1875 C50.4025 205.1875 49.7425 205.1875 49.0625 205.1875 C49.145 206.095 49.2275 207.0025 49.3125 207.9375 C49.0625 211.1875 49.0625 211.1875 47.1875 213.5625 C45.0625 215.1875 45.0625 215.1875 43.0625 215.1875 C42.5675 219.1475 42.5675 219.1475 42.0625 223.1875 C14.91887758 233.1070018 -13.5917542 231.97895731 -40.9375 224.1875 C-40.9375 222.5375 -40.9375 220.8875 -40.9375 219.1875 C-43.69674185 217.38338033 -44.82722103 217.1747755 -48.1875 217.5625 C-49.095 217.76875 -50.0025 217.975 -50.9375 218.1875 C-54.01596754 213.18499026 -54.85209806 208.93032503 -53.9375 203.1875 C-51.22076108 197.87214124 -46.31613512 196.11926332 -40.9375 194.1875 C-39.60968816 193.83281054 -38.27769192 193.49208907 -36.9375 193.1875 C-36.28560993 177.46970606 -40.30965778 162.35255966 -43.9375 147.1875 C-44.11571289 146.4361377 -44.29392578 145.68477539 -44.47753906 144.91064453 C-46.31102423 137.21610647 -48.3459311 129.5925634 -50.5625 122 C-50.76875 121.29254639 -50.975 120.58509277 -51.1875 119.85620117 C-52.05378915 116.94126475 -52.91835525 114.22551283 -54.2890625 111.50390625 C-54.9375 109.1875 -54.9375 109.1875 -53.734375 106.8203125 C-53.05890625 105.99273437 -52.3834375 105.16515625 -51.6875 104.3125 C-50.93210937 103.33539063 -50.17671875 102.35828125 -49.3984375 101.3515625 C-48.99206055 100.83239258 -48.58568359 100.31322266 -48.16699219 99.77832031 C-37.82477791 86.39669437 -30.44707636 71.26537634 -22.9375 56.1875 C-22.51130371 55.33236816 -22.08510742 54.47723633 -21.64599609 53.59619141 C-13.44008466 36.99008307 -5.7356208 19.76808158 -3.9375 1.1875 C-2.9375 0.1875 -2.9375 0.1875 0 0 Z M2.0625 18.1875 C2.00786657 30.35746364 1.99611094 42.52664012 2.03915405 54.69667339 C2.05779237 60.34778119 2.06163923 65.99809395 2.03173828 71.64916992 C2.00342646 77.10258074 2.01389586 82.55466289 2.05130005 88.00800514 C2.05874877 90.08881159 2.05220345 92.16971655 2.03146362 94.25043297 C2.00479464 97.16544083 2.02780474 100.07613316 2.0625 102.9909668 C2.04308853 103.85195984 2.02367706 104.71295288 2.00367737 105.60003662 C2.06324622 108.04829341 2.18591331 109.89780919 3.0625 112.1875 C5.50053202 114.39689725 8.11134978 115.77405677 11.0625 117.1875 C12.0625 118.1875 12.0625 118.1875 12.375 121.875 C12.3193625 126.30215523 10.97161515 128.79353233 8.0625 132.1875 C3.85623609 134.75358553 -0.13593524 134.95643386 -4.9375 134.1875 C-8 132.5 -8 132.5 -9.9375 129.1875 C-10.56286055 124.77647471 -10.75031408 120.57669602 -9.9375 116.1875 C-7.34994984 112.79594082 -6.18375642 112.2490641 -1.9375 111.1875 C-1.6075 81.8175 -1.2775 52.4475 -0.9375 22.1875 C-3.0663021 22.97911123 -3.0663021 22.97911123 -3.63598633 24.87060547 C-3.84505615 25.59135254 -4.05412598 26.31209961 -4.26953125 27.0546875 C-4.50776611 27.85197266 -4.74600098 28.64925781 -4.99145508 29.47070312 C-5.2417749 30.32599609 -5.49209473 31.18128906 -5.75 32.0625 C-7.99304522 39.41496755 -10.53173405 46.28657791 -13.9375 53.1875 C-15.07991847 55.58012234 -16.2146291 57.97630994 -17.34838867 60.37304688 C-18.13870255 62.04235252 -18.93169698 63.71039257 -19.7277832 65.37695312 C-24.39420627 74.44425595 -24.39420627 74.44425595 -26.9375 84.1875 C-26.59525391 85.02087891 -26.59525391 85.02087891 -26.24609375 85.87109375 C-25.75613148 89.54891181 -27.62379667 92.36671165 -29.25 95.5625 C-34.432586 105.84540713 -34.432586 105.84540713 -34.9375 117.1875 C-34.36109319 118.69804801 -33.73400429 120.1897785 -33.0703125 121.6640625 C-30.62594207 127.58006876 -29.52348358 133.52656605 -28.4375 139.8125 C-27.14206972 147.05488024 -25.76457529 154.08632653 -23.625 161.125 C-20.57728476 172.47131336 -21.60520205 184.541735 -21.9375 196.1875 C-23.2575 196.5175 -24.5775 196.8475 -25.9375 197.1875 C-23.23279086 200.90647506 -19.2126775 201.40771635 -14.9375 202.1875 C-0.05415989 203.7812143 15.85316689 201.83626307 30.0625 197.1875 C32.74058198 194.50941802 32.40449167 192.99362082 32.58984375 189.24609375 C32.65816406 188.03002441 32.72648437 186.81395508 32.796875 185.56103516 C32.86390625 184.26214355 32.9309375 182.96325195 33 181.625 C33.72536899 169.50033835 34.59566101 157.57475258 38.0390625 145.8671875 C39.52979012 140.50739581 40.44606525 135.05064159 41.38671875 129.5703125 C42.16431456 125.41049101 42.93892128 122.07304648 45.2578125 118.5 C47.32406602 115.3111269 47.32406602 115.3111269 47.13671875 111.73828125 C45.78205515 107.2605023 43.63601755 104.10555584 40.875 100.375 C39.86275496 98.95181951 38.85232614 97.52734541 37.84375 96.1015625 C37.3590625 95.42254883 36.874375 94.74353516 36.375 94.04394531 C27.60098496 81.63367553 21.70458275 67.22710126 16.0625 53.1875 C15.42738232 51.6352943 14.79193785 50.08322229 14.15625 48.53125 C10.0799914 38.52196247 6.3116595 28.49733304 3.0625 18.1875 C2.7325 18.1875 2.4025 18.1875 2.0625 18.1875 Z "
     fill="#131313"
     id="path6"
     transform="translate(172.9375,36.8125)" />
  <path
     d="M0 0 C0.66 0 1.32 0 2 0 C2.35369046 6.83801563 1.31084942 12.67132646 -0.3359375 19.30859375 C-1.02631207 23.14626417 -0.80710105 26.37433861 -0.5625 30.25 C-0.73129985 33.82293021 -0.96692445 36.03306836 -3.63964844 38.53466797 C-10.94211486 43.68702111 -19.64936136 47.56061967 -28.34765625 49.59765625 C-30.0285904 49.85534346 -30.0285904 49.85534346 -31 51 C-47.90520521 52.36863211 -70.61979245 53.44327074 -84.52734375 41.72265625 C-85.01332031 41.15417969 -85.49929687 40.58570313 -86 40 C-87.04800781 38.79923828 -87.04800781 38.79923828 -88.1171875 37.57421875 C-91.17180481 32.86668576 -90.9000114 27.18967197 -91.1875 21.75 C-91.32357299 19.57791896 -91.46273721 17.40602866 -91.60546875 15.234375 C-91.65856201 14.27756836 -91.71165527 13.32076172 -91.76635742 12.33496094 C-91.86219906 9.97898748 -91.86219906 9.97898748 -93 8 C-93.039992 6.00039988 -93.04346799 3.99952758 -93 2 C-79.49271201 3.63317138 -79.49271201 3.63317138 -74.6875 5.4375 C-57.63014111 11.59448406 -37.29712866 12.19099252 -20 7 C-18.48427836 6.58927534 -16.96726916 6.18328209 -15.44921875 5.78125 C-14.66869141 5.57113281 -13.88816406 5.36101562 -13.08398438 5.14453125 C-11.46810691 4.70994318 -9.85087582 4.28036119 -8.23242188 3.85546875 C-7.07129883 3.54029297 -7.07129883 3.54029297 -5.88671875 3.21875 C-5.18764404 3.03248047 -4.48856934 2.84621094 -3.76831055 2.65429688 C-1.78009517 2.0586193 -1.78009517 2.0586193 0 0 Z "
     fill="#EEEEEE"
     id="path7"
     transform="translate(219,1252)" />
  <path
     d="M0 0 C2.31 0 4.62 0 7 0 C7.26214469 17.24329501 6.496267 34.43543225 5.7289238 51.6559906 C5.55266456 55.63153147 5.38129596 59.60728372 5.20922852 63.58300781 C4.84167275 72.05265379 4.4669222 80.52197034 4.08946991 88.99118042 C3.95720292 91.96089972 3.82557813 94.93064748 3.69384766 97.90039062 C3.25735555 107.71853248 2.81118828 117.53618636 2.35383606 127.3533783 C2.09858396 132.84040533 1.8496132 138.32768871 1.60398865 143.81515503 C1.42633741 147.77816262 1.24665866 151.74107695 1.06668091 155.70397949 C0.98208457 157.57593084 0.8982933 159.44791879 0.81539917 161.31994629 C0.09848197 177.48579143 0.09848197 177.48579143 -0.52734375 183.70703125 C-1.16657066 190.1123205 -1.28519243 196.53389368 -1.44555664 202.96490479 C-1.5377483 206.62270182 -1.64325057 210.28010259 -1.75 213.9375 C-1.77066528 214.64617218 -1.79133057 215.35484436 -1.81262207 216.08499146 C-2.11321844 226.10393907 -2.48556038 236.08042047 -4 246 C-7.96828153 245.43310264 -10.81705503 244.47577101 -14 242 C-14.51904297 239.36962891 -14.51904297 239.36962891 -14.3671875 236.1015625 C-14.32174805 234.84633789 -14.27630859 233.59111328 -14.22949219 232.29785156 C-14.17384094 231.26368103 -14.17384094 231.26368103 -14.11706543 230.20861816 C-13.99398795 227.88657351 -13.90659303 225.56507503 -13.82519531 223.24121094 C-13.66505382 218.85857633 -13.46703523 214.47856925 -13.25537109 210.09814453 C-13.12621192 207.40031423 -13.00617236 204.70218151 -12.88671875 202.00390625 C-12.43342498 192.22128093 -11.72196904 182.50845402 -10.6925354 172.76933289 C-10.09245877 167.07534169 -9.67842893 161.41142602 -9.5 155.6875 C-9.22620653 148.74087644 -8.73805765 141.85572258 -8.0625 134.9375 C-6.43877884 117.8479494 -5.95986165 100.66450044 -5.23413086 83.51879883 C-4.02304352 54.94625036 -4.02304352 54.94625036 -3.0625 42.9375 C-2.88860894 40.67974238 -2.71546115 38.42192741 -2.54296875 36.1640625 C-2.45450684 35.01067383 -2.36604492 33.85728516 -2.27490234 32.66894531 C-1.77912789 26.05216154 -1.32784409 19.43233872 -0.875 12.8125 C-0.78742432 11.53431396 -0.69984863 10.25612793 -0.60961914 8.93920898 C-0.40582831 5.95951203 -0.202582 2.97977934 0 0 Z "
     fill="#E7E7E7"
     id="path8"
     transform="translate(136,275)" />
  <path
     d="M0 0 C3.0625 0.1875 3.0625 0.1875 5.0625 2.1875 C5.29011991 4.22167288 5.42169697 6.26712992 5.5 8.3125 C5.86282833 13.93326423 6.81195873 18.09368231 9.0625 23.1875 C9.88231229 25.30968968 10.69412127 27.43498015 11.5 29.5625 C12.35288826 31.77132739 13.20700353 33.97968148 14.0625 36.1875 C14.41570312 37.10402344 14.76890625 38.02054688 15.1328125 38.96484375 C16.70078245 42.97119217 18.35204783 46.8560198 20.3125 50.6875 C22.0625 54.1875 22.0625 54.1875 22.0625 56.1875 C21.0725 56.1875 20.0825 56.1875 19.0625 56.1875 C18.7325 57.5075 18.4025 58.8275 18.0625 60.1875 C16.38154191 56.19336507 14.71876262 52.19193652 13.0625 48.1875 C12.55847656 46.97320312 12.05445313 45.75890625 11.53515625 44.5078125 C11.02284789 43.25544937 10.51111906 42.00284899 10 40.75 C9.53464844 39.61691406 9.06929688 38.48382813 8.58984375 37.31640625 C6.50836946 31.68950517 4.82688155 25.92174003 3.0625 20.1875 C3.0625 50.5475 3.0625 80.9075 3.0625 112.1875 C6.0325 113.1775 6.0325 113.1775 9.0625 114.1875 C11.4375 115.8125 11.4375 115.8125 13.0625 118.1875 C13.78794656 123.1044156 13.60396697 125.92283227 10.8125 130.0625 C8.38210756 133.28802083 5.89753068 134.84051238 1.9140625 135.59375 C-2.1657319 135.76553082 -5.21918203 135.59504129 -8.5 133 C-11.96078943 128.95919 -11.7032853 124.29763227 -11.46484375 119.203125 C-10.96460182 116.34248227 -10.62410963 114.97450203 -8.6875 112.875 C-5.9375 111.1875 -5.9375 111.1875 -1.9375 111.1875 C-1.9375 82.1475 -1.9375 53.1075 -1.9375 23.1875 C-3.9175 29.4575 -5.8975 35.7275 -7.9375 42.1875 C-9.52113572 45.95398495 -11.13607037 49.53735912 -12.9375 53.1875 C-14.07991847 55.58012234 -15.2146291 57.97630994 -16.34838867 60.37304688 C-17.13870255 62.04235252 -17.93169698 63.71039257 -18.7277832 65.37695312 C-20.36890494 68.81963648 -21.95879394 72.23976694 -23.3984375 75.7734375 C-25.22434868 79.82380899 -27.48264704 83.37111245 -29.9375 87.0625 C-30.41155273 87.79138428 -30.88560547 88.52026855 -31.37402344 89.27124023 C-33.90443845 93.1546204 -36.4875516 96.99233583 -39.140625 100.79296875 C-39.65109375 101.5401416 -40.1615625 102.28731445 -40.6875 103.05712891 C-41.66407652 104.48479985 -42.65815186 105.90070716 -43.671875 107.30224609 C-46.03675358 110.79198879 -47.29655749 113.13913207 -46.83203125 117.4140625 C-46.15952556 120.25092057 -45.51818004 122.8325799 -44.375 125.5 C-42.9375 129.1875 -42.9375 129.1875 -42.9375 132.1875 C-43.9275 133.1775 -43.9275 133.1775 -44.9375 134.1875 C-45.10427282 137.77093976 -45.10427282 137.77093976 -44.9375 141.1875 C-45.2675 141.1875 -45.5975 141.1875 -45.9375 141.1875 C-46.19144531 140.16011719 -46.44539063 139.13273438 -46.70703125 138.07421875 C-49.49442405 124.52167299 -49.49442405 124.52167299 -54.2265625 111.69140625 C-54.9375 109.1875 -54.9375 109.1875 -53.734375 106.8203125 C-53.05890625 105.99273437 -52.3834375 105.16515625 -51.6875 104.3125 C-50.93210937 103.33539063 -50.17671875 102.35828125 -49.3984375 101.3515625 C-48.99206055 100.83239258 -48.58568359 100.31322266 -48.16699219 99.77832031 C-37.82477791 86.39669437 -30.44707636 71.26537634 -22.9375 56.1875 C-22.51130371 55.33236816 -22.08510742 54.47723633 -21.64599609 53.59619141 C-13.44008466 36.99008307 -5.7356208 19.76808158 -3.9375 1.1875 C-2.9375 0.1875 -2.9375 0.1875 0 0 Z "
     fill="#161616"
     id="path9"
     transform="translate(172.9375,36.8125)" />
  <path
     d="M0 0 C9.33675452 0.79125038 9.33675452 0.79125038 13 4 C13.58349609 6.50512695 13.58349609 6.50512695 13.5234375 9.48828125 C13.51183594 10.58849609 13.50023437 11.68871094 13.48828125 12.82226562 C13.45089844 13.97404297 13.41351563 15.12582031 13.375 16.3125 C13.35373047 17.97635742 13.35373047 17.97635742 13.33203125 19.67382812 C13.23609284 25.20307875 12.96260235 30.68889182 12.50390625 36.19921875 C11.73287746 46.36540222 11.74191515 56.55825869 11.61157227 66.74871826 C11.32857564 88.38212054 10.76406318 109.98335525 9.86602783 131.599823 C8.93405776 154.36386492 8.60039565 177.12833494 8.36512661 199.90843105 C8.33500751 202.77447346 8.30172535 205.64047523 8.26817513 208.50647926 C8.24663115 210.48578377 8.23059827 212.46514583 8.21470642 214.44450378 C8.20113602 215.63336685 8.18756561 216.82222992 8.17358398 218.04711914 C8.16407211 219.08115372 8.15456024 220.11518829 8.14476013 221.18055725 C8.00594208 223.88426817 7.60564639 226.36526721 7 229 C6.67 229 6.34 229 6 229 C5.01890826 224.85712406 4.8236321 220.91278765 4.73461914 216.66113281 C4.71813607 215.93436749 4.701653 215.20760218 4.68467045 214.45881367 C4.63076198 212.04032062 4.58304313 209.62174414 4.53515625 207.203125 C4.49767669 205.48273236 4.45973307 203.76234978 4.4213562 202.04197693 C4.33998382 198.36546243 4.26104051 194.68890748 4.18405151 191.01229858 C3.98005449 181.29050773 3.7599216 171.56907637 3.5390625 161.84765625 C3.51697409 160.87013208 3.49488567 159.89260792 3.47212791 158.88546181 C3.0622332 140.8157567 2.52812727 122.75207518 1.9375 104.6875 C1.27152235 84.14764054 0.7352794 63.61010873 0.375 43.0625 C0.3544455 41.90744965 0.33389099 40.75239929 0.31271362 39.56234741 C0.08243006 26.37382301 -0.05689666 13.1905435 0 0 Z "
     fill="#0C0C0C"
     id="path10"
     transform="translate(124,559)" />
  <path
     d="M0 0 C1.5625 1.1875 1.5625 1.1875 3 3 C2.57122796 7.71649241 0.43200374 11.8652809 -1.5 16.125 C-6.3120614 26.31451884 -6.3120614 26.31451884 -5.18237305 37.17700195 C-4.83730713 37.93972412 -4.49224121 38.70244629 -4.13671875 39.48828125 C-1.68556859 45.40007056 -0.58657362 51.34074339 0.5 57.625 C1.83850065 65.05647257 3.26324094 72.35724645 5.3125 79.625 C8.27688143 90.96854024 7.3717249 102.43831872 6 114 C3.6875 115.125 3.6875 115.125 1 116 C-0.485 115.01 -0.485 115.01 -2 114 C-2.41503906 110.86938477 -2.41503906 110.86938477 -2.515625 106.87890625 C-2.82989338 99.07584283 -3.88386957 91.6052385 -5.36425781 83.94506836 C-5.75017522 81.93658809 -6.11418685 79.9249547 -6.4765625 77.91210938 C-8.20262671 68.62233281 -10.79779726 59.89157325 -14 51 C-14.2892334 50.18974365 -14.5784668 49.3794873 -14.87646484 48.54467773 C-16.02610965 45.40434009 -17.29504022 42.35000529 -18.6875 39.3125 C-20.0387601 35.9021769 -20.50819763 34.57233043 -20 31 C-18.54303953 28.13499103 -16.75211376 25.52380056 -14.9375 22.875 C-13.92674515 21.35960051 -12.91632877 19.84397521 -11.90625 18.328125 C-11.16181641 17.22307617 -11.16181641 17.22307617 -10.40234375 16.09570312 C-8.53238975 13.30118969 -6.73187171 10.46862296 -4.9375 7.625 C-3.31593888 5.06380566 -1.68168096 2.52252144 0 0 Z "
     fill="#DEDEDF"
     id="path11"
     transform="translate(145,119)" />
  <path
     d="M0 0 C2.91517292 1.07401108 4.77810176 1.77810176 7 4 C7.33924331 7.00472647 7.56354251 9.10178136 7 12 C3.32211122 15.99313639 -0.914274 17.80360864 -6.27734375 18.30859375 C-7.48519531 18.35113281 -8.69304687 18.39367187 -9.9375 18.4375 C-14.97844251 18.66710688 -19.53279474 19.276217 -24.4375 20.5625 C-39.76341649 24.11129338 -56.60380115 22.53584452 -72 20 C-72.33 16.04 -72.66 12.08 -73 8 C-71.90429688 8.0721875 -70.80859375 8.144375 -69.6796875 8.21875 C-58.95852067 8.86977693 -48.24011893 9.15971343 -37.5 9.25 C-36.24944824 9.27126953 -34.99889648 9.29253906 -33.71044922 9.31445312 C-22.51066486 9.35607143 -11.89908244 7.48222727 -2 2 C-1.34 1.34 -0.68 0.68 0 0 Z "
     fill="#EEEEED"
     id="path12"
     transform="translate(214,237)" />
  <path
     d="M0 0 C3.44456188 0.52417246 5.89034674 1.84724077 8.9375 3.48046875 C11.21020734 4.60307621 13.36472747 5.12371593 15.875 5.4375 C14.555 5.7675 13.235 6.0975 11.875 6.4375 C12.205 7.0975 12.535 7.7575 12.875 8.4375 C12.94496014 10.14452735 12.95940154 11.85418003 12.9375 13.5625 C12.92847656 14.47257813 12.91945312 15.38265625 12.91015625 16.3203125 C12.89855469 17.01898438 12.88695312 17.71765625 12.875 18.4375 C38.42622564 20.63182655 38.42622564 20.63182655 63.625 17.16796875 C68.59081486 16.05185411 73.52368476 15.87587272 78.59765625 15.6484375 C81.45798708 15.46433993 84.08755202 15.0803519 86.875 14.4375 C86.545 16.7475 86.215 19.0575 85.875 21.4375 C58.73137758 31.3570018 30.2207458 30.22895731 2.875 22.4375 C2.93558594 21.65890625 2.99617187 20.8803125 3.05859375 20.078125 C2.99800781 19.20671875 2.93742188 18.3353125 2.875 17.4375 C0.00624461 15.1359961 0.00624461 15.1359961 -3.125 13.4375 C-4.70460269 11.85789731 -4.29486544 10.24213184 -4.3125 8.0625 C-4.32667969 7.27101562 -4.34085937 6.47953125 -4.35546875 5.6640625 C-4.02839865 2.50423268 -3.24649757 0.66839656 0 0 Z "
     fill="#302F2F"
     id="path13"
     transform="translate(129.125,238.5625)" />
  <path
     d="M0 0 C2.1875 0.3125 2.1875 0.3125 4 1 C3.83047255 5.32295002 3.51152436 7.4360116 0.5625 10.6875 C-7.589641 16.54081451 -16.16545648 17.6917071 -26 18 C-26 18.66 -26 19.32 -26 20 C-27.5816933 20.32069766 -29.16551409 20.6308975 -30.75 20.9375 C-31.63171875 21.11152344 -32.5134375 21.28554688 -33.421875 21.46484375 C-43.14434106 22.91896804 -52.87070081 23.18198184 -62.6875 23.1875 C-63.84572266 23.19974609 -65.00394531 23.21199219 -66.19726562 23.22460938 C-75.28736374 23.24009506 -82.97627137 22.52620589 -91 18 C-91 15.69 -91 13.38 -91 11 C-89.97398682 11.09087891 -89.97398682 11.09087891 -88.92724609 11.18359375 C-70.49146902 12.86052566 -70.49146902 12.86052566 -52 13 C-51.25524414 12.97534668 -50.51048828 12.95069336 -49.74316406 12.92529297 C-37.18350356 12.48797888 -25.88362154 11.26792339 -14 7 C-13.04222656 6.67773438 -12.08445312 6.35546875 -11.09765625 6.0234375 C-10.11667969 5.68570313 -9.13570313 5.34796875 -8.125 5 C-7.22007812 4.690625 -6.31515625 4.38125 -5.3828125 4.0625 C-2.97931579 2.99077688 -1.80293943 1.85643911 0 0 Z "
     fill="#E0E0DF"
     id="path14"
     transform="translate(229,524)" />
  <path
     d="M0 0 C2.4490142 3.67352129 2.23005127 5.40180734 2.19189453 9.77880859 C2.18908981 10.46371872 2.1862851 11.14862885 2.18339539 11.85429382 C2.17690033 13.34064301 2.16631732 14.82697867 2.15213394 16.31327438 C2.1326555 18.6674122 2.13046748 21.02094296 2.13400269 23.37515259 C2.14369369 30.06809301 2.14405407 36.76043841 2.07910156 43.453125 C2.04061778 47.54841668 2.04099637 51.64213591 2.06667709 55.73750687 C2.06909033 57.29642873 2.05701969 58.85544379 2.03009415 60.41413498 C1.51769107 68.77785141 1.51769107 68.77785141 4.77288818 76.02276611 C6.81447599 77.29566522 8.75987414 78.14549026 11 79 C13 81 13 81 13.4375 84.6875 C13.32472975 89.44987443 11.37744917 92.71143108 8 96 C3.80745236 98.57073909 -0.20954998 98.88528178 -5 98 C-8.03472683 96.59697965 -9.56236484 95.01579106 -11 92 C-11.86190534 87.01593871 -12.36548084 81.67741341 -10.00390625 77.046875 C-8.75 75.6875 -8.75 75.6875 -6 74 C-4.68 74 -3.36 74 -2 74 C-2.00222061 73.30446014 -2.00444122 72.60892029 -2.00672913 71.89230347 C-2.02692971 65.27440325 -2.04207353 58.65651188 -2.05181217 52.03858757 C-2.0569875 48.63785338 -2.0639854 45.23714508 -2.07543945 41.83642578 C-2.0876986 37.909173 -2.09327234 33.98195607 -2.09765625 30.0546875 C-2.10281754 28.8582663 -2.10797882 27.66184509 -2.11329651 26.4291687 C-2.11474181 4.22948363 -2.11474181 4.22948363 0 0 Z "
     fill="#0B0B0C"
     id="path15"
     transform="translate(173,74)" />
  <path
     d="M0 0 C0.96679688 0.43119141 0.96679688 0.43119141 1.953125 0.87109375 C5.81999951 2.30382033 9.72949227 3.17093716 13.75 4.0625 C21.86702976 5.86702976 21.86702976 5.86702976 23 7 C23.16051048 8.99746374 23.27770297 10.99846102 23.375 13 C24.19652302 23.76195155 26.49499568 29.14561761 34.13671875 36.93359375 C36 39 36 39 36 41 C30.77469862 40.38004899 25.95478604 39.25808716 20.9375 37.6875 C20.25623047 37.48705078 19.57496094 37.28660156 18.87304688 37.08007812 C13.346825 35.36540986 7.4858661 32.81661904 4 28 C3.59375 25.43359375 3.59375 25.43359375 3.5 22.4375 C3.20967748 17.32905898 2.23919443 13.03786674 0.6328125 8.203125 C-0.16676239 5.41941983 -0.22711891 2.87683957 0 0 Z "
     fill="#0A0A0A"
     id="path16"
     transform="translate(132,1259)" />
  <path
     d="M0 0 C0.33 0.66 0.66 1.32 1 2 C-0.03428394 4.47753975 -1.12139187 6.84935266 -2.3125 9.25 C-7.48155117 19.6062867 -7.48155117 19.6062867 -8 31 C-7.42630047 32.50536295 -6.80175201 33.99186983 -6.140625 35.4609375 C-3.66367543 41.45671939 -2.50683989 47.50840061 -1.375 53.875 C-1.17132813 54.96941406 -0.96765625 56.06382812 -0.7578125 57.19140625 C0.42789909 63.61401069 1.52555404 70.05008487 2.58496094 76.49462891 C2.9169882 78.49890168 3.26786578 80.50004835 3.625 82.5 C4.57401793 91.35750071 3.97337377 100.17010941 3 109 C1.10660058 107.40339347 0.10603042 106.4446542 -0.4765625 104.00146484 C-0.52554688 103.24559082 -0.57453125 102.4897168 -0.625 101.7109375 C-0.68993652 100.86031738 -0.75487305 100.00969727 -0.82177734 99.13330078 C-0.88059082 98.22306152 -0.9394043 97.31282227 -1 96.375 C-2.23786465 80.97955328 -4.25921927 64.8082177 -10.05859375 50.36328125 C-11.25723833 47.35423572 -11.82225573 44.35320038 -12.4375 41.18359375 C-13.02246419 38.91279527 -13.94110577 37.08335288 -15 35 C-15.81250142 29.17707319 -13.52007154 25.07504712 -11 20 C-10.35263789 18.66807891 -9.70552244 17.33603791 -9.05859375 16.00390625 C-8.35278113 14.56450597 -7.64574013 13.12570741 -6.9375 11.6875 C-6.5971875 10.99350098 -6.256875 10.29950195 -5.90625 9.58447266 C-4.1857311 6.13925072 -2.4660386 2.9884393 0 0 Z "
     fill="#131313"
     id="path17"
     transform="translate(147,123)" />
  <path
     d="M0 0 C0.928125 0.061875 1.85625 0.12375 2.8125 0.1875 C3.1875 2.375 3.1875 2.375 2.8125 5.1875 C-4.99474495 13.83877144 -18.26371717 15.34069834 -29.16674805 17.71313477 C-31.06855874 18.15957891 -32.94282591 18.71901571 -34.8125 19.28515625 C-40.92258709 20.8180941 -47.24214254 20.52775883 -53.5 20.5 C-54.1663446 20.49751251 -54.83268921 20.49502502 -55.51922607 20.49246216 C-75.12624535 20.37936621 -99.61151788 18.63948456 -115.1875 5.1875 C-115.1875 3.8675 -115.1875 2.5475 -115.1875 1.1875 C-111.91521195 1.76829571 -110.38180632 2.71988407 -108.0625 5.0625 C-101.65903387 10.74387314 -93.98296363 11.31419184 -85.74609375 11.875 C-82.00434949 12.33200693 -77.93049917 13.44450083 -75.1875 16.1875 C-72.99272309 16.2876491 -70.794716 16.31831219 -68.59765625 16.3203125 C-67.60807167 16.32174759 -67.60807167 16.32174759 -66.59849548 16.32321167 C-65.20050969 16.32389336 -63.80252076 16.32203986 -62.40454102 16.31787109 C-60.26246018 16.31253106 -58.12058983 16.31781199 -55.97851562 16.32421875 C-54.62239537 16.3235578 -53.26627524 16.32227629 -51.91015625 16.3203125 C-50.67015869 16.31918457 -49.43016113 16.31805664 -48.15258789 16.31689453 C-45.25760625 16.39246698 -45.25760625 16.39246698 -43.1875 15.1875 C-40.5151379 15.05334528 -37.86499512 15.14431459 -35.1875 15.1875 C-35.1875 14.5275 -35.1875 13.8675 -35.1875 13.1875 C-34.4140625 13.07792969 -33.640625 12.96835938 -32.84375 12.85546875 C-23.1921142 11.38622221 -11.67212303 8.96006574 -4.625 1.54296875 C-3.1875 0.1875 -3.1875 0.1875 0 0 Z "
     fill="#D6D4D2"
     id="path18"
     transform="translate(230.1875,1226.8125)" />
  <path
     d="M0 0 C-3.60256751 8.21006174 -11.00336985 15.11023647 -19 19 C-29.88070862 22.62690287 -47.70210172 21.085063 -58.05859375 16.70703125 C-63.0371262 14.13512007 -67.57476695 11.48823642 -71 7 C-71 5.68 -71 4.36 -71 3 C-67.23955942 4.05762391 -64.94010433 5.84146993 -62.125 8.4375 C-56.16032104 13.81128553 -49.71203712 15.51355294 -42 17 C-42.495 16.4225 -42.99 15.845 -43.5 15.25 C-45 13 -45 13 -45 9 C-44.2575 9.165 -43.515 9.33 -42.75 9.5 C-33.90578479 10.67922869 -26.22053167 10.10918968 -17.625 7.8125 C-16.86413086 7.61640137 -16.10326172 7.42030273 -15.31933594 7.21826172 C-9.96782059 5.68302955 -4.96573907 0 0 0 Z "
     fill="#F0F0F0"
     id="path19"
     transform="translate(210,1301)" />
  <path
     d="M0 0 C5.06428361 0.49278209 8.07214987 2.09224 12.25 4.9375 C16.88040144 7.95167901 20.89859993 9.92385143 26.42333984 10.58935547 C28.98153857 10.99705779 31.21746471 11.69880516 33.671875 12.515625 C40.96888801 14.53904852 48.18653891 14.48632301 55.70410156 14.44604492 C58.1005 14.43758648 60.49446358 14.46629823 62.890625 14.49804688 C78.77967379 14.56939159 94.19807514 11.40096243 108.5 4.25 C111 3 111 3 114 3 C112.68187385 6.95437844 110.57423226 8.18841438 107 10 C102.96937724 11.56560779 98.87146737 12.88302131 94.75 14.1875 C92.57778081 14.88825689 90.40588845 15.59002797 88.234375 16.29296875 C86.79916504 16.74965942 86.79916504 16.74965942 85.33496094 17.21557617 C83.01391707 17.93508568 83.01391707 17.93508568 81 19 C78.56067108 19.11121844 76.15093149 19.16411765 73.7109375 19.16796875 C72.9748526 19.17129715 72.2387677 19.17462555 71.4803772 19.17805481 C69.91172916 19.18312856 68.34307029 19.185463 66.77441406 19.18530273 C64.43274568 19.18744712 62.09158222 19.20547718 59.75 19.22460938 C45.85556125 19.27897235 32.40964991 18.15854912 19 14.25 C18.13761719 14.023125 17.27523437 13.79625 16.38671875 13.5625 C10.41934092 11.86012211 5.45713838 9.40622459 1 5 C0 2.125 0 2.125 0 0 Z "
     fill="#D0CECD"
     id="path20"
     transform="translate(115,1236)" />
  <path
     d="M0 0 C0.66 1.32 1.32 2.64 2 4 C17.87116841 17.19667378 43.17810473 18.24933796 62.6875 18.3125 C64.62157715 18.32095947 64.62157715 18.32095947 66.59472656 18.32958984 C73.11419161 18.27923001 78.76525745 17.88789079 85 16 C86.36847887 15.67875384 87.73974282 15.36918651 89.11328125 15.0703125 C96.61147793 13.38936323 103.83213121 11.57808532 110.99609375 8.734375 C113 8 113 8 115 8 C115.495 9.98 115.495 9.98 116 12 C114.7625 12.12375 114.7625 12.12375 113.5 12.25 C110.55602297 12.88085222 108.9647686 13.45244579 106.41796875 14.84375 C91.49850283 22.43130566 75.12022629 23.5796083 58.6875 23.5625 C57.89131256 23.56503784 57.09512512 23.56757568 56.27481079 23.57019043 C48.00741351 23.56720631 40.19477932 23.32004361 32.26049805 20.70361328 C29.87721644 19.96178181 27.59948185 19.61158428 25.125 19.3125 C19.3304929 18.24801387 14.88599087 15.09603329 10.078125 11.875 C7.08608885 10.05243991 4.35504318 8.96432379 1 8 C1.33 9.65 1.66 11.3 2 13 C1.34 12.67 0.68 12.34 0 12 C0 8.04 0 4.08 0 0 Z "
     fill="#1B1A19"
     id="path21"
     transform="translate(114,1228)" />
  <path
     d="M0 0 C4.83614096 -0.20579323 8.89023419 0.34548323 13.58203125 1.4921875 C17.04244592 2.21893048 20.50945877 2.48759796 24.03125 2.75390625 C26 3 26 3 27 4 C31.25317581 4.22061194 35.51242029 4.18578592 39.77075195 4.18530273 C41.897511 4.18745945 44.02372558 4.20552169 46.15039062 4.22460938 C54.45699415 4.25905583 62.10987339 3.56736702 70.15698242 1.42602539 C74.22394475 0.35532272 77.78974461 -0.21051277 82 0 C82 0.99 82 1.98 82 3 C53.20582116 8.96740527 28.55569087 11.13619961 0 3 C0 2.01 0 1.02 0 0 Z "
     fill="#BEBDBD"
     id="path22"
     transform="translate(132,258)" />
  <path
     d="M0 0 C4.62 0.66 9.24 1.32 14 2 C14 2.33 14 2.66 14 3 C12.35 3 10.7 3 9 3 C9.33 4.32 9.66 5.64 10 7 C8.68 6.34 7.36 5.68 6 5 C6.27714844 6.01578125 6.55429688 7.0315625 6.83984375 8.078125 C7.20821982 9.4680923 7.57391719 10.8587712 7.9375 12.25 C8.22197998 13.33631714 8.22197998 13.33631714 8.51220703 14.44458008 C9.62882921 18.90860929 10.23080292 23.0674256 10.375 27.6875 C10.5395837 31.56498165 10.5395837 31.56498165 12.38671875 34.84765625 C14.18666484 36.42933445 14.18666484 36.42933445 17 38 C15.515 38.495 15.515 38.495 14 39 C14 39.99 14 40.98 14 42 C8.31215317 40.2620468 6.19211161 36.78816742 3 32 C2.60522461 29.48803711 2.60522461 29.48803711 2.40234375 26.52734375 C2.28342773 24.93116211 2.28342773 24.93116211 2.16210938 23.30273438 C2.08798828 22.19220703 2.01386719 21.08167969 1.9375 19.9375 C1.78357487 17.73802442 1.62619737 15.53878686 1.46484375 13.33984375 C1.399021 12.36394287 1.33319824 11.38804199 1.26538086 10.38256836 C1.137429 7.98698127 1.137429 7.98698127 0 6 C0 4.02 0 2.04 0 0 Z "
     fill="#E9E9E9"
     id="path23"
     transform="translate(126,1254)" />
  <path
     d="M0 0 C3.44456188 0.52417246 5.89034674 1.84724077 8.9375 3.48046875 C11.21020734 4.60307621 13.36472747 5.12371593 15.875 5.4375 C14.555 5.7675 13.235 6.0975 11.875 6.4375 C12.205 7.0975 12.535 7.7575 12.875 8.4375 C12.94496014 10.14452735 12.95940154 11.85418003 12.9375 13.5625 C12.92847656 14.47257813 12.91945312 15.38265625 12.91015625 16.3203125 C12.89855469 17.01898438 12.88695312 17.71765625 12.875 18.4375 C5.87925241 18.16098824 0.98747684 17.54997684 -4.125 12.4375 C-4.29296875 10.4765625 -4.29296875 10.4765625 -4.3125 8.0625 C-4.32667969 7.27101562 -4.34085937 6.47953125 -4.35546875 5.6640625 C-4.02839865 2.50423268 -3.24649757 0.66839656 0 0 Z "
     fill="#E1E0E1"
     id="path24"
     transform="translate(129.125,238.5625)" />
  <path
     d="M0 0 C0.7734375 0.433125 0.7734375 0.433125 1.5625 0.875 C4.146337 2.14974074 4.146337 2.14974074 7.6875 3 C8.780625 3.33 9.87375 3.66 11 4 C11.33 4.66 11.66 5.32 12 6 C14.85741085 6.8013619 17.66711443 7.49708506 20.5625 8.125 C21.36880859 8.30675781 22.17511719 8.48851562 23.00585938 8.67578125 C25.00223825 9.12467118 27.0009198 9.56329743 29 10 C27.68 10.33 26.36 10.66 25 11 C25 13.31 25 15.62 25 18 C6.14012739 14.21019108 6.14012739 14.21019108 0 5 C-0.125 2.3125 -0.125 2.3125 0 0 Z "
     fill="#10100F"
     id="path25"
     transform="translate(113,524)" />
  <path
     d="M0 0 C3.27228805 0.58079571 4.80569368 1.53238407 7.125 3.875 C13.52846613 9.55637314 21.20453637 10.12669184 29.44140625 10.6875 C33.18315051 11.14450693 37.25700083 12.25700083 40 15 C42.52596259 15.23653523 45.03107207 15.42173692 47.5625 15.5625 C48.27341797 15.60568359 48.98433594 15.64886719 49.71679688 15.69335938 C51.47761912 15.79971777 53.2387832 15.90038846 55 16 C55 16.33 55 16.66 55 17 C61.93 17.33 68.86 17.66 76 18 C76 18.33 76 18.66 76 19 C18.65735735 20.11317226 18.65735735 20.11317226 0 4 C0 2.68 0 1.36 0 0 Z "
     fill="#C8C5C4"
     id="path26"
     transform="translate(115,1228)" />
  <path
     d="M0 0 C0.33 0 0.66 0 1 0 C0.58093701 4.40016137 0.14292721 8.64982036 -0.9375 12.9375 C-3.97129588 25.95565397 -4.35996694 39.69404947 -5 53 C-6.32 53 -7.64 53 -9 53 C-10.03180823 34.82871066 -7.80719237 16.6459657 0 0 Z "
     fill="#0D0D0D"
     id="path27"
     transform="translate(205,176)" />
  <path
     d="M0 0 C0.66 0 1.32 0 2 0 C1.69127671 2.60466543 1.37818277 5.20867691 1.0625 7.8125 C0.97548828 8.55048828 0.88847656 9.28847656 0.79882812 10.04882812 C0.41783454 13.16733121 -0.00369374 16.01108122 -1 19 C-1.21854681 21.20863366 -1.39009026 23.42204469 -1.53515625 25.63671875 C-1.66567383 27.58481445 -1.66567383 27.58481445 -1.79882812 29.57226562 C-1.88680424 30.94400494 -1.97469376 32.3157498 -2.0625 33.6875 C-2.15393414 35.07098756 -2.24572683 36.45445148 -2.33789062 37.83789062 C-2.56212726 41.225044 -2.78267968 44.61239699 -3 48 C-3.33 48 -3.66 48 -4 48 C-4.33 40.08 -4.66 32.16 -5 24 C-5.66 24.99 -6.32 25.98 -7 27 C-6.22095672 9.14350797 -6.22095672 9.14350797 -4 1 C-3.34 1.66 -2.68 2.32 -2 3 C-1.34 2.01 -0.68 1.02 0 0 Z "
     fill="#C9C9C9"
     id="path28"
     transform="translate(208,184)" />
  <path
     d="M0 0 C0.99 0.33 1.98 0.66 3 1 C5.99762128 14.06106415 6.47245607 25.64271993 5 39 C2.25798073 36.68560133 1.58408501 35.19191839 1.26953125 31.640625 C1.18880371 30.77848389 1.10807617 29.91634277 1.02490234 29.02807617 C0.95480957 28.11131104 0.8847168 27.1945459 0.8125 26.25 C0.73209473 25.31583252 0.65168945 24.38166504 0.56884766 23.41918945 C-0.05896813 15.59826466 -0.21682583 7.84186757 0 0 Z "
     fill="#1C1C1C"
     id="path29"
     transform="translate(145,193)" />
  <path
     d="M0 0 C3.76044058 1.05762391 6.05989567 2.84146993 8.875 5.4375 C14.83967896 10.81128553 21.28796288 12.51355294 29 14 C29.33 13.34 29.66 12.68 30 12 C30 13.32 30 14.64 30 16 C37.26 15.67 44.52 15.34 52 15 C48.92423819 17.05050788 48.26478045 17.25502137 44.7890625 17.265625 C43.96269287 17.26997559 43.13632324 17.27432617 42.28491211 17.27880859 C41.40714111 17.26930176 40.52937012 17.25979492 39.625 17.25 C38.27450562 17.23767334 38.27450562 17.23767334 36.89672852 17.22509766 C23.6953047 17.00540858 12.00828558 15.59975838 1.8125 6.375 C0 4 0 4 0 0 Z "
     fill="#C2C1C1"
     id="path30"
     transform="translate(139,1304)" />
  <path
     d="M0 0 C0.33 0 0.66 0 1 0 C1.85902199 11.41255547 2.13581578 22.74537404 2.09765625 34.1875 C2.09578485 35.86857053 2.09436437 37.54964161 2.09336853 39.23071289 C2.0896001 43.59693989 2.07982028 47.96313217 2.06866455 52.3293457 C2.05832644 56.80810069 2.0538447 61.28686145 2.04882812 65.765625 C2.03819127 74.51043238 2.02118557 83.25521184 2 92 C1.67 92 1.34 92 1 92 C0.98969254 91.1127272 0.97938507 90.22545441 0.96876526 89.31129456 C0.87096575 80.96748429 0.76847685 72.62374785 0.66066074 64.28006077 C0.60539264 59.9900379 0.55196657 55.70000826 0.50268555 51.40991211 C0.45509914 47.27314564 0.40275868 43.13646464 0.34705925 38.99979973 C0.32660966 37.41810153 0.30790097 35.83637988 0.29092598 34.25464058 C0.2669393 32.04670822 0.23687744 29.8389388 0.20532227 27.63110352 C0.18977798 26.37201675 0.1742337 25.11292999 0.15821838 23.81568909 C0.31913196 21.09702459 0.31913196 21.09702459 -1 20 C-1.33 24.62 -1.66 29.24 -2 34 C-2.33 34 -2.66 34 -3 34 C-3 23 -3 12 -3 1 C-2.34 1.33 -1.68 1.66 -1 2 C-0.67 1.34 -0.34 0.68 0 0 Z "
     fill="#636363"
     id="path31"
     transform="translate(174,56)" />
  <path
     d="M0 0 C1.2065625 0.0309375 1.2065625 0.0309375 2.4375 0.0625 C2.4375 0.7225 2.4375 1.3825 2.4375 2.0625 C0.7875 2.0625 -0.8625 2.0625 -2.5625 2.0625 C-2.5625 2.7225 -2.5625 3.3825 -2.5625 4.0625 C-11.98379061 9.30725705 -23.88369946 8.32062294 -34.3125 8.1875 C-35.70311846 8.17743717 -37.09374408 8.16831723 -38.484375 8.16015625 C-41.84393819 8.13682595 -45.20312175 8.1040923 -48.5625 8.0625 C-48.5625 7.7325 -48.5625 7.4025 -48.5625 7.0625 C-47.94842285 7.0123877 -47.3343457 6.96227539 -46.70166016 6.91064453 C-43.86307723 6.67556189 -41.02532334 6.43157466 -38.1875 6.1875 C-37.22199219 6.10886719 -36.25648438 6.03023437 -35.26171875 5.94921875 C-29.68798923 5.4629202 -24.29745022 4.70352485 -18.82617188 3.53515625 C-14.63488953 2.6600136 -10.39005033 2.12566638 -6.15234375 1.52734375 C-3.22442355 1.00181961 -2.96730907 0.07237339 0 0 Z "
     fill="#ECECEC"
     id="path32"
     transform="translate(211.5625,1237.9375)" />
  <path
     d="M0 0 C0 0.99 0 1.98 0 3 C-3.14449224 3.65247647 -6.29080756 4.29572575 -9.4375 4.9375 C-10.75524414 5.21110352 -10.75524414 5.21110352 -12.09960938 5.49023438 C-21.85186806 7.46947507 -31.11164828 8.14411582 -41.0625 8.0625 C-42.11888672 8.05798828 -43.17527344 8.05347656 -44.26367188 8.04882812 C-46.84250908 8.03715918 -49.42122294 8.02078885 -52 8 C-51.67 7.34 -51.34 6.68 -51 6 C-50.15574463 5.970271 -50.15574463 5.970271 -49.29443359 5.93994141 C-28.42164437 5.21577111 -28.42164437 5.21577111 -8.1328125 0.59765625 C-5.37864921 -0.17411478 -2.8404142 -0.22424323 0 0 Z "
     fill="#EEEDEC"
     id="path33"
     transform="translate(214,258)" />
  <path
     d="M0 0 C1.32 0.33 2.64 0.66 4 1 C4 1.33 4 1.66 4 2 C6.97 2.495 6.97 2.495 10 3 C9.67 3.66 9.34 4.32 9 5 C7.35 4.67 5.7 4.34 4 4 C3.05761302 6.82716095 2.86534353 8.63176123 2.875 11.5625 C2.87242188 12.34753906 2.86984375 13.13257813 2.8671875 13.94140625 C2.87023634 16.06438977 2.87023634 16.06438977 4 18 C2.35 18.66 0.7 19.32 -1 20 C-4.04551552 15.05103728 -4.994841 10.69677371 -4 5 C-2 1.9375 -2 1.9375 0 0 Z "
     fill="#1A1A1A"
     id="path34"
     transform="translate(123,235)" />
  <path
     d="M0 0 C6.33638191 0.57936825 11.97068452 2.06662061 18 4.0625 C19.30517578 4.48499023 19.30517578 4.48499023 20.63671875 4.91601562 C22.75997589 5.60432426 24.88088417 6.29906661 27 7 C27 7.66 27 8.32 27 9 C20.76256285 10.41336771 16.13610659 9.33146679 10.0625 7.5625 C9.18787109 7.31951172 8.31324219 7.07652344 7.41210938 6.82617188 C5.27102775 6.229477 3.13425393 5.62058961 1 5 C0.67 3.35 0.34 1.7 0 0 Z "
     fill="#E2E2E2"
     id="path35"
     transform="translate(140,1293)" />
  <path
     d="M0 0 C6.25201072 0.58981233 6.25201072 0.58981233 8.9375 2.0625 C10.69959328 5.27572893 10.17782537 8.3842174 10 12 C8.741875 11.87625 7.48375 11.7525 6.1875 11.625 C5.47980469 11.55539063 4.77210938 11.48578125 4.04296875 11.4140625 C2 11 2 11 -1 9 C-0.67 6.03 -0.34 3.06 0 0 Z "
     fill="#191918"
     id="path36"
     transform="translate(131,243)" />
  <path
     d="M0 0 C3.30497169 4.95745753 3.16375151 9.80673684 3.125 15.625 C3.12306641 16.32560547 3.12113281 17.02621094 3.11914062 17.74804688 C3.07149852 23.53391606 2.68187443 29.2527727 2 35 C-0.3125 36.125 -0.3125 36.125 -3 37 C-6 35 -6 35 -6.43237305 32.93701172 C-6.45855713 32.10959473 -6.48474121 31.28217773 -6.51171875 30.4296875 C-6.56489258 29.08583984 -6.56489258 29.08583984 -6.61914062 27.71484375 C-6.64169922 26.77769531 -6.66425781 25.84054688 -6.6875 24.875 C-6.72166016 23.93011719 -6.75582031 22.98523438 -6.79101562 22.01171875 C-6.87364112 19.67459747 -6.94273988 17.33785809 -7 15 C-4.03662109 17.63525391 -4.03662109 17.63525391 -3.70703125 20.91796875 C-3.8046875 23.9453125 -3.90234375 26.97265625 -4 30 C-3.67 26.04 -3.34 22.08 -3 18 C-2.67 18 -2.34 18 -2 18 C-1.93941406 18.91523438 -1.87882813 19.83046875 -1.81640625 20.7734375 C-1.73261719 21.96195313 -1.64882812 23.15046875 -1.5625 24.375 C-1.48128906 25.55835938 -1.40007812 26.74171875 -1.31640625 27.9609375 C-1.18915064 30.91518901 -1.18915064 30.91518901 0 33 C1.37477952 21.90356531 1.22417146 11.10498396 0 0 Z "
     fill="#BFBFBE"
     id="path37"
     transform="translate(149,198)" />
  <path
     d="M0 0 C5.41038391 0.40577879 9.92857155 2.42458314 14 6 C14 6.99 14 7.98 14 9 C14.66 9 15.32 9 16 9 C16 9.66 16 10.32 16 11 C4.85793605 9.35573425 4.85793605 9.35573425 1 5 C0.1875 2.25 0.1875 2.25 0 0 Z "
     fill="#E0DDDB"
     id="path38"
     transform="translate(115,1236)" />
  <path
     d="M0 0 C0.98097656 0.46019531 1.96195313 0.92039062 2.97265625 1.39453125 C7.04448404 3.1396003 11.08507303 3.9587771 15.4375 4.6875 C16.16904297 4.81705078 16.90058594 4.94660156 17.65429688 5.08007812 C19.434877 5.39429815 21.21726583 5.69824068 23 6 C23 6.33 23 6.66 23 7 C20.03 6.67 17.06 6.34 14 6 C14 6.66 14 7.32 14 8 C16.64 8.33 19.28 8.66 22 9 C22 9.33 22 9.66 22 10 C15.54153469 9.43755107 9.64936738 8.26271535 3.4375 6.4375 C2.21063477 6.08655273 2.21063477 6.08655273 0.95898438 5.72851562 C-1.02920527 5.15880046 -3.01488299 4.58033086 -5 4 C-1.98968256 3.06576355 -1.13349732 2.95550089 2 4 C2 3.34 2 2.68 2 2 C1.34 2 0.68 2 0 2 C0 1.34 0 0.68 0 0 Z "
     fill="#C5C1BF"
     id="path39"
     transform="translate(129,1243)" />
  <path
     d="M0 0 C-1.37034881 4.11104642 -3.28006477 4.86210619 -7 7 C-10.6484375 8.265625 -10.6484375 8.265625 -14.375 9.25 C-15.62023437 9.58515625 -16.86546875 9.9203125 -18.1484375 10.265625 C-19.08945313 10.50796875 -20.03046875 10.7503125 -21 11 C-21 10.34 -21 9.68 -21 9 C-23.64 9.33 -26.28 9.66 -29 10 C-25.78358806 7.85572537 -23.69516663 7.41753535 -19.9375 6.6875 C-14.43434281 5.49463688 -9.91795611 3.74449688 -5.0234375 0.98828125 C-3 0 -3 0 0 0 Z "
     fill="#D5D3D1"
     id="path40"
     transform="translate(229,1239)" />
  <path
     d="M0 0 C0.33 1.32 0.66 2.64 1 4 C0.175 4.0825 -0.65 4.165 -1.5 4.25 C-4.54711887 4.90295404 -6.38008266 5.6220368 -9.0625 7.0625 C-12.19413175 8.72749423 -14.38532989 9.45183376 -18 9 C-18 8.34 -18 7.68 -18 7 C-18.495 7.33 -18.99 7.66 -19.5 8 C-23.09090894 9.43636358 -26.14456127 9.12851462 -30 9 C-30 8.67 -30 8.34 -30 8 C-28.35064453 7.63648438 -28.35064453 7.63648438 -26.66796875 7.265625 C-18.91296741 5.51984959 -11.41307662 3.67541973 -4.00390625 0.734375 C-2 0 -2 0 0 0 Z "
     fill="#3C3B39"
     id="path41"
     transform="translate(229,1236)" />
  <path
     d="M0 0 C4.83442533 -0.20572023 8.88708999 0.34787446 13.578125 1.48828125 C17.67695362 2.35432407 21.82888897 2.66909766 26 3 C26 3.33 26 3.66 26 4 C21.545 4.495 21.545 4.495 17 5 C17.99 5.66 18.98 6.32 20 7 C13.27052026 6.12224177 6.45080351 5.15026784 0 3 C0 2.01 0 1.02 0 0 Z "
     fill="#B0AFAF"
     id="path42"
     transform="translate(132,258)" />
  <path
     d="M0 0 C14.19 0.99 28.38 1.98 43 3 C43 3.33 43 3.66 43 4 C39.95827281 4.0271045 36.91679003 4.04688964 33.875 4.0625 C33.0190625 4.07087891 32.163125 4.07925781 31.28125 4.08789062 C26.73321589 4.10538306 22.47616836 3.93192358 18 3 C18 3.66 18 4.32 18 5 C11.50149789 4.48446121 5.33773468 3.53332291 -1 2 C-0.67 1.34 -0.34 0.68 0 0 Z "
     fill="#5B5A59"
     id="path43"
     transform="translate(133,256)" />
  <path
     d="M0 0 C0.33 0 0.66 0 1 0 C1.0809723 2.43816585 1.14046972 4.87364384 1.1875 7.3125 C1.22520508 8.34793945 1.22520508 8.34793945 1.26367188 9.40429688 C1.33768077 14.51091074 1.33768077 14.51091074 -0.32421875 16.91796875 C-2 18 -2 18 -5 19 C-6.35069977 14.94790069 -4.98839952 12.23313056 -3.625 8.375 C-3.39039063 7.68148437 -3.15578125 6.98796875 -2.9140625 6.2734375 C-1.15438988 1.15438988 -1.15438988 1.15438988 0 0 Z "
     fill="#DBDBDC"
     id="path44"
     transform="translate(171,59)" />
  <path
     d="M0 0 C1.61013585 0.73709784 3.21292391 1.49025857 4.8125 2.25 C5.70582031 2.66765625 6.59914062 3.0853125 7.51953125 3.515625 C10.1777044 5.10634279 11.49714011 6.30191261 13 9 C13.19859596 11.89306011 12.61464975 14.11587425 12 17 C11.34 17.33 10.68 17.66 10 18 C10.03480469 17.30132812 10.06960937 16.60265625 10.10546875 15.8828125 C10.13253906 14.97273437 10.15960938 14.06265625 10.1875 13.125 C10.22230469 12.22007812 10.25710937 11.31515625 10.29296875 10.3828125 C10.14794922 9.20332031 10.14794922 9.20332031 10 8 C9.01 7.34 8.02 6.68 7 6 C7 6.66 7 7.32 7 8 C7.66 8.33 8.32 8.66 9 9 C8.34 9 7.68 9 7 9 C7 10.98 7 12.96 7 15 C6.67 15 6.34 15 6 15 C5.938125 13.39125 5.938125 13.39125 5.875 11.75 C5.35391691 7.76438296 5.35391691 7.76438296 1.9375 5.5625 C0.968125 5.046875 -0.00125 4.53125 -1 4 C-0.67 2.68 -0.34 1.36 0 0 Z "
     fill="#292928"
     id="path45"
     transform="translate(215,233)" />
  <path
     d="M0 0 C0.99 0 1.98 0 3 0 C3 8.91 3 17.82 3 27 C2.34 27 1.68 27 1 27 C-0.06996173 17.98175113 -0.10234659 9.06335876 0 0 Z "
     fill="#D6D7D6"
     id="path46"
     transform="translate(129,783)" />
  <path
     d="M0 0 C3.5786304 1.65167557 6.74820188 3.78286492 10 6 C9.67 7.98 9.34 9.96 9 12 C6.75 11.875 6.75 11.875 4 11 C1.48394867 8.00793896 0.09148031 6.05202351 -0.25 2.125 C-0.1675 1.42375 -0.085 0.7225 0 0 Z "
     fill="#E8E7E7"
     id="path47"
     transform="translate(113,524)" />
  <path
     d="M0 0 C0.66 0.33 1.32 0.66 2 1 C4.54615009 1.23172827 7.07396225 1.41894529 9.625 1.5625 C10.33140625 1.60568359 11.0378125 1.64886719 11.765625 1.69335938 C13.51018537 1.79944751 15.25506697 1.90022889 17 2 C17 2.33 17 2.66 17 3 C23.93 3.33 30.86 3.66 38 4 C38 4.33 38 4.66 38 5 C33.96561564 5.05026066 29.93135797 5.0861162 25.89672852 5.10986328 C24.5304852 5.11978563 23.16426231 5.13332786 21.7980957 5.15087891 C12.65653373 5.26519046 3.98841031 4.70157293 -5 3 C-5 2.67 -5 2.34 -5 2 C-3.35 2 -1.7 2 0 2 C0 1.34 0 0.68 0 0 Z "
     fill="#B0B0AF"
     id="path48"
     transform="translate(153,1242)" />
  <path
     d="M0 0 C0 0.99 0 1.98 0 3 C-17.61048422 7.44896443 -17.61048422 7.44896443 -24 4 C-23.05640625 3.81824219 -23.05640625 3.81824219 -22.09375 3.6328125 C-17.94322003 2.82020874 -13.83272449 1.98271595 -9.75 0.875 C-6.32993426 0.07698466 -3.49011626 -0.17450581 0 0 Z "
     fill="#D5D4D1"
     id="path49"
     transform="translate(214,258)" />
  <path
     d="M0 0 C0.33 0 0.66 0 1 0 C1.6485549 3.35364627 2.2933479 6.70800551 2.9375 10.0625 C3.11990234 11.00544922 3.30230469 11.94839844 3.49023438 12.91992188 C4.45149032 17.93593016 5.33279224 22.93624423 6 28 C4.68 26.68 3.36 25.36 2 24 C2 26.97 2 29.94 2 33 C1.67 33 1.34 33 1 33 C0.34 28.71 -0.32 24.42 -1 20 C-0.34 20 0.32 20 1 20 C1.10668024 15.25321896 1.10668024 15.25321896 0.5 10.5625 C-0.1943033 7.0041956 -0.06141393 3.62342215 0 0 Z "
     fill="#4D4C4D"
     id="path50"
     transform="translate(143,169)" />
  <path
     d="M0 0 C0.33 0 0.66 0 1 0 C1.00257813 0.80824219 1.00515625 1.61648438 1.0078125 2.44921875 C1.02529052 8.52886332 1.02529052 8.52886332 3.40234375 13.91015625 C5.20050442 15.42592669 5.20050442 15.42592669 8 17 C7.01 17.33 6.02 17.66 5 18 C5 18.99 5 19.98 5 21 C1.62496331 19.8141763 -0.64722731 18.72426311 -3 16 C-2.67 15.01 -2.34 14.02 -2 13 C-1.34 13 -0.68 13 0 13 C0 8.71 0 4.42 0 0 Z "
     fill="#D3D2D4"
     id="path51"
     transform="translate(135,1275)" />
  <path
     d="M0 0 C0.99 0.495 0.99 0.495 2 1 C1.979375 2.2375 1.95875 3.475 1.9375 4.75 C1.92708803 7.69658724 2.23285893 10.15061887 3 13 C2.67 13.66 2.34 14.32 2 15 C1.84355828 17.55106029 1.74178611 20.07918663 1.68359375 22.6328125 C1.66281265 23.38464813 1.64203156 24.13648376 1.62062073 24.91110229 C1.55517295 27.31564085 1.49626262 29.72028967 1.4375 32.125 C1.39431023 33.75391771 1.35069579 35.38282422 1.30664062 37.01171875 C1.19949649 41.00769915 1.09821567 45.00379059 1 49 C0.67 49 0.34 49 0 49 C0 32.83 0 16.66 0 0 Z "
     fill="#232324"
     id="path52"
     transform="translate(125,584)" />
  <path
     d="M0 0 C0.33 0 0.66 0 1 0 C0.48834124 5.37241699 -0.28335814 10.46764229 -1.5234375 15.71484375 C-2.30269261 19.45143587 -2.6383188 23.20234739 -3 27 C-4.50390625 25.73828125 -4.50390625 25.73828125 -6 24 C-5.89214206 17.42066582 -4.74735257 4.74735257 0 0 Z "
     fill="#252525"
     id="path53"
     transform="translate(205,176)" />
  <path
     d="M0 0 C4.8333472 -0.08333357 9.23692563 0.04738513 14 1 C14 1.33 14 1.66 14 2 C5.48845762 4.25029451 -2.89286166 4.23506025 -11.625 4.125 C-13.02473314 4.11494398 -14.42447331 4.10582279 -15.82421875 4.09765625 C-19.21632925 4.07426238 -22.6080706 4.04148173 -26 4 C-26 3.67 -26 3.34 -26 3 C-17.42 3 -8.84 3 0 3 C0 2.01 0 1.02 0 0 Z "
     fill="#393938"
     id="path54"
     transform="translate(181,1240)" />
  <path
     d="M0 0 C2.01541048 1.6543619 2.9189844 2.53329702 3.37231445 5.14477539 C3.3693335 5.95422607 3.36635254 6.76367676 3.36328125 7.59765625 C3.36263672 8.48130859 3.36199219 9.36496094 3.36132812 10.27539062 C3.34521484 11.19513672 3.32910156 12.11488281 3.3125 13.0625 C3.31572266 13.98611328 3.31894531 14.90972656 3.32226562 15.86132812 C3.26705173 22.73294827 3.26705173 22.73294827 1 25 C1.02320313 24.02417969 1.04640625 23.04835937 1.0703125 22.04296875 C1.08835938 20.77066406 1.10640625 19.49835938 1.125 18.1875 C1.14820313 16.92292969 1.17140625 15.65835938 1.1953125 14.35546875 C1.27581918 10.8661976 1.27581918 10.8661976 -1 8 C-1.1875 4.375 -1.1875 4.375 -1 1 C-0.67 0.67 -0.34 0.34 0 0 Z "
     fill="#E8E8E7"
     id="path55"
     transform="translate(143,205)" />
  <path
     d="M0 0 C3.10474234 0.30694459 6.20866586 0.621514 9.3125 0.9375 C10.63411133 1.06801758 10.63411133 1.06801758 11.98242188 1.20117188 C12.82998047 1.28818359 13.67753906 1.37519531 14.55078125 1.46484375 C15.33106689 1.543396 16.11135254 1.62194824 16.9152832 1.70288086 C19 2 19 2 22 3 C22 3.66 22 4.32 22 5 C14.06714481 5.36801906 7.4654395 4.77476512 0 2 C0 1.34 0 0.68 0 0 Z "
     fill="#FBFAF8"
     id="path56"
     transform="translate(143,1249)" />
  <path
     d="M0 0 C1.2065625 0.0309375 1.2065625 0.0309375 2.4375 0.0625 C2.4375 0.7225 2.4375 1.3825 2.4375 2.0625 C0.7875 2.0625 -0.8625 2.0625 -2.5625 2.0625 C-2.5625 2.7225 -2.5625 3.3825 -2.5625 4.0625 C-6.15712331 6.32248595 -9.12845675 6.27118087 -13.3125 6.1875 C-14.48296875 6.16945313 -15.6534375 6.15140625 -16.859375 6.1328125 C-18.19742188 6.09800781 -18.19742188 6.09800781 -19.5625 6.0625 C-18.5725 5.7325 -17.5825 5.4025 -16.5625 5.0625 C-16.5625 4.4025 -16.5625 3.7425 -16.5625 3.0625 C-15.17224609 2.86333984 -15.17224609 2.86333984 -13.75390625 2.66015625 C-12.55636719 2.48355469 -11.35882813 2.30695313 -10.125 2.125 C-8.93003906 1.95097656 -7.73507813 1.77695313 -6.50390625 1.59765625 C-3.44015996 1.04024159 -3.00568822 0.07330947 0 0 Z "
     fill="#F2F1EF"
     id="path57"
     transform="translate(211.5625,1237.9375)" />
  <path
     d="M0 0 C0 0.66 0 1.32 0 2 C-6.3618858 4.76081837 -12.09232563 5.63176001 -19 6 C-19.33 5.34 -19.66 4.68 -20 4 C-17.36 3.67 -14.72 3.34 -12 3 C-12 2.34 -12 1.68 -12 1 C-7.915021 0.45533613 -4.1274515 0 0 0 Z "
     fill="#F7F6F3"
     id="path58"
     transform="translate(208,1248)" />
  <path
     d="M0 0 C0.33 0.66 0.66 1.32 1 2 C-0.03428394 4.47753975 -1.12139187 6.84935266 -2.3125 9.25 C-4.52937215 13.77259688 -6.52118401 18.16569799 -8 23 C-8.99 22.67 -9.98 22.34 -11 22 C-9.57566631 17.35667216 -7.68905519 13.07315501 -5.5 8.75 C-5.19191406 8.12609375 -4.88382813 7.5021875 -4.56640625 6.859375 C-3.24157159 4.22107766 -2.10147397 2.10147397 0 0 Z "
     fill="#535453"
     id="path59"
     transform="translate(147,123)" />
  <path
     d="M0 0 C1.299375 0.144375 2.59875 0.28875 3.9375 0.4375 C11.60669248 1.21216591 19.3049214 1.58043075 27 2 C23.27506286 4.42264549 19.59985186 4.26500684 15.3125 4.1875 C14.62349609 4.18685547 13.93449219 4.18621094 13.22460938 4.18554688 C8.14055525 4.14055525 8.14055525 4.14055525 7 3 C4.67182036 2.63239269 2.3381615 2.29758419 0 2 C0 1.34 0 0.68 0 0 Z "
     fill="#0E0D0C"
     id="path60"
     transform="translate(151,259)" />
  <path
     d="M0 0 C3.60571107 0.59283087 5.54429438 2.02741777 8.25 4.4375 C8.95640625 5.05496094 9.6628125 5.67242188 10.390625 6.30859375 C12 8 12 8 12 10 C7.29302418 9.57209311 3.224768 7.44780671 0 4 C0 2.68 0 1.36 0 0 Z "
     fill="#DAD7D7"
     id="path61"
     transform="translate(115,1228)" />
  <path
     d="M0 0 C0.66666667 1.33333333 1.33333333 2.66666667 2 4 C2.8353125 5.485 2.8353125 5.485 3.6875 7 C5 10 5 10 4.8125 12.125 C3.94651585 14.12342496 2.9803017 16.05553326 2 18 C1.27168645 15.94447045 0.56805302 13.88018467 -0.125 11.8125 C-0.51945313 10.66394531 -0.91390625 9.51539063 -1.3203125 8.33203125 C-2.06482258 4.68222036 -1.7372036 3.22536752 0 0 Z "
     fill="#282728"
     id="path62"
     transform="translate(178,52)" />
  <path
     d="M0 0 C-1.66751148 3.94139078 -4.22710649 6.7892812 -7 10 C-7.66 9.67 -8.32 9.34 -9 9 C-9 8.34 -9 7.68 -9 7 C-10.32 6.67 -11.64 6.34 -13 6 C-12.278125 5.7525 -11.55625 5.505 -10.8125 5.25 C-7.88432515 4.09414485 -7.88432515 4.09414485 -5.375 1.875 C-3 0 -3 0 0 0 Z "
     fill="#CCCCCE"
     id="path63"
     transform="translate(210,1301)" />
  <path
     d="M0 0 C1.65 0 3.3 0 5 0 C3.68 0.33 2.36 0.66 1 1 C1 3.31 1 5.62 1 8 C-5.17222879 6.75971762 -11.06682122 5.10396411 -17 3 C-16.01 2.34 -15.02 1.68 -14 1 C-11.47712233 1.67550857 -9.22333218 2.41743777 -6.8125 3.375 C-6.15830078 3.6225 -5.50410156 3.87 -4.83007812 4.125 C-3.21539645 4.73787188 -1.6070442 5.3673723 0 6 C0 4.02 0 2.04 0 0 Z "
     fill="#6C6A6A"
     id="path64"
     transform="translate(137,534)" />
  <path
     d="M0 0 C4.21878192 -0.19622241 7.17010894 0.19769832 11 2 C11 2.99 11 3.98 11 5 C8.03 5 5.06 5 2 5 C1.34 3.35 0.68 1.7 0 0 Z "
     fill="#F5F3F2"
     id="path65"
     transform="translate(135,1257)" />
  <path
     d="M0 0 C4.62 0.66 9.24 1.32 14 2 C14 2.33 14 2.66 14 3 C12.35 3 10.7 3 9 3 C9.33 4.32 9.66 5.64 10 7 C8.68 6.34 7.36 5.68 6 5 C5.67 6.32 5.34 7.64 5 9 C5 7.68 5 6.36 5 5 C4.34 4.67 3.68 4.34 3 4 C2.67 3.67 2.34 3.34 2 3 C1.34 3.99 0.68 4.98 0 6 C0 4.02 0 2.04 0 0 Z "
     fill="#BDBBB9"
     id="path66"
     transform="translate(126,1254)" />
  <path
     d="M0 0 C0.66 1.32 1.32 2.64 2 4 C3.78950406 5.46768595 3.78950406 5.46768595 5.875 6.625 C6.55304688 7.02976562 7.23109375 7.43453125 7.9296875 7.8515625 C9.92772008 8.9599051 11.94745675 9.99673895 14 11 C11.44855176 11.93045933 10.25993522 12.08564091 7.640625 11.22265625 C6.85171875 10.83980469 6.0628125 10.45695312 5.25 10.0625 C4.45078125 9.68222656 3.6515625 9.30195312 2.828125 8.91015625 C2.22484375 8.60980469 1.6215625 8.30945312 1 8 C1.33 9.65 1.66 11.3 2 13 C1.34 12.67 0.68 12.34 0 12 C0 8.04 0 4.08 0 0 Z "
     fill="#222321"
     id="path67"
     transform="translate(114,1228)" />
  <path
     d="M0 0 C4.41889613 1.35021826 6.34345343 3.26115668 9 7 C8.34 7 7.68 7 7 7 C7 7.66 7 8.32 7 9 C4.13998967 7.71792641 1.92960588 6.50848764 0 4 C0 2.68 0 1.36 0 0 Z "
     fill="#D1D0D0"
     id="path68"
     transform="translate(139,1304)" />
  <path
     d="M0 0 C0.66 0.66 1.32 1.32 2 2 C1.75 3.8125 1.75 3.8125 1 6 C0.7525 6.78375 0.505 7.5675 0.25 8.375 C-1.37263199 11.78252718 -3.50249028 14.17387058 -6 17 C-6.66 16.67 -7.32 16.34 -8 16 C-7.67386719 15.43152344 -7.34773437 14.86304688 -7.01171875 14.27734375 C-4.36824701 9.60643056 -2.0115125 4.97584671 0 0 Z "
     fill="#D0D0D0"
     id="path69"
     transform="translate(224,1297)" />
  <path
     d="M0 0 C0.33 0 0.66 0 1 0 C1.33 4.95 1.66 9.9 2 15 C2.66 14.34 3.32 13.68 4 13 C4 15.64 4 18.28 4 21 C2.68 21 1.36 21 0 21 C0 14.07 0 7.14 0 0 Z "
     fill="#3E3C3B"
     id="path70"
     transform="translate(196,208)" />
  <path
     d="M0 0 C0.99 0 1.98 0 3 0 C3.02721176 1.89575251 3.04649136 3.79161979 3.0625 5.6875 C3.07410156 6.74324219 3.08570313 7.79898438 3.09765625 8.88671875 C3.00865425 11.72410262 2.64939838 14.2438919 2 17 C1.67 17 1.34 17 1 17 C0.09586327 13.16275828 -0.10576898 9.62497726 -0.0625 5.6875 C-0.05347656 4.61886719 -0.04445312 3.55023437 -0.03515625 2.44921875 C-0.02355469 1.64097656 -0.01195312 0.83273437 0 0 Z "
     fill="#2D2D2D"
     id="path71"
     transform="translate(129,771)" />
  <path
     d="M0 0 C0.33 0 0.66 0 1 0 C1.12579057 5.53478505 1.12579057 5.53478505 0.48852539 7.89160156 C-0.08358798 10.36075253 -0.01770796 12.45509933 0.12109375 14.984375 C0.16943359 15.91894531 0.21777344 16.85351562 0.26757812 17.81640625 C0.32365234 18.78449219 0.37972656 19.75257813 0.4375 20.75 C0.48970703 21.73355469 0.54191406 22.71710938 0.59570312 23.73046875 C0.72511437 26.15398849 0.86006905 28.57706864 1 31 C0.67 31 0.34 31 0 31 C-0.33794471 27.97961911 -0.67048433 24.95880244 -1 21.9375 C-1.09539062 21.08994141 -1.19078125 20.24238281 -1.2890625 19.36914062 C-2.76622928 5.70534789 -2.76622928 5.70534789 0 0 Z "
     fill="#40403F"
     id="path72"
     transform="translate(220,257)" />
  <path
     d="M0 0 C2.84719056 2.84719056 3.68272732 6.07286926 4 10 C3.31232406 12.63691566 2.31225025 14.57738415 1 17 C0.67 17 0.34 17 0 17 C0 11.39 0 5.78 0 0 Z "
     fill="#E2E3E3"
     id="path73"
     transform="translate(175,55)" />
  <path
     d="M0 0 C8.58 0.66 17.16 1.32 26 2 C26 2.33 26 2.66 26 3 C22.97959421 3.25044324 19.96066888 3.4758559 16.9375 3.6875 C15.66616211 3.79674805 15.66616211 3.79674805 14.36914062 3.90820312 C8.67409285 4.28200935 5.06105409 3.67130263 0 1 C0 0.67 0 0.34 0 0 Z "
     fill="#333333"
     id="path74"
     transform="translate(150,237)" />
  <path
     d="M0 0 C2.09715785 3.14573677 2.52004559 5.01456251 3.125 8.6875 C3.29257813 9.68136719 3.46015625 10.67523438 3.6328125 11.69921875 C3.75398437 12.45847656 3.87515625 13.21773437 4 14 C3.34 14 2.68 14 2 14 C1.67 16.31 1.34 18.62 1 21 C0.67 21 0.34 21 0 21 C-0.33 18.36 -0.66 15.72 -1 13 C-0.34 13 0.32 13 1 13 C1.33 11.02 1.66 9.04 2 7 C1.01 6.67 0.02 6.34 -1 6 C-0.67 4.02 -0.34 2.04 0 0 Z "
     fill="#C8C8CA"
     id="path75"
     transform="translate(138,176)" />
  <path
     d="M0 0 C1.58409994 0.11487748 3.16728963 0.24234508 4.75 0.375 C6.07257813 0.47941406 6.07257813 0.47941406 7.421875 0.5859375 C10 1 10 1 14 3 C11.03 2.67 8.06 2.34 5 2 C5 2.66 5 3.32 5 4 C7.64 4.33 10.28 4.66 13 5 C13 5.33 13 5.66 13 6 C3.58997722 5.03644647 3.58997722 5.03644647 -1 4 C0.32 3.67 1.64 3.34 3 3 C3 2.34 3 1.68 3 1 C2.01 0.67 1.02 0.34 0 0 Z "
     fill="#C5C1BF"
     id="path76"
     transform="translate(138,1247)" />
  <path
     d="M0 0 C0.33 0 0.66 0 1 0 C1.22786458 2.01822917 1.45572917 4.03645833 1.68359375 6.0546875 C1.91292961 8.07404316 1.91292961 8.07404316 3 10 C1.35 10.66 -0.3 11.32 -2 12 C-3.25 9.9375 -3.25 9.9375 -4 7 C-2.95421827 4.39093631 -1.57355686 2.36033529 0 0 Z "
     fill="#282827"
     id="path77"
     transform="translate(124,243)" />
  <path
     d="M0 0 C0.845625 0.144375 1.69125 0.28875 2.5625 0.4375 C6.03593149 1.0058797 9.51445662 1.51202393 13 2 C13 2.33 13 2.66 13 3 C11.35 3 9.7 3 8 3 C8.33 4.32 8.66 5.64 9 7 C4.545 6.01 4.545 6.01 0 5 C0.99 4.67 1.98 4.34 3 4 C3 3.01 3 2.02 3 1 C2.01 0.67 1.02 0.34 0 0 Z "
     fill="#CDCBCA"
     id="path78"
     transform="translate(143,1258)" />
  <path
     d="M0 0 C0.33 0 0.66 0 1 0 C1 3.3 1 6.6 1 10 C-9.17857143 9.33035714 -9.17857143 9.33035714 -13 6 C-9.44757118 4.81585706 -8.30169438 5.30464468 -4.8125 6.4375 C-3.91144531 6.72496094 -3.01039063 7.01242188 -2.08203125 7.30859375 C-1.39496094 7.53675781 -0.70789063 7.76492187 0 8 C0 5.36 0 2.72 0 0 Z "
     fill="#B5B4B5"
     id="path79"
     transform="translate(141,247)" />
  <path
     d="M0 0 C0.33 0 0.66 0 1 0 C1 5.28 1 10.56 1 16 C0.01 15.67 -0.98 15.34 -2 15 C-2.21755666 9.5610835 -2.10428384 5.12919186 0 0 Z "
     fill="#F2F3F2"
     id="path80"
     transform="translate(203,205)" />
  <path
     d="M0 0 C0.66 0 1.32 0 2 0 C2 1.98 2 3.96 2 6 C2.66 6.33 3.32 6.66 4 7 C3.67 8.98 3.34 10.96 3 13 C2.34 13 1.68 13 1 13 C-0.2834998 8.9088444 -1.38021934 5.3091525 -1 1 C-0.67 0.67 -0.34 0.34 0 0 Z "
     fill="#E9EBEB"
     id="path81"
     transform="translate(136,176)" />
  <path
     d="M0 0 C1.32 0 2.64 0 4 0 C4.33 0.66 4.66 1.32 5 2 C7.01669827 3.13350534 7.01669827 3.13350534 9 4 C8.01 4.33 7.02 4.66 6 5 C6.66 6.32 7.32 7.64 8 9 C6.02 8.34 4.04 7.68 2 7 C2.04125 6.21625 2.0825 5.4325 2.125 4.625 C2.28728734 1.83883881 2.28728734 1.83883881 0 0 Z "
     fill="#333231"
     id="path82"
     transform="translate(120,528)" />
  <path
     d="M0 0 C1.55078125 0.98828125 1.55078125 0.98828125 3 3 C2.89140867 5.84978871 2.64357584 8.39495008 2.1875 11.1875 C2.07857422 11.93708984 1.96964844 12.68667969 1.85742188 13.45898438 C1.58651277 15.30823349 1.29519943 17.15447261 1 19 C0.67 19 0.34 19 0 19 C-0.1938211 16.02111874 -0.38035102 13.04209754 -0.5625 10.0625 C-0.61857422 9.21236328 -0.67464844 8.36222656 -0.73242188 7.48632812 C-0.80493164 6.27299805 -0.80493164 6.27299805 -0.87890625 5.03515625 C-0.9260376 4.2862915 -0.97316895 3.53742676 -1.02172852 2.76586914 C-1 1 -1 1 0 0 Z "
     fill="#DFDEDE"
     id="path83"
     transform="translate(128,1256)" />
  <path
     d="M0 0 C0.33 0 0.66 0 1 0 C1.16834933 1.77067416 1.33461909 3.54154612 1.5 5.3125 C1.5928125 6.29863281 1.685625 7.28476562 1.78125 8.30078125 C2 11 2 11 2 14 C1.67 14 1.34 14 1 14 C0.67 17.63 0.34 21.26 0 25 C-0.33 25 -0.66 25 -1 25 C-1.18451025 8.29157175 -1.18451025 8.29157175 0 0 Z "
     fill="#BFBFBF"
     id="path84"
     transform="translate(128,411)" />
  <path
     d="M0 0 C0.99 0.33 1.98 0.66 3 1 C3.33 3.64 3.66 6.28 4 9 C2.02 9.99 2.02 9.99 0 11 C0 7.37 0 3.74 0 0 Z "
     fill="#0F0E0E"
     id="path85"
     transform="translate(145,193)" />
  <path
     d="M0 0 C0 0.99 0 1.98 0 3 C-2.81534937 5.65894107 -5.12793601 7.42636089 -9 8 C-8.75390625 6.140625 -8.75390625 6.140625 -8 4 C-6.15234375 2.734375 -6.15234375 2.734375 -3.9375 1.75 C-2.83728516 1.24726562 -2.83728516 1.24726562 -1.71484375 0.734375 C-1.14894531 0.49203125 -0.58304688 0.2496875 0 0 Z "
     fill="#E0DFDF"
     id="path86"
     transform="translate(231,530)" />
  <path
     d="M0 0 C6.625 -0.25 6.625 -0.25 10 2 C10 2.66 10 3.32 10 4 C3.375 4.125 3.375 4.125 0 3 C0 2.01 0 1.02 0 0 Z "
     fill="#DEDDDC"
     id="path87"
     transform="translate(132,258)" />
  <path
     d="M0 0 C-1.98 0.99 -1.98 0.99 -4 2 C-4 2.66 -4 3.32 -4 4 C-3.34 4 -2.68 4 -2 4 C-2 6.97 -2 9.94 -2 13 C-2.33 13 -2.66 13 -3 13 C-3 10.69 -3 8.38 -3 6 C-3.99 6.33 -4.98 6.66 -6 7 C-6 5.35 -6 3.7 -6 2 C-6.66 1.67 -7.32 1.34 -8 1 C-2.25 -1.125 -2.25 -1.125 0 0 Z "
     fill="#41403F"
     id="path88"
     transform="translate(224,1246)" />
  <path
     d="M0 0 C2.375 -0.125 2.375 -0.125 5 0 C7 2 7 2 7 5 C5.02 5 3.04 5 1 5 C0.67 3.35 0.34 1.7 0 0 Z "
     fill="#EBEBEB"
     id="path89"
     transform="translate(140,1293)" />
  <path
     d="M0 0 C0.33 0 0.66 0 1 0 C1.33 5.28 1.66 10.56 2 16 C0.68 16.33 -0.64 16.66 -2 17 C-2 15.68 -2 14.36 -2 13 C-1.34 13 -0.68 13 0 13 C0 8.71 0 4.42 0 0 Z "
     fill="#C2C1C1"
     id="path90"
     transform="translate(135,1275)" />
  <path
     d="M0 0 C8.03571429 -0.40178571 8.03571429 -0.40178571 12 3 C10.20991533 3.22151549 8.41781838 3.42682213 6.625 3.625 C5.62726563 3.74101563 4.62953125 3.85703125 3.6015625 3.9765625 C2.74304688 3.98429687 1.88453125 3.99203125 1 4 C0.34 3.34 -0.32 2.68 -1 2 C-0.67 1.34 -0.34 0.68 0 0 Z "
     fill="#DEDDDB"
     id="path91"
     transform="translate(187,1242)" />
  <path
     d="M0 0 C0.99 1.32 1.98 2.64 3 4 C-0.44615385 8.8 -0.44615385 8.8 -3.25 9.8125 C-3.8275 9.874375 -4.405 9.93625 -5 10 C-3.66511872 6.40608886 -2.03977277 3.24509304 0 0 Z "
     fill="#CACACA"
     id="path92"
     transform="translate(145,119)" />
  <path
     d="M0 0 C0.66 0.99 1.32 1.98 2 3 C1.42578125 5.4453125 1.42578125 5.4453125 0.3125 8.125 C-0.21923828 9.45917969 -0.21923828 9.45917969 -0.76171875 10.8203125 C-2 13 -2 13 -5 14 C-3.45730076 9.27934033 -1.92205381 4.58335908 0 0 Z "
     fill="#C3C3C4"
     id="path93"
     transform="translate(161,85)" />
  <path
     d="M0 0 C4.75 1.875 4.75 1.875 7 3 C7 3.99 7 4.98 7 6 C7.66 6 8.32 6 9 6 C9 6.66 9 7.32 9 8 C6.03 7.505 6.03 7.505 3 7 C3 6.01 3 5.02 3 4 C2.01 3.34 1.02 2.68 0 2 C0 1.34 0 0.68 0 0 Z "
     fill="#F0ECE9"
     id="path94"
     transform="translate(122,1239)" />
  <path
     d="M0 0 C0.33 1.32 0.66 2.64 1 4 C0.071875 4.144375 -0.85625 4.28875 -1.8125 4.4375 C-5.00725111 4.92100111 -5.00725111 4.92100111 -8 6 C-10.6875 5.5625 -10.6875 5.5625 -13 5 C-10.54278328 3.36185552 -8.65432189 2.38047801 -5.9375 1.375 C-5.24527344 1.11460938 -4.55304688 0.85421875 -3.83984375 0.5859375 C-2 0 -2 0 0 0 Z "
     fill="#42403F"
     id="path95"
     transform="translate(229,1236)" />
  <path
     d="M0 0 C0.99 0 1.98 0 3 0 C2.67 0.99 2.34 1.98 2 3 C1.85596652 4.33363703 1.75409577 5.67218046 1.68359375 7.01171875 C1.64169922 7.76904297 1.59980469 8.52636719 1.55664062 9.30664062 C1.51732422 10.09232422 1.47800781 10.87800781 1.4375 11.6875 C1.39431641 12.48478516 1.35113281 13.28207031 1.30664062 14.10351562 C1.20072632 16.06881447 1.09987449 18.03438496 1 20 C0.67 20 0.34 20 0 20 C-0.06058594 18.95199219 -0.12117187 17.90398437 -0.18359375 16.82421875 C-0.26801738 15.44529952 -0.35266447 14.06639395 -0.4375 12.6875 C-0.47681641 11.99720703 -0.51613281 11.30691406 -0.55664062 10.59570312 C-0.74927415 7.52838465 -1.02322717 4.93031848 -2 2 C-1.34 2 -0.68 2 0 2 C0 1.34 0 0.68 0 0 Z "
     fill="#1E1D1D"
     id="path96"
     transform="translate(173,53)" />
  <path
     d="M0 0 C4.8333472 -0.08333357 9.23692563 0.04738513 14 1 C14 1.33 14 1.66 14 2 C9.38 2.33 4.76 2.66 0 3 C0 2.01 0 1.02 0 0 Z "
     fill="#282626"
     id="path97"
     transform="translate(181,1240)" />
  <path
     d="M0 0 C0.66 0.33 1.32 0.66 2 1 C2 4.3 2 7.6 2 11 C-1 8 -1 8 -1.25 4.375 C-1 1 -1 1 0 0 Z "
     fill="#F6F6F6"
     id="path98"
     transform="translate(143,205)" />
  <path
     d="M0 0 C0.33 0 0.66 0 1 0 C1.33 2.97 1.66 5.94 2 9 C0.35 9 -1.3 9 -3 9 C-2.30058404 5.85262818 -1.23921302 2.97411124 0 0 Z "
     fill="#1B1A1A"
     id="path99"
     transform="translate(231,1218)" />
  <path
     d="M0 0 C2.64 0.33 5.28 0.66 8 1 C8 1.66 8 2.32 8 3 C4.04 3 0.08 3 -4 3 C-2.68 2.67 -1.36 2.34 0 2 C0 1.34 0 0.68 0 0 Z "
     fill="#F0EEEC"
     id="path100"
     transform="translate(157,1251)" />
  <path
     d="M0 0 C0 0.66 0 1.32 0 2 C-2.90600261 3.25664978 -4.79604584 4 -8 4 C-8 3.34 -8 2.68 -8 2 C-9.32 1.67 -10.64 1.34 -12 1 C-7.915021 0.45533613 -4.1274515 0 0 0 Z "
     fill="#EEEDEA"
     id="path101"
     transform="translate(208,1248)" />
  <path
     d="M0 0 C3.3 0 6.6 0 10 0 C10 0.99 10 1.98 10 3 C8.5199159 2.88637738 7.04089926 2.75877092 5.5625 2.625 C4.73878906 2.55539062 3.91507813 2.48578125 3.06640625 2.4140625 C2.38449219 2.27742188 1.70257813 2.14078125 1 2 C0.67 1.34 0.34 0.68 0 0 Z "
     fill="#F5F4F3"
     id="path102"
     transform="translate(148,262)" />
  <path
     d="M0 0 C-1 3 -1 3 -2.9375 4.1875 C-5.96952986 5.381936 -7.92846335 4.81907644 -11 4 C-9.73308493 3.32591692 -8.46129251 2.66099503 -7.1875 2 C-6.47980469 1.62875 -5.77210938 1.2575 -5.04296875 0.875 C-3 0 -3 0 0 0 Z "
     fill="#C3C0BE"
     id="path103"
     transform="translate(229,1239)" />
  <path
     d="M0 0 C0.99 0 1.98 0 3 0 C3.07654536 4.51617599 3.10228696 8.59085217 2 13 C1.67 13 1.34 13 1 13 C-0.10228696 8.59085217 -0.07654536 4.51617599 0 0 Z "
     fill="#868786"
     id="path104"
     transform="translate(129,783)" />
  <path
     d="M0 0 C-1.74468372 0.70088156 -3.49601161 1.38524009 -5.25 2.0625 C-6.22453125 2.44535156 -7.1990625 2.82820312 -8.203125 3.22265625 C-11.04007395 4.01113787 -12.29409552 4.02437812 -15 3 C-14.01 3 -13.02 3 -12 3 C-12 2.34 -12 1.68 -12 1 C-10.56496445 0.63597631 -9.12683494 0.28413409 -7.6875 -0.0625 C-6.88699219 -0.25972656 -6.08648437 -0.45695313 -5.26171875 -0.66015625 C-3 -1 -3 -1 0 0 Z "
     fill="#313030"
     id="path105"
     transform="translate(226,528)" />
  <path
     d="M0 0 C0.33 0.66 0.66 1.32 1 2 C-1.31 2.66 -3.62 3.32 -6 4 C-6 3.34 -6 2.68 -6 2 C-8.97 2 -11.94 2 -15 2 C-15 1.67 -15 1.34 -15 1 C-10.05 0.67 -5.1 0.34 0 0 Z "
     fill="#2F2E2E"
     id="path106"
     transform="translate(212,255)" />
  <path
     d="M0 0 C2.64 0 5.28 0 8 0 C6.02 0.99 6.02 0.99 4 2 C4 2.66 4 3.32 4 4 C1.69 4 -0.62 4 -3 4 C-3 3.34 -3 2.68 -3 2 C-2.01 2 -1.02 2 0 2 C0 1.34 0 0.68 0 0 Z "
     fill="#D1D1CF"
     id="path107"
     transform="translate(153,246)" />
  <path
     d="M0 0 C-0.33 0.99 -0.66 1.98 -1 3 C-3.0625 3.6875 -3.0625 3.6875 -5 4 C-5 3.34 -5 2.68 -5 2 C-7.64 2.33 -10.28 2.66 -13 3 C-8.72816203 0.15210802 -5.07638947 0 0 0 Z "
     fill="#C0BDBA"
     id="path108"
     transform="translate(213,1246)" />
  <path
     d="M0 0 C0 0.99 0 1.98 0 3 C-3.63 3 -7.26 3 -11 3 C-11 2.67 -11 2.34 -11 2 C-7.17679443 0.57741188 -4.08718695 -0.24042276 0 0 Z "
     fill="#E4E2E1"
     id="path109"
     transform="translate(153,1241)" />
  <path
     d="M0 0 C0.33 0.66 0.66 1.32 1 2 C0.71125 2.556875 0.4225 3.11375 0.125 3.6875 C-1.35485704 6.72942835 -1.61470012 9.66073437 -2 13 C-2.33 13 -2.66 13 -3 13 C-3 11.02 -3 9.04 -3 7 C-3.66 7 -4.32 7 -5 7 C-5 5 -5 5 -2.5 2.375 C-1.675 1.59125 -0.85 0.8075 0 0 Z "
     fill="#161515"
     id="path110"
     transform="translate(225,1243)" />
  <path
     d="M0 0 C1.38226016 2.76452033 1.09525387 5.0461363 1.0625 8.125 C1.05347656 9.22070312 1.04445312 10.31640625 1.03515625 11.4453125 C1.02355469 12.28835938 1.01195312 13.13140625 1 14 C0.01 14 -0.98 14 -2 14 C-1.85970581 11.8537974 -1.71261836 9.70803782 -1.5625 7.5625 C-1.48128906 6.36753906 -1.40007812 5.17257812 -1.31640625 3.94140625 C-1 1 -1 1 0 0 Z "
     fill="#D1D0D0"
     id="path111"
     transform="translate(238,1233)" />
  <path
     d="M0 0 C2.1875 0.3125 2.1875 0.3125 4 1 C4 2.65 4 4.3 4 6 C3.401875 5.690625 2.80375 5.38125 2.1875 5.0625 C-0.08956772 3.89790296 -0.08956772 3.89790296 -3 3 C-1.75 1.4375 -1.75 1.4375 0 0 Z "
     fill="#B6B5B4"
     id="path112"
     transform="translate(229,524)" />
  <path
     d="M0 0 C3.125 -0.1875 3.125 -0.1875 6 0 C6 0.99 6 1.98 6 3 C3.36 3 0.72 3 -2 3 C-1.34 2.01 -0.68 1.02 0 0 Z "
     fill="#E9E7E6"
     id="path113"
     transform="translate(208,258)" />
  <path
     d="M0 0 C0.66 0.99 1.32 1.98 2 3 C0.35 5.97 -1.3 8.94 -3 12 C-3.66 12 -4.32 12 -5 12 C-3.41037341 7.96479403 -1.71767682 3.98188718 0 0 Z "
     fill="#CCCCCC"
     id="path114"
     transform="translate(151,107)" />
  <path
     d="M0 0 C2.79297711 0.44099639 5.31340243 1.10446748 8 2 C8 2.66 8 3.32 8 4 C4.85375007 4.26218749 3.38162983 4.24754367 0.6875 2.5 C0.130625 2.005 -0.42625 1.51 -1 1 C-0.67 0.67 -0.34 0.34 0 0 Z "
     fill="#F7F5F3"
     id="path115"
     transform="translate(133,1246)" />
  <path
     d="M0 0 C0.99 0 1.98 0 3 0 C3 2.64 3 5.28 3 8 C2.01 8 1.02 8 0 8 C0 5.36 0 2.72 0 0 Z "
     fill="#C4C4C4"
     id="path116"
     transform="translate(129,791)" />
  <path
     d="M0 0 C0.33 0 0.66 0 1 0 C0.67 2.97 0.34 5.94 0 9 C-0.99 9 -1.98 9 -3 9 C-2.01 6.03 -1.02 3.06 0 0 Z "
     fill="#7F7F80"
     id="path117"
     transform="translate(205,176)" />
  <path
     d="M0 0 C0 0.99 0 1.98 0 3 C-2.31 3.33 -4.62 3.66 -7 4 C-7.33 3.34 -7.66 2.68 -8 2 C-2.25 0 -2.25 0 0 0 Z "
     fill="#0B0B0B"
     id="path118"
     transform="translate(211,1243)" />
  <path
     d="M0 0 C-1.125 1.5 -1.125 1.5 -3 3 C-6.1875 3.1875 -6.1875 3.1875 -9 3 C-6.38997624 -0.48003168 -4.1689578 -0.27793052 0 0 Z "
     fill="#0E0D0C"
     id="path119"
     transform="translate(221,1241)" />
  <path
     d="M0 0 C4.95 1.98 4.95 1.98 10 4 C8.02 4.99 8.02 4.99 6 6 C3.35435928 5.06434658 1.37036624 3.54985485 -1 2 C-0.67 1.34 -0.34 0.68 0 0 Z "
     fill="#444240"
     id="path120"
     transform="translate(118,1234)" />
  <path
     d="M0 0 C1.0326802 2.78823655 1.04509293 3.8677274 0.0625 6.75 C-0.288125 7.4925 -0.63875 8.235 -1 9 C-1.33 9 -1.66 9 -2 9 C-2 6.36 -2 3.72 -2 1 C-1.34 0.67 -0.68 0.34 0 0 Z "
     fill="#F5F5F5"
     id="path121"
     transform="translate(240,1234)" />
  <path
     d="M0 0 C5.445 1.485 5.445 1.485 11 3 C9.68 3.33 8.36 3.66 7 4 C6.67 4.66 6.34 5.32 6 6 C3.96166576 4.7260411 1.96147874 3.38938077 0 2 C0 1.34 0 0.68 0 0 Z "
     fill="#BAB8B9"
     id="path122"
     transform="translate(134,241)" />
  <path
     d="M0 0 C0.33 0 0.66 0 1 0 C1 2.64 1 5.28 1 8 C0.01 8 -0.98 8 -2 8 C-2.125 5.125 -2.125 5.125 -2 2 C-1.34 1.34 -0.68 0.68 0 0 Z "
     fill="#353535"
     id="path123"
     transform="translate(199,221)" />
  <path
     d="M0 0 C2 3 2 3 2 5 C0 6.625 0 6.625 -2 8 C-2.6875 5.6875 -2.6875 5.6875 -3 3 C-1.5625 1.1875 -1.5625 1.1875 0 0 Z "
     fill="#D2D3D5"
     id="path124"
     transform="translate(136,171)" />
  <path
     d="M0 0 C1.32 0 2.64 0 4 0 C3.67 1.98 3.34 3.96 3 6 C2.01 5.34 1.02 4.68 0 4 C0 2.68 0 1.36 0 0 Z "
     fill="#CECDCB"
     id="path125"
     transform="translate(165,1310)" />
  <path
     d="M0 0 C2.64 0.99 5.28 1.98 8 3 C4.06329512 4.31223496 1.87511856 3.24296256 -2 2 C-1.34 1.34 -0.68 0.68 0 0 Z "
     fill="#A19D9D"
     id="path126"
     transform="translate(122,535)" />
  <path
     d="M0 0 C1.2380014 3.57644848 0.74926071 6.33694766 0 10 C-2 7 -2 7 -1.6875 3.875 C-1 1 -1 1 0 0 Z "
     fill="#383838"
     id="path127"
     transform="translate(203,184)" />
  <path
     d="M0 0 C0.66 0 1.32 0 2 0 C1.67 2.31 1.34 4.62 1 7 C0.01 6.67 -0.98 6.34 -2 6 C-1.34 4.02 -0.68 2.04 0 0 Z "
     fill="#3D3E3E"
     id="path128"
     transform="translate(138,139)" />
</svg>
