<?xml version="1.0" encoding="UTF-8" standalone="no"?>
<svg
   version="1.1"
   width="368"
   height="1408"
   id="svg64"
   sodipodi:docname="split_2.svg"
   inkscape:version="1.4 (e7c3feb1, 2024-10-09)"
   xmlns:inkscape="http://www.inkscape.org/namespaces/inkscape"
   xmlns:sodipodi="http://sodipodi.sourceforge.net/DTD/sodipodi-0.dtd"
   xmlns="http://www.w3.org/2000/svg"
   xmlns:svg="http://www.w3.org/2000/svg">
  <defs
     id="defs64" />
  <sodipodi:namedview
     id="namedview64"
     pagecolor="#ffffff"
     bordercolor="#000000"
     borderopacity="0.25"
     inkscape:showpageshadow="2"
     inkscape:pageopacity="0.0"
     inkscape:pagecheckerboard="0"
     inkscape:deskcolor="#d1d1d1"
     inkscape:zoom="0.63036475"
     inkscape:rotation="-90"
     inkscape:cx="306.96513"
     inkscape:cy="647.24431"
     inkscape:window-width="1640"
     inkscape:window-height="828"
     inkscape:window-x="0"
     inkscape:window-y="44"
     inkscape:window-maximized="0"
     inkscape:current-layer="svg64" />
  <path
     d="M0 0 C1.32 0 2.64 0 4 0 C4.18175781 0.73065674 4.36351562 1.46131348 4.55078125 2.21411133 C5.84917776 7.42226272 7.15747294 12.62725387 8.5 17.82421875 C11.17707392 28.25436547 13.65565695 38.59364305 15.26171875 49.24609375 C15.82078054 52.08873069 16.46447948 54.48795672 17.41577148 57.19042969 C18.92580475 61.64805742 20.06351249 66.11633582 21.0859375 70.70703125 C21.26810318 71.50657227 21.45026886 72.30611328 21.63795471 73.12988281 C22.02312213 74.82180779 22.40637574 76.51416948 22.78781128 78.2069397 C23.7751209 82.58797541 24.776225 86.96585259 25.77734375 91.34375 C26.06850822 92.61881157 26.06850822 92.61881157 26.36555481 93.91963196 C27.9803003 100.96805572 29.68411039 107.99089725 31.50341797 114.98950195 C32.40595493 118.48651725 33.20999922 121.97759441 33.8984375 125.5234375 C35.29584585 132.66445988 37.00984086 139.73340145 38.6875 146.8125 C39.04342359 148.31916185 39.39929849 149.82583521 39.75512695 151.33251953 C42.04521419 161.01830392 44.35633987 170.69901709 46.6875 180.375 C47.07844849 181.9988562 47.07844849 181.9988562 47.47729492 183.65551758 C47.73615479 184.72568115 47.99501465 185.79584473 48.26171875 186.8984375 C48.63669057 188.50402036 48.63669057 188.50402036 49.01923758 190.14203924 C49.67274799 192.71271024 50.41453861 195.26253216 51.24197716 197.78260571 C56.40571157 214.15055787 55.69996885 230.93286355 55.62146473 247.89454268 C55.60569942 252.51882147 55.61932307 257.1430348 55.62908787 261.76731735 C55.64221418 269.85562883 55.63702558 277.9437635 55.61956978 286.03206444 C55.59372444 298.05913407 55.59680095 310.08607701 55.60581821 322.11316492 C55.62026025 342.34990289 55.61212575 362.58657125 55.59158516 382.82330132 C55.56380908 410.44810965 55.56785683 438.07284828 55.58017098 465.69766451 C55.58585682 478.57400901 55.58993379 491.45035402 55.59354305 504.32669926 C55.59408639 506.25990291 55.59408639 506.25990291 55.59464071 508.23216118 C55.60267896 538.20561044 55.59540671 568.17905218 55.58539445 598.15249964 C55.58471663 600.18336944 55.58404524 602.21423924 55.58337551 604.24510904 C55.57933863 616.46845879 55.57516352 628.69180849 55.57086498 640.91515815 C55.56059116 670.18957726 55.552418 699.46399673 55.54609509 728.73841697 C55.54565441 730.77216809 55.54520656 732.80591922 55.54475785 734.83967034 C55.53804632 765.46818101 55.53526906 796.09668672 55.54325008 826.72519779 C55.54358295 828.01152852 55.54391582 829.29785924 55.54425878 830.62316969 C55.54765433 843.46261063 55.5516352 856.30205123 55.55653619 869.14149168 C55.56690496 896.74289593 55.56570493 924.34423375 55.54143523 951.9456306 C55.52389067 972.05101056 55.51971917 992.15635338 55.52973027 1012.26173895 C55.53518822 1024.21626352 55.52920248 1036.17066056 55.50728778 1048.12516691 C55.49373902 1056.09938598 55.494503 1064.07351874 55.50711313 1072.04773918 C55.51387695 1076.59786904 55.51414211 1081.14775481 55.49690635 1085.69786244 C55.48135593 1089.83223379 55.48399578 1093.96616776 55.50150733 1098.10052763 C55.50456333 1099.59145188 55.50082704 1101.08240844 55.48968074 1102.57329416 C55.4755612 1104.59041208 55.48833716 1106.60766522 55.50254732 1108.6247825 C55.50205255 1109.74383615 55.50155777 1110.86288979 55.501048 1112.01585415 C56.11132302 1115.66580378 57.59705615 1117.25170859 60 1120 C60.49609375 1122.97265625 60.49609375 1122.97265625 60.4375 1126.0625 C60.43621094 1127.08472656 60.43492187 1128.10695313 60.43359375 1129.16015625 C59.9454595 1132.35721572 58.91671192 1133.47774724 57 1136 C56.52733891 1138.6433276 56.52733891 1138.6433276 56.625 1141.4375 C56.61726563 1142.36433594 56.60953125 1143.29117187 56.6015625 1144.24609375 C56.82812543 1147.08015312 56.82812543 1147.08015312 58.5 1149.46875 C60.32067467 1152.54113851 60.40190031 1154.51614227 60.375 1158.0625 C60.38660156 1159.59583984 60.38660156 1159.59583984 60.3984375 1161.16015625 C59.9477383 1164.37249273 58.94486329 1165.48788492 57 1168 C56.52867443 1170.41335072 56.52867443 1170.41335072 56.625 1172.9375 C56.61726563 1173.77152344 56.60953125 1174.60554688 56.6015625 1175.46484375 C56.8471094 1178.10388796 56.8471094 1178.10388796 58.5 1180.40625 C60.37206405 1183.64336075 60.40084077 1185.84573603 60.375 1189.5625 C60.38660156 1191.23505859 60.38660156 1191.23505859 60.3984375 1192.94140625 C60 1196 60 1196 58.50048828 1197.86499023 C56.64550844 1200.50439776 56.61873502 1202.01839631 56.59375 1205.21875 C56.56390015 1206.73275391 56.56390015 1206.73275391 56.53344727 1208.27734375 C56.52240967 1209.34082031 56.51137207 1210.40429688 56.5 1211.5 C56.28280383 1220.17237883 55.67072366 1227.72215494 53 1236 C52.69991621 1237.33146421 52.40766805 1238.66472999 52.125 1240 C49.09349168 1251.6894961 44.14116087 1261.28077898 33.8671875 1268.0703125 C18.00539091 1276.70577807 1.019698 1277.93177411 -16.25 1273.140625 C-28.64281578 1269.37114353 -37.63047875 1263.46383402 -44.00976562 1251.99291992 C-50.5019156 1238.92698791 -51.7033368 1224.78745508 -51.59838867 1210.41918945 C-51.6045453 1203.73356576 -51.85597871 1200.23455321 -56 1195 C-56.49609375 1192.18359375 -56.49609375 1192.18359375 -56.4375 1189.4375 C-56.43621094 1188.52871094 -56.43492187 1187.61992188 -56.43359375 1186.68359375 C-56 1184 -56 1184 -54.484375 1181.5859375 C-52.58105789 1178.27015874 -52.69759316 1175.97942566 -52.8125 1172.1875 C-52.83957031 1171.02605469 -52.86664063 1169.86460938 -52.89453125 1168.66796875 C-52.92933594 1167.78753906 -52.96414062 1166.90710937 -53 1166 C-53.66 1166 -54.32 1166 -55 1166 C-56.35123544 1161.94629369 -56.55942863 1158.23988012 -56 1154 C-55.360625 1153.071875 -54.72125 1152.14375 -54.0625 1151.1875 C-50.98389409 1146.4296545 -51.17994935 1141.56043479 -51 1136 C-51.66 1136 -52.32 1136 -53 1136 C-55.32011034 1132.33569875 -55.26783151 1129.14564743 -55.25 1124.875 C-55.25515625 1123.63492187 -55.2603125 1122.39484375 -55.265625 1121.1171875 C-55 1118 -55 1118 -53 1116 C-52.69600774 1113.26433289 -52.69600774 1113.26433289 -52.74979365 1109.99803668 C-52.74243899 1108.06194665 -52.74243899 1108.06194665 -52.73493576 1106.08674368 C-52.7396036 1104.63788538 -52.74445181 1103.18902765 -52.74946022 1101.74017048 C-52.74748845 1100.20749232 -52.74463781 1098.67481507 -52.74098241 1097.14214 C-52.73342682 1092.89579634 -52.7384391 1088.64954303 -52.74533385 1084.40320161 C-52.75061968 1079.79642222 -52.74433179 1075.18965704 -52.73944318 1070.58287925 C-52.73245797 1062.49710839 -52.7328788 1054.41136387 -52.73804665 1046.32559204 C-52.74567216 1034.30142497 -52.74183982 1022.27728112 -52.73542418 1010.25311431 C-52.72487802 990.0256369 -52.72307071 969.79816782 -52.72560501 949.57068825 C-52.72901719 920.66887132 -52.71567528 891.76707537 -52.69883054 862.86526407 C-52.69214867 851.27377889 -52.68601021 839.6822934 -52.67987633 828.09080791 C-52.67919233 826.80284598 -52.67850834 825.51488405 -52.67780361 824.18789297 C-52.66197222 794.18707616 -52.65118731 764.18625822 -52.64221087 734.18543872 C-52.64160141 732.15110104 -52.64098667 730.11676336 -52.64037116 728.08242568 C-52.63092448 696.76135123 -52.62407291 665.44027747 -52.62164307 634.11920166 C-52.62153556 632.75916548 -52.62142792 631.39912929 -52.62132015 630.03909311 C-52.62083866 623.92806843 -52.62037461 617.81704375 -52.6199127 611.70601907 C-52.61970756 608.99551787 -52.61950077 606.28501668 -52.61929418 603.57451548 C-52.61914066 601.54373652 -52.61899093 599.51295755 -52.61884138 597.48217859 C-52.61549708 552.7427932 -52.59855023 508.00342599 -52.56673984 463.26405048 C-52.56226637 456.94572968 -52.55797653 450.62740877 -52.55381393 444.30908775 C-52.55258325 442.44379112 -52.55258325 442.44379112 -52.5513277 440.54081173 C-52.53857476 420.52084883 -52.54057668 400.5009131 -52.54844838 380.48094877 C-52.55613044 360.35750847 -52.54973152 340.23411345 -52.52880932 320.11068217 C-52.51683942 308.15391636 -52.51608003 296.19727089 -52.53130184 284.24050815 C-52.54038369 276.25138072 -52.53497595 268.26234752 -52.51785937 260.2732335 C-52.50852835 255.72248423 -52.50545981 251.17197319 -52.52012999 246.62123261 C-52.5333783 242.47435645 -52.52797466 238.32792305 -52.50821665 234.18107661 C-52.50432327 232.69680503 -52.50699883 231.21249638 -52.51737525 229.72825595 C-52.58399264 219.47619184 -50.94143437 210.7629452 -48 201 C-47.00830021 196.99117885 -46.09778586 192.96551495 -45.1875 188.9375 C-44.67088631 186.67831373 -44.15394568 184.4192022 -43.63671875 182.16015625 C-43.37036621 180.99371582 -43.10401367 179.82727539 -42.82958984 178.62548828 C-39.07726098 162.22699396 -35.25397444 145.85163439 -31.12670898 129.54321289 C-29.2951481 122.27254522 -27.60688035 114.97699807 -25.96875 107.66064453 C-24.18147503 99.71324749 -22.28918881 91.79271243 -20.375 83.875 C-20.08568604 82.67786377 -19.79637207 81.48072754 -19.49829102 80.24731445 C-18.66984329 76.8304733 -17.83598046 73.41500521 -17 70 C-16.73348633 68.90333008 -16.46697266 67.80666016 -16.19238281 66.67675781 C-14.97020594 61.70064243 -13.62278177 56.86119649 -12 52 C-11.56858404 49.84013687 -11.17697313 47.67216201 -10.8125 45.5 C-9.31862316 37.05870853 -7.38338023 28.72074475 -5.4375 20.375 C-5.28374908 19.71089111 -5.12999817 19.04678223 -4.97158813 18.36254883 C-4.52486927 16.43620936 -4.07305089 14.5110547 -3.62109375 12.5859375 C-3.3573999 11.4623584 -3.09370605 10.3387793 -2.82202148 9.18115234 C-2.01630977 6.06311739 -1.05597606 3.04141761 0 0 Z "
     fill="#0B0B0B"
     transform="translate(190,67)"
     id="path2" />
  <path
     d="M0 0 C3 2 3 2 4.375 4.5 C6.39899083 7.61383204 7.40495567 8.14031549 11 9 C16.42293819 9.55215371 20.58791173 9.58482172 25 6 C25.33 5.34 25.66 4.68 26 4 C27.32 4 28.64 4 30 4 C30 296.71 30 589.42 30 891 C20.1 891 10.2 891 0 891 C0 596.97 0 302.94 0 0 Z "
     fill="#F2F2F1"
     transform="translate(176,291)"
     id="path3" />
  <path
     d="M0 0 C3.83203125 0.78222656 3.83203125 0.78222656 5.34375 2.7421875 C5.7253125 3.44601563 6.106875 4.14984375 6.5 4.875 C8.98435706 9.19879389 8.98435706 9.19879389 13 12 C17.16062305 12.53934003 19.38669925 12.31891639 23.125 10.375 C25.37183284 8.5189207 26.91312219 6.98518637 28.6875 4.75 C29.450625 3.8425 30.21375 2.935 31 2 C31.99 2 32.98 2 34 2 C36.47909373 12.27830791 38.94376821 22.55298171 41.12890625 32.8984375 C45.62576675 54.28105253 45.62576675 54.28105253 51.17089844 75.40722656 C53.14354027 82.27811912 54.70059279 89.23099617 56.21313477 96.21606445 C57.36626405 101.47724737 58.73201582 106.57897186 60.42724609 111.69335938 C61.35271678 115.42048942 61.56483076 118.03058541 59.609375 121.38671875 C58.99578125 122.14597656 58.3821875 122.90523438 57.75 123.6875 C57.14671875 124.45449219 56.5434375 125.22148437 55.921875 126.01171875 C53.9810709 128.01958315 52.610248 129.05220121 50 130 C44.81305487 130 42.98070479 129.93711791 39.1875 126.3125 C37.18587092 123.28146168 35.49602808 120.30700945 34 117 C32.68 117 31.36 117 30 117 C29.61328125 117.83144531 29.2265625 118.66289062 28.828125 119.51953125 C28.30734375 120.60621094 27.7865625 121.69289063 27.25 122.8125 C26.48429687 124.43091797 26.48429687 124.43091797 25.703125 126.08203125 C24.01097613 128.98119457 22.89668451 130.37165345 20 132 C14.98507463 132.71641791 14.98507463 132.71641791 12 132 C7.44109883 127.86518266 4.82907186 122.41737164 2 117 C-2.43180982 118.47726994 -3.25719487 121.67666783 -5.40234375 125.65234375 C-7.12595749 128.18508667 -8.13609292 129.01761327 -11 130 C-14.80854055 130.14371851 -17.07823536 129.81772388 -19.97265625 127.25 C-24.81095695 121.84540948 -26.35472714 118.38782121 -26 111 C-25.48617864 107.96488791 -24.76591786 104.99424722 -24.0234375 102.0078125 C-23.81774643 101.15329498 -23.61205536 100.29877747 -23.40013123 99.41836548 C-22.73246514 96.65206312 -22.053788 93.88859212 -21.375 91.125 C-20.91028247 89.20754297 -20.44633792 87.28989845 -19.9831543 85.37207031 C-18.85871905 80.72226043 -17.72636012 76.07442659 -16.59161377 71.42712402 C-15.31862199 66.20461385 -14.06559046 60.97731605 -12.8125 55.75 C-12.58570557 54.80680908 -12.35891113 53.86361816 -12.12524414 52.8918457 C-10.3169008 45.35997052 -8.53779858 37.82130713 -6.77279663 30.2791748 C-6.33141305 28.39330835 -5.88899623 26.5076838 -5.4465332 24.62207031 C-3.53598389 16.43352203 -1.73526602 8.22740555 0 0 Z "
     fill="#E8E8E8"
     transform="translate(175,159)"
     id="path4" />
  <path
     d="M0 0 C0 293.7 0 587.4 0 890 C-2.64 890.33 -5.28 890.66 -8 891 C-8.11993358 806.71154151 -8.2312358 722.42307273 -8.29640198 638.134552 C-8.29736838 636.88776262 -8.29833478 635.64097324 -8.29933046 634.35640236 C-8.32027908 607.26263022 -8.3396706 580.16885717 -8.35745731 553.07508277 C-8.36575025 540.45649294 -8.37433038 527.8379033 -8.38312709 515.21931381 C-8.38452183 513.21630188 -8.38590866 511.21328994 -8.38729516 509.210278 C-8.40871856 478.3616268 -8.43608685 447.51299493 -8.48065186 416.66436768 C-8.48161015 416.00094345 -8.48256844 415.33751923 -8.48355577 414.65399124 C-8.49904264 403.95742413 -8.5150278 393.26085776 -8.53107908 382.56429148 C-8.59817608 337.843545 -8.64297219 293.12283732 -8.65740493 248.40204109 C-8.65942212 242.18480714 -8.66170158 235.96757331 -8.6641407 229.75033951 C-8.66484864 227.91481405 -8.66484864 227.91481405 -8.66557089 226.04220727 C-8.67385437 206.31600086 -8.70635156 186.5899045 -8.74782424 166.86374303 C-8.78896848 147.04938695 -8.80479259 127.23514036 -8.79450964 107.42074303 C-8.78917118 95.6375 -8.80350724 83.85465661 -8.8455828 72.07148548 C-8.8717475 64.20947153 -8.8727058 56.34772057 -8.8528227 48.48568877 C-8.84221013 43.99995292 -8.84288418 39.51497507 -8.87418228 35.02931915 C-8.9024175 30.95182415 -8.89868354 26.87568163 -8.86897983 22.79820849 C-8.86396241 21.32905277 -8.87079321 19.85979902 -8.89064671 18.39076889 C-9.02919484 7.44908062 -9.02919484 7.44908062 -6.41928811 3.77439715 C-2.13791334 0 -2.13791334 0 0 0 Z "
     fill="#E9E9E8"
     transform="translate(238,290)"
     id="path5" />
  <path
     d="M0 0 C7 7 7 7 7.24934233 9.57486416 C7.24903037 10.67764717 7.24871841 11.78043018 7.24839699 12.91663086 C7.25289158 14.18826626 7.25738617 15.45990165 7.26201695 16.77007145 C7.25688464 18.19733203 7.25157077 19.62459197 7.24609566 21.05185127 C7.24757354 22.56178167 7.24992922 24.07171142 7.25308865 25.58163923 C7.25926156 29.76472446 7.2528478 33.9477134 7.24453239 38.13079149 C7.23769365 42.66876929 7.24239989 47.20673682 7.24568737 51.74471653 C7.24984546 59.70924715 7.24652927 67.67374797 7.23841095 75.63827515 C7.2263726 87.48135054 7.22573638 99.32440702 7.22749493 111.16748741 C7.2301268 131.08654928 7.22342449 151.0055979 7.21146011 170.92465591 C7.19963879 190.65598745 7.1919308 210.38731348 7.18975449 230.11864853 C7.18961701 231.3440416 7.18947953 232.56943468 7.18933788 233.83196087 C7.18866125 240.05474266 7.18805847 246.27752444 7.18748413 252.50030623 C7.18327979 296.61234984 7.16979683 340.72438624 7.15087891 384.83642578 C7.14629566 395.53299965 7.14174497 406.22957352 7.1373291 416.92614746 C7.1370552 417.58953381 7.1367813 418.25292015 7.13649911 418.93640911 C7.12381516 449.7652108 7.11636113 480.59401311 7.11025951 511.42281672 C7.10986338 513.42380386 7.109465 515.424791 7.10906615 517.42577814 C7.10642918 530.68622442 7.10387755 543.94667072 7.10138843 557.20711702 C7.09631558 584.22180818 7.09067307 611.23649921 7.08468628 638.25119019 C7.0844117 639.49336781 7.08413712 640.73554544 7.08385422 642.01536482 C7.06544312 725.01024621 7.03375158 808.0051236 7 891 C4.69 891 2.38 891 0 891 C0 596.97 0 302.94 0 0 Z "
     fill="#ECECEC"
     transform="translate(146,289)"
     id="path6" />
  <path
     d="M0 0 C10.46215703 -0.17121969 10.46215703 -0.17121969 14.9375 0.9375 C25.04311704 3.20804931 35.3725023 3.22426077 45.6875 3.25 C46.35698669 3.25233643 47.02647339 3.25467285 47.71624756 3.25708008 C59.8639924 3.27294205 71.7243189 2.20359185 83.72119141 0.27539062 C86.16746211 -0.02023755 88.53829798 -0.04569789 91 0 C91.58211944 17.6145031 90.16520318 34.57112204 79 49 C71.46888669 56.53111331 57.93113198 61.90954338 47.375 62.5625 C34.47073935 61.93810029 20.02978327 57.0883604 10.30078125 48.5 C9 47.0625 9 47.0625 7 44 C6.64679688 43.46375 6.29359375 42.9275 5.9296875 42.375 C-1.42739614 29.73171551 -0.39657997 14.07553829 0 0 Z "
     fill="#EDEDED"
     transform="translate(147,1273)"
     id="path7" />
  <path
     d="M0 0 C1.51400391 0.12761719 1.51400391 0.12761719 3.05859375 0.2578125 C4.03699219 0.3196875 5.01539063 0.3815625 6.0234375 0.4453125 C9.97322398 0.70482541 13.91427002 1.02076892 17.85375977 1.40649414 C26.11902329 2.19193273 34.3349728 2.31897515 42.63061523 2.31811523 C44.98895223 2.32030587 47.34682302 2.33854799 49.70507812 2.35742188 C57.72283243 2.38610286 65.35171086 2.05793564 73.26391602 0.5637207 C76.2754902 0.09936948 79.01678158 -0.07310371 82.05859375 0.1328125 C85.53481231 2.68203944 86.8411244 4.46832281 88.18359375 8.5703125 C88.05287213 12.29587871 87.43966126 14.18822178 84.8515625 16.9140625 C81.31381756 19.31880416 77.21472669 19.59381401 73.05859375 20.1328125 C72.30053436 20.30183075 71.54247498 20.470849 70.76144409 20.64498901 C67.88668312 21.16383976 65.23336962 21.25986434 62.31298828 21.26220703 C60.61434128 21.26693527 60.61434128 21.26693527 58.88137817 21.27175903 C57.05484207 21.26872269 57.05484207 21.26872269 55.19140625 21.265625 C53.92448944 21.26658173 52.65757263 21.26753845 51.3522644 21.26852417 C48.66742547 21.26920466 45.98267749 21.26786387 43.29785156 21.26318359 C39.90168598 21.2575443 36.50560046 21.26073072 33.10943794 21.26675606 C29.82425815 21.27130553 26.53908711 21.26808725 23.25390625 21.265625 C21.45773361 21.26866135 21.45773361 21.26866135 19.62527466 21.27175903 C13.3840556 21.25485687 7.15091842 21.12493277 0.91748047 20.81591797 C-0.91014328 20.73179153 -0.91014328 20.73179153 -2.77468872 20.64596558 C-6.12679354 20.10277128 -7.50125358 19.43325092 -9.87890625 17.0703125 C-12.54253115 12.97824523 -12.71155296 9.90772211 -11.94140625 5.1328125 C-9.10895136 -0.63033272 -5.80272937 -0.33907051 0 0 Z "
     fill="#F0F0F0"
     transform="translate(154.94140625,1216.8671875)"
     id="path8" />
  <path
     d="M0 0 C12.34444746 2.06648765 24.73169158 1.8058098 37.21533203 1.74438477 C41.11635749 1.7259035 45.01714782 1.72387708 48.91821289 1.72412109 C51.3954285 1.71921302 53.8726425 1.71338784 56.34985352 1.70654297 C57.51740677 1.70543015 58.68496002 1.70431732 59.88789368 1.70317078 C60.96048935 1.69679092 62.03308502 1.69041107 63.13818359 1.68383789 C64.08333328 1.68002609 65.02848297 1.67621429 66.00227356 1.67228699 C68.3015371 1.68577484 68.3015371 1.68577484 70.26782227 0.53857422 C72.76035602 0.41438076 75.21272982 0.35341908 77.70532227 0.35107422 C78.3865918 0.33882812 79.06786133 0.32658203 79.76977539 0.31396484 C83.49612036 0.30301574 85.08773798 0.41851803 88.26782227 2.53857422 C89.07727349 8.11479373 89.07727349 8.11479373 88.26782227 10.53857422 C82.89432884 15.82570793 75.89071877 15.60473755 68.70532227 16.22607422 C66.28719806 16.45752873 63.86922239 16.69054161 61.45141602 16.92529297 C60.38463623 17.02028076 59.31785645 17.11526855 58.21875 17.21313477 C55.32752075 17.48437756 55.32752075 17.48437756 52.75830078 18.06201172 C37.39907503 21.00105776 19.64934634 18.85177474 4.20532227 16.78857422 C2.98200195 16.63171143 1.75868164 16.47484863 0.49829102 16.31323242 C-1.21100586 16.06126099 -1.21100586 16.06126099 -2.95483398 15.80419922 C-3.95264893 15.65756836 -4.95046387 15.5109375 -5.97851562 15.35986328 C-9.29358719 14.37113194 -11.2264878 12.89695331 -13.73217773 10.53857422 C-14.72637074 7.13084689 -14.33184488 3.73790851 -12.73217773 0.53857422 C-8.68756673 -1.48373128 -4.31715817 -0.72910633 0 0 Z "
     fill="#E8E7E7"
     transform="translate(155.732177734375,1250.46142578125)"
     id="path9" />
  <path
     d="M0 0 C3.42420457 0.61030033 6.68279772 0.61584597 10.16178894 0.61795044 C10.89082428 0.61970276 11.61985962 0.62145508 12.37098694 0.6232605 C14.76913364 0.62764482 17.16720601 0.62475402 19.56535339 0.62136841 C21.23493463 0.62204221 22.90451578 0.62301288 24.57409668 0.62426758 C28.06671588 0.62573973 31.55930945 0.62360468 35.05192566 0.618927 C39.53449627 0.61321672 44.01700717 0.61651996 48.49957561 0.62249947 C51.94386244 0.62610679 55.38813501 0.62496593 58.83242226 0.62237167 C60.48588378 0.62170357 62.1393466 0.62252678 63.79280663 0.62485123 C66.09812749 0.62738198 68.4033504 0.62353177 70.70866394 0.61795044 C72.02150864 0.61715485 73.33435333 0.61635925 74.6869812 0.61553955 C77.65781127 0.70091415 77.65781127 0.70091415 79.74113464 -0.51144409 C83.24113464 -0.69894409 83.24113464 -0.69894409 86.74113464 -0.51144409 C89.13321854 1.88063981 89.08690412 2.63994476 89.17863464 5.92605591 C89.11613464 8.36355591 89.11613464 8.36355591 88.74113464 10.48855591 C83.65920293 15.26249176 75.58188225 15.81457105 68.87394714 16.10183716 C68.10680389 16.13916458 67.33966064 16.176492 66.54927063 16.21495056 C56.67151838 16.64626872 46.78539143 16.67459736 36.89982605 16.67385864 C33.61372646 16.67605752 30.32795711 16.6943306 27.04191589 16.71316528 C-3.70493384 16.8014368 -3.70493384 16.8014368 -10.11482239 12.62991333 C-12.25886536 10.48855591 -12.25886536 10.48855591 -13.32136536 6.98855591 C-13.25886536 3.48855591 -13.25886536 3.48855591 -11.75886536 1.05105591 C-7.89048421 -1.36668231 -4.35876915 -0.98689668 0 0 Z "
     fill="#ECEBEA"
     transform="translate(154.2588653564453,1187.5114440917969)"
     id="path10" />
  <path
     d="M0 0 C3.32901247 2.21934164 3.75023244 3.34683329 5 7 C4.01 7.33 3.02 7.66 2 8 C1.67 299.06 1.34 590.12 1 890 C0.67 890 0.34 890 0 890 C0 596.3 0 302.6 0 0 Z "
     fill="#DDDDDC"
     transform="translate(176,291)"
     id="path11" />
  <path
     d="M0 0 C0.57454996 17.38545606 -0.62565479 34.90026157 -12 49 C-14.19140625 50.76171875 -14.19140625 50.76171875 -16 52 C-16.495 50.515 -16.495 50.515 -17 49 C-16.34 48.01 -15.68 47.02 -15 46 C-16.98 46.66 -18.96 47.32 -21 48 C-20.59007812 47.13117188 -20.18015625 46.26234375 -19.7578125 45.3671875 C-19.21898437 44.21476562 -18.68015625 43.06234375 -18.125 41.875 C-17.59132812 40.73804688 -17.05765625 39.60109375 -16.5078125 38.4296875 C-14.16336241 33.09697461 -12.75957386 28.57231995 -12.5859375 22.7265625 C-12.54726562 21.57285156 -12.50859375 20.41914062 -12.46875 19.23046875 C-12.4378125 18.04066406 -12.406875 16.85085938 -12.375 15.625 C-12.31699219 13.80548828 -12.31699219 13.80548828 -12.2578125 11.94921875 C-12.16386505 8.96638735 -12.08085747 5.98321494 -12 3 C-15.96 3 -19.92 3 -24 3 C-24 2.67 -24 2.34 -24 2 C-20.93796326 1.66231828 -17.87530542 1.33063107 -14.8125 1 C-13.51602539 0.85691406 -13.51602539 0.85691406 -12.19335938 0.7109375 C-8.11207075 0.27309811 -4.11211498 -0.13621913 0 0 Z "
     fill="#EBEBEB"
     transform="translate(238,1273)"
     id="path12" />
  <path
     d="M0 0 C1.89551022 -0.05441656 3.7914792 -0.09298035 5.6875 -0.125 C6.74324219 -0.14820313 7.79898438 -0.17140625 8.88671875 -0.1953125 C12 0 12 0 14.33229065 0.99702454 C17.33795242 2.12705956 19.59270752 2.24748027 22.79663086 2.24291992 C24.50882057 2.24753487 24.50882057 2.24753487 26.25559998 2.25224304 C28.09167564 2.24146477 28.09167564 2.24146477 29.96484375 2.23046875 C31.23090958 2.23001053 32.4969754 2.22955231 33.80140686 2.2290802 C36.47703553 2.22606115 39.15231794 2.21926415 41.82788086 2.20581055 C45.2451207 2.18883868 48.66221265 2.18499606 52.07948971 2.18575573 C55.35378886 2.18541721 58.62805739 2.17657012 61.90234375 2.16796875 C63.12436996 2.16685593 64.34639618 2.1657431 65.60545349 2.16459656 C67.32237144 2.15502678 67.32237144 2.15502678 69.07397461 2.14526367 C70.07593369 2.14145187 71.07789276 2.13764008 72.11021423 2.13371277 C75.14137109 1.99345864 78.0130591 1.51951167 81 1 C83.45754141 0.93421998 85.91668778 0.91430838 88.375 0.9375 C89.62023437 0.94652344 90.86546875 0.95554687 92.1484375 0.96484375 C93.55996094 0.98224609 93.55996094 0.98224609 95 1 C95 1.99 95 2.98 95 4 C88.20172184 7.0159634 81.94449088 7.67276993 74.5625 8.125 C72.39687768 8.26962856 70.2314919 8.41786051 68.06640625 8.5703125 C67.11709229 8.62977051 66.16777832 8.68922852 65.18969727 8.75048828 C63.02554142 8.7669569 63.02554142 8.7669569 62 10 C60.49740523 10.09910095 58.99023289 10.13079701 57.484375 10.1328125 C56.56269531 10.13410156 55.64101562 10.13539062 54.69140625 10.13671875 C53.23541016 10.13091797 53.23541016 10.13091797 51.75 10.125 C50.79480469 10.12886719 49.83960938 10.13273437 48.85546875 10.13671875 C47.92863281 10.13542969 47.00179687 10.13414063 46.046875 10.1328125 C45.19963867 10.13168457 44.35240234 10.13055664 43.47949219 10.12939453 C40.89869642 9.99471338 38.52498566 9.53533084 36 9 C32.3626596 8.7060735 28.72488898 8.4948626 25.08203125 8.28125 C22 8 22 8 20 7 C18.64929874 6.87310404 17.29342256 6.79829657 15.9375 6.75390625 C14.74253906 6.70459961 14.74253906 6.70459961 13.5234375 6.65429688 C11.84128322 6.59310396 10.15898253 6.53581137 8.4765625 6.48242188 C7.67992187 6.44826172 6.88328125 6.41410156 6.0625 6.37890625 C5.33160156 6.3538501 4.60070312 6.32879395 3.84765625 6.30297852 C2 6 2 6 0 4 C0 2.68 0 1.36 0 0 Z "
     fill="#D2D1D1"
     transform="translate(145,1239)"
     id="path13" />
  <path
     d="M0 0 C-0.375 2.4375 -0.375 2.4375 -1 5 C-12.27660298 10.63830149 -30.58094673 8.35421232 -42.875 8.3125 C-43.85036713 8.31233887 -44.82573425 8.31217773 -45.83065796 8.31201172 C-62.06333588 8.29342158 -77.93111333 7.38402001 -94 5 C-94.33 3.68 -94.66 2.36 -95 1 C-89.33268813 0.89590652 -83.74901487 0.98616278 -78.1015625 1.4921875 C-68.47716133 2.20372157 -58.85176973 2.18604206 -49.20507812 2.18530273 C-46.00637622 2.18749563 -42.80801655 2.20573327 -39.609375 2.22460938 C-29.82764413 2.25062638 -20.34941238 2.15984017 -10.69482422 0.44311523 C-7.07470231 -0.15214852 -3.65830934 -0.14633237 0 0 Z "
     fill="#F2F2F1"
     transform="translate(240,1207)"
     id="path14" />
  <path
     d="M0 0 C0.68126953 -0.01224609 1.36253906 -0.02449219 2.06445312 -0.03710938 C5.79079809 -0.04805848 7.38241571 0.06744381 10.5625 2.1875 C10.9609375 4.0625 10.9609375 4.0625 10.9375 6.1875 C10.94910156 7.239375 10.94910156 7.239375 10.9609375 8.3125 C10.5625 10.1875 10.5625 10.1875 7.5625 12.1875 C7.5625 11.5275 7.5625 10.8675 7.5625 10.1875 C6.69230225 10.34976074 5.82210449 10.51202148 4.92553711 10.67919922 C1.80416419 11.15097406 -1.09426053 11.31665275 -4.24609375 11.3203125 C-5.32310547 11.32160156 -6.40011719 11.32289062 -7.50976562 11.32421875 C-9.17555664 11.31841797 -9.17555664 11.31841797 -10.875 11.3125 C-11.98166016 11.31636719 -13.08832031 11.32023437 -14.22851562 11.32421875 C-25.38226788 11.31088492 -25.38226788 11.31088492 -30.4375 10.1875 C-30.7675 9.5275 -31.0975 8.8675 -31.4375 8.1875 C-28.7975 7.1975 -26.1575 6.2075 -23.4375 5.1875 C-26.65653085 3.57798457 -30.18588832 3.94515252 -33.7265625 3.87109375 C-34.95419815 3.8399221 -34.95419815 3.8399221 -36.20663452 3.80812073 C-38.82516966 3.74265188 -41.44380639 3.68375274 -44.0625 3.625 C-45.83594807 3.58181224 -47.60938581 3.53819786 -49.3828125 3.49414062 C-53.73427046 3.38697324 -58.08583077 3.28569831 -62.4375 3.1875 C-62.4375 2.8575 -62.4375 2.5275 -62.4375 2.1875 C-61.77795319 2.17719254 -61.11840637 2.16688507 -60.43887329 2.15626526 C-53.5935851 2.04834621 -46.74843246 1.93373661 -39.90332031 1.81518555 C-37.34638293 1.77178978 -34.78941569 1.7301182 -32.23242188 1.69018555 C-28.56371041 1.63259531 -24.89514989 1.56886862 -21.2265625 1.50390625 C-20.07757477 1.48719376 -18.92858704 1.47048126 -17.74478149 1.45326233 C-16.15335831 1.4233445 -16.15335831 1.4233445 -14.52978516 1.39282227 C-13.12413803 1.36950584 -13.12413803 1.36950584 -11.69009399 1.34571838 C-7.74241057 1.06843979 -4.15094529 0.00390493 0 0 Z "
     fill="#BEBDBD"
     transform="translate(233.4375,1250.8125)"
     id="path15" />
  <path
     d="M0 0 C10.44276765 -0.18451025 10.44276765 -0.18451025 15.625 1 C16.88183594 1.2784375 16.88183594 1.2784375 18.1640625 1.5625 C18.76992187 1.706875 19.37578125 1.85125 20 2 C16.34606463 3.26823485 13.50929974 2.75715321 9.75 2.0625 C8.67234375 1.86785156 7.5946875 1.67320313 6.484375 1.47265625 C5.66453125 1.31667969 4.8446875 1.16070313 4 1 C4 1.66 4 2.32 4 3 C6.97 3.495 6.97 3.495 10 4 C10.01981934 4.86165771 10.03963867 5.72331543 10.06005859 6.61108398 C10.13877354 9.84861657 10.22548372 13.08581491 10.31738281 16.32299805 C10.35535297 17.71647073 10.3902577 19.11003081 10.421875 20.50366211 C10.5989151 28.21320539 10.96329581 35.52380534 13 43 C12.01 43.66 11.02 44.32 10 45 C9.67 45.66 9.34 46.32 9 47 C-0.51854379 32.1831082 -0.47910967 17.00470793 0 0 Z "
     fill="#E5E5E6"
     transform="translate(147,1273)"
     id="path16" />
  <path
     d="M0 0 C-0.33 0.33 -0.66 0.66 -1 1 C-0.01 1.33 0.98 1.66 2 2 C2 2.66 2 3.32 2 4 C-13.34825522 5.98042003 -28.54997502 6.31129542 -44.0144043 6.26074219 C-46.6569522 6.25350639 -49.29870005 6.25173425 -51.94116211 6.26074219 C-55.80330521 6.2730654 -59.66519009 6.27161922 -63.52734375 6.265625 C-64.70747543 6.26967346 -65.88760712 6.27372192 -67.10350037 6.27789307 C-68.19977249 6.27158875 -69.29604462 6.26528442 -70.42553711 6.25878906 C-71.38447372 6.25719788 -72.34341034 6.25560669 -73.33140564 6.25396729 C-76.21981135 5.97908079 -78.35030596 5.14701108 -81 4 C-82.92903132 3.7240522 -84.8689032 3.51550097 -86.8125 3.375 C-87.78832031 3.30023437 -88.76414063 3.22546875 -89.76953125 3.1484375 C-90.50558594 3.09945313 -91.24164063 3.05046875 -92 3 C-91.34 2.67 -90.68 2.34 -90 2 C-89.67 1.34 -89.34 0.68 -89 0 C-87.89132568 0.10501831 -87.89132568 0.10501831 -86.76025391 0.2121582 C-73.98030415 1.24740553 -61.18978326 1.18609105 -48.375 1.18530273 C-45.70468422 1.18522114 -43.03453877 1.19223023 -40.36425781 1.20581055 C-36.45893235 1.22424997 -32.55380231 1.22904351 -28.6484375 1.23046875 C-27.47203705 1.23765427 -26.2956366 1.24483978 -25.08358765 1.25224304 C-18.07406889 1.23318917 -11.45660454 0.60130947 -4.55923462 -0.66825867 C-2 -1 -2 -1 0 0 Z "
     fill="#0B0B0B"
     transform="translate(238,1236)"
     id="path17" />
  <path
     d="M0 0 C1.17175781 0.01353516 1.17175781 0.01353516 2.3671875 0.02734375 C2.94726562 0.03894531 3.52734375 0.05054688 4.125 0.0625 C3.795 1.0525 3.465 2.0425 3.125 3.0625 C4.115 3.3925 5.105 3.7225 6.125 4.0625 C4.81411318 4.38169939 3.50114752 4.69235947 2.1875 5 C1.09115234 5.26103516 1.09115234 5.26103516 -0.02734375 5.52734375 C-9.08856382 7.23020678 -18.09335335 7.21717026 -27.27563477 7.19287109 C-29.6714518 7.18753574 -32.06707947 7.19282795 -34.46289062 7.19921875 C-42.9833635 7.2025278 -51.39282323 6.97819546 -59.875 6.0625 C-59.545 5.0725 -59.215 4.0825 -58.875 3.0625 C-61.845 2.5675 -61.845 2.5675 -64.875 2.0625 C-64.875 1.7325 -64.875 1.4025 -64.875 1.0625 C-63.88021133 1.06583092 -63.88021133 1.06583092 -62.86532593 1.06922913 C-55.95465637 1.09137515 -49.04399691 1.10644554 -42.13330078 1.11743164 C-39.55517161 1.12245629 -36.97704529 1.12927708 -34.39892578 1.13793945 C-30.69042254 1.15008677 -26.98195703 1.15574706 -23.2734375 1.16015625 C-22.12322113 1.16531754 -20.97300476 1.17047882 -19.78793335 1.17579651 C-18.70726593 1.17587204 -17.62659851 1.17594757 -16.51318359 1.17602539 C-15.56720306 1.178246 -14.62122253 1.18046661 -13.64657593 1.18275452 C-9.03050933 0.98247032 -4.64101454 -0.0703184 0 0 Z "
     fill="#141414"
     transform="translate(229.875,1212.9375)"
     id="path18" />
  <path
     d="M0 0 C1.61841797 0.10538086 1.61841797 0.10538086 3.26953125 0.21289062 C5.93219087 0.38961582 8.59081554 0.59026725 11.25 0.8125 C11.25 1.1425 11.25 1.4725 11.25 1.8125 C9.76886719 1.88597656 9.76886719 1.88597656 8.2578125 1.9609375 C6.97648437 2.03570313 5.69515625 2.11046875 4.375 2.1875 C2.46074219 2.29191406 2.46074219 2.29191406 0.5078125 2.3984375 C-2.83061699 2.48491106 -2.83061699 2.48491106 -4.75 4.8125 C-5.03124546 6.8520984 -5.03124546 6.8520984 -4.9375 9.125 C-4.93105469 9.88425781 -4.92460937 10.64351562 -4.91796875 11.42578125 C-4.73993271 13.9555492 -4.26645826 16.33221244 -3.75 18.8125 C-2.75371582 18.80669922 -1.75743164 18.80089844 -0.73095703 18.79492188 C12.97580644 18.74190317 26.67193856 19.01969114 40.375 19.3125 C42.70181939 19.36084697 45.0286423 19.40902515 47.35546875 19.45703125 C52.98702106 19.57357968 58.61852678 19.69219376 64.25 19.8125 C64.25 20.1425 64.25 20.4725 64.25 20.8125 C56.81642435 20.8358862 49.38285261 20.85354681 41.94924831 20.86431217 C38.4958559 20.86948443 35.04248904 20.87647639 31.58911133 20.88793945 C27.59976994 20.90109554 23.6104545 20.90577486 19.62109375 20.91015625 C18.40796005 20.91531754 17.19482635 20.92047882 15.94493103 20.92579651 C9.65669402 20.92619898 3.37820213 20.80997981 -2.90209961 20.49780273 C-4.72734413 20.41320045 -4.72734413 20.41320045 -6.58946228 20.32688904 C-9.93678219 19.78210052 -11.31217027 19.10942655 -13.6875 16.75 C-16.3511249 12.65793273 -16.52014671 9.58740961 -15.75 4.8125 C-12.45166691 -2.14955038 -6.64127892 -0.55947744 0 0 Z "
     fill="#B5B3B3"
     transform="translate(158.75,1217.1875)"
     id="path19" />
  <path
     d="M0 0 C0.87011719 -0.00128906 1.74023438 -0.00257812 2.63671875 -0.00390625 C3.54292969 -0.00003906 4.44914063 0.00382812 5.3828125 0.0078125 C6.28128906 0.00394531 7.17976562 0.00007813 8.10546875 -0.00390625 C12.36145701 0.00238029 16.36170286 0.03990494 20.5078125 1.1328125 C20.42246059 6.33927887 20.42246059 6.33927887 19.5078125 9.1328125 C14.35704911 12.63971523 8.62168014 12.92136829 2.5078125 12.1328125 C0.20703125 11.11328125 0.20703125 11.11328125 -1.4921875 10.1328125 C-0.5021875 10.1328125 0.4878125 10.1328125 1.5078125 10.1328125 C0.84153738 7.01684338 0.84153738 7.01684338 -1.55859375 5.96484375 C-2.38230469 5.62839844 -3.20601562 5.29195312 -4.0546875 4.9453125 C-4.88097656 4.60113281 -5.70726562 4.25695313 -6.55859375 3.90234375 C-7.19667969 3.64839844 -7.83476562 3.39445312 -8.4921875 3.1328125 C-6.72611735 -0.3993278 -3.54245324 0.00505549 0 0 Z "
     fill="#DDDDDD"
     transform="translate(186.4921875,1322.8671875)"
     id="path20" />
  <path
     d="M0 0 C1.4540625 0.0309375 1.4540625 0.0309375 2.9375 0.0625 C3.75681671 13.35363773 1.55418567 27.79710263 -6.0625 39.0625 C-8.875 41.6875 -8.875 41.6875 -11.0625 43.0625 C-11.7225 42.7325 -12.3825 42.4025 -13.0625 42.0625 C-12.65257812 41.26585937 -12.24265625 40.46921875 -11.8203125 39.6484375 C-11.28148437 38.58882812 -10.74265625 37.52921875 -10.1875 36.4375 C-9.65382812 35.39335938 -9.12015625 34.34921875 -8.5703125 33.2734375 C-5.21307424 26.12408555 -4.69812765 20.06396129 -4.5 12.25 C-4.44035918 10.16003335 -4.37677991 8.07017405 -4.30859375 5.98046875 C-4.28466553 5.06031982 -4.2607373 4.1401709 -4.23608398 3.19213867 C-3.9586157 -0.21201866 -3.50276247 0.07148495 0 0 Z "
     fill="#151515"
     transform="translate(230.0625,1277.9375)"
     id="path21" />
  <path
     d="M0 0 C3.47621856 2.54922694 4.78253065 4.33551031 6.125 8.4375 C5.95278418 13.34565097 4.46551473 14.61507864 1 18 C-2.21451269 19.60725635 -5.43612536 19.05748185 -9 19 C-8.76990234 18.21882813 -8.76990234 18.21882813 -8.53515625 17.421875 C-7.86017489 14.36721485 -7.65588882 11.36984029 -7.4375 8.25 C-7.31181641 6.49429687 -7.31181641 6.49429687 -7.18359375 4.703125 C-7.12300781 3.81109375 -7.06242188 2.9190625 -7 2 C-7.99 1.67 -8.98 1.34 -10 1 C-6.57113346 -0.05503586 -3.57321156 -0.43753611 0 0 Z "
     fill="#D3D3D2"
     transform="translate(237,1217)"
     id="path22" />
  <path
     d="M0 0 C-0.375 2.4375 -0.375 2.4375 -1 5 C-12.81539815 10.90769907 -31.81506203 8.234012 -44.625 8.125 C-46.71093314 8.11493714 -48.79687105 8.10581721 -50.8828125 8.09765625 C-55.92199595 8.07593453 -60.96094301 8.04159222 -66 8 C-66 7.67 -66 7.34 -66 7 C-64.74864258 6.97494385 -63.49728516 6.9498877 -62.20800781 6.92407227 C-57.56369857 6.82987437 -52.91953457 6.72968381 -48.27539062 6.62768555 C-46.26565957 6.58438356 -44.25589285 6.54270512 -42.24609375 6.50268555 C-39.35666152 6.44486835 -36.46740802 6.38120676 -33.578125 6.31640625 C-32.23104462 6.29133751 -32.23104462 6.29133751 -30.85675049 6.26576233 C-30.01618103 6.24581711 -29.17561157 6.22587189 -28.30957031 6.20532227 C-27.20370575 6.18200584 -27.20370575 6.18200584 -26.07550049 6.15821838 C-23.65136598 6.03190706 -23.65136598 6.03190706 -20 5 C-31.22 4.67 -42.44 4.34 -54 4 C-54 3.67 -54 3.34 -54 3 C-53.10394043 2.98018066 -52.20788086 2.96036133 -51.28466797 2.93994141 C-47.88861065 2.86080063 -44.49290738 2.77408996 -41.09716797 2.68261719 C-39.64086076 2.64485752 -38.18447691 2.60992376 -36.72802734 2.578125 C-28.00356974 2.38545237 -19.57023377 1.8397339 -10.9453125 0.42773438 C-7.23633443 -0.11090369 -3.73865788 -0.14954632 0 0 Z "
     fill="#C1C0BE"
     transform="translate(240,1207)"
     id="path23" />
  <path
     d="M0 0 C-0.33 1.65 -0.66 3.3 -1 5 C-8.34064159 6.42982932 -15.40873008 7.19406159 -22.875 7.1875 C-23.5755249 7.18814453 -24.2760498 7.18878906 -24.99780273 7.18945312 C-29.40423918 7.14342744 -33.67604018 6.86810958 -38 6 C-38.33 5.34 -38.66 4.68 -39 4 C-34.73247658 3.42363908 -30.46409526 2.85424905 -26.19482422 2.29101562 C-24.74568233 2.09887134 -23.29678175 1.90489719 -21.84814453 1.70898438 C-19.7535541 1.42604866 -17.6581545 1.14992991 -15.5625 0.875 C-14.30566406 0.70742187 -13.04882812 0.53984375 -11.75390625 0.3671875 C-7.78909693 -0.02062944 -3.98008902 -0.06170681 0 0 Z "
     fill="#141314"
     transform="translate(241,1255)"
     id="path24" />
  <path
     d="M0 0 C1.98 0 3.96 0 6 0 C6.01981934 0.83136475 6.03963867 1.66272949 6.06005859 2.51928711 C6.13880532 5.64501012 6.22551574 8.77038913 6.31738281 11.89575195 C6.37386098 13.89713729 6.42139768 15.89876858 6.46875 17.90039062 C6.67941402 24.86985875 7.18041844 31.2616309 9 38 C0.52447995 29.72108079 0.17137373 16.92447321 -0.04492188 5.66064453 C-0.04658255 3.77370434 -0.02569942 1.88676591 0 0 Z "
     fill="#090809"
     transform="translate(151,1278)"
     id="path25" />
  <path
     d="M0 0 C1.20849609 0.00322266 2.41699219 0.00644531 3.66210938 0.00976562 C4.92474609 0.01814453 6.18738281 0.02652344 7.48828125 0.03515625 C9.39963867 0.04192383 9.39963867 0.04192383 11.34960938 0.04882812 C14.50004689 0.06062752 17.65039074 0.07709028 20.80078125 0.09765625 C20.80078125 1.08765625 20.80078125 2.07765625 20.80078125 3.09765625 C5.70233245 5.73988479 -8.99436182 5.32103554 -24.19921875 4.09765625 C-24.19921875 3.76765625 -24.19921875 3.43765625 -24.19921875 3.09765625 C-23.15121094 2.96488281 -22.10320312 2.83210938 -21.0234375 2.6953125 C-19.64451097 2.5170839 -18.26560582 2.33868984 -16.88671875 2.16015625 C-15.8512793 2.02963867 -15.8512793 2.02963867 -14.79492188 1.89648438 C-0.24634158 -0.00115653 -0.24634158 -0.00115653 0 0 Z "
     fill="#272626"
     transform="translate(218.19921875,1192.90234375)"
     id="path26" />
  <path
     d="M0 0 C0.33 0 0.66 0 1 0 C1 2.97 1 5.94 1 9 C1.66 9 2.32 9 3 9 C3.33 8.34 3.66 7.68 4 7 C3.04003241 16.21568889 -0.14516664 23.74229703 -6 31 C-8.19140625 32.76171875 -8.19140625 32.76171875 -10 34 C-11.35561033 29.93316901 -9.80826101 27.64616564 -8 24 C-7.360625 22.865625 -6.72125 21.73125 -6.0625 20.5625 C-2.78874078 14.20458152 -1.58003882 6.92527655 0 0 Z "
     fill="#D7D8D8"
     transform="translate(232,1291)"
     id="path27" />
  <path
     d="M0 0 C0.680625 0.165 1.36125 0.33 2.0625 0.5 C2.0625 0.83 2.0625 1.16 2.0625 1.5 C0.0825 1.5 -1.8975 1.5 -3.9375 1.5 C-3.9375 2.16 -3.9375 2.82 -3.9375 3.5 C-4.5975 3.5 -5.2575 3.5 -5.9375 3.5 C-4.72705868 8.10742865 -4.72705868 8.10742865 -2.9375 12.5 C-0.58842125 13.18931344 -0.58842125 13.18931344 2.125 13.625 C3.50365234 13.87636719 3.50365234 13.87636719 4.91015625 14.1328125 C5.97556641 14.31457031 5.97556641 14.31457031 7.0625 14.5 C2.10553461 16.1523218 -2.84331986 15.3730916 -7.9375 14.5 C-11.125 12.875 -11.125 12.875 -12.9375 10.5 C-14 7 -14 7 -13.9375 3.5 C-10.56159279 -1.98584921 -5.72503968 -0.97447484 0 0 Z "
     fill="#CCCBCB"
     transform="translate(154.9375,1187.5)"
     id="path28" />
  <path
     d="M0 0 C0 0.33 0 0.66 0 1 C-1.98 1 -3.96 1 -6 1 C-6 1.66 -6 2.32 -6 3 C-6.99 3 -7.98 3 -9 3 C-9 5.31 -9 7.62 -9 10 C-8.34 10 -7.68 10 -7 10 C-7.33 11.32 -7.66 12.64 -8 14 C-11.37577742 13.3971826 -13.67461607 12.57453221 -16 10 C-16.67435449 6.45037581 -16.62671934 3.25343868 -15 0 C-10.48133521 -2.2593324 -4.7462062 -1.18655155 0 0 Z "
     fill="#CECECE"
     transform="translate(158,1251)"
     id="path29" />
  <path
     d="M0 0 C0.91523438 -0.020625 1.83046875 -0.04125 2.7734375 -0.0625 C3.65257812 -0.06765625 4.53171875 -0.0728125 5.4375 -0.078125 C6.24058594 -0.0874707 7.04367188 -0.09681641 7.87109375 -0.10644531 C10.47918624 0.33023072 11.34979556 1.24030568 13 3.25 C4.48898758 5.97352397 -5.73443772 7.17263973 -14 3.25 C-11.69730949 -1.35538102 -4.48047694 0.02524212 0 0 Z "
     fill="#0E0E0E"
     transform="translate(192,1322.75)"
     id="path30" />
  <path
     d="M0 0 C-0.99 1.32 -1.98 2.64 -3 4 C-2.505 4.99 -2.505 4.99 -2 6 C-8.27 6 -14.54 6 -21 6 C-21 5.67 -21 5.34 -21 5 C-16.545 4.505 -16.545 4.505 -12 4 C-27.84 3.67 -43.68 3.34 -60 3 C-60 2.67 -60 2.34 -60 2 C-59.04826401 1.9845388 -59.04826401 1.9845388 -58.07730103 1.96876526 C-51.49153038 1.86083865 -44.90590041 1.74622965 -38.3203125 1.62768555 C-35.86038141 1.58429221 -33.40041935 1.54262044 -30.94042969 1.50268555 C-27.41071216 1.44508943 -23.88115124 1.38136443 -20.3515625 1.31640625 C-19.24632233 1.29969376 -18.14108215 1.28298126 -17.00234985 1.26576233 C-15.98144257 1.24581711 -14.96053528 1.22587189 -13.90869141 1.20532227 C-13.00712311 1.18977798 -12.10555481 1.1742337 -11.17666626 1.15821838 C-7.32598745 0.87831871 -4.09593685 -0.07585068 0 0 Z "
     fill="#BBB9B9"
     transform="translate(241,1187)"
     id="path31" />
  <path
     d="M0 0 C-0.33 0.33 -0.66 0.66 -1 1 C-0.01 1.33 0.98 1.66 2 2 C2 2.66 2 3.32 2 4 C-10.375 4.99 -10.375 4.99 -23 6 C-22.34 5.67 -21.68 5.34 -21 5 C-21 4.34 -21 3.68 -21 3 C-24.96 3 -28.92 3 -33 3 C-33 2.67 -33 2.34 -33 2 C-31.27716797 1.92652344 -31.27716797 1.92652344 -29.51953125 1.8515625 C-21.02459858 1.45359178 -12.78051446 0.84842817 -4.40625 -0.6953125 C-2 -1 -2 -1 0 0 Z "
     fill="#20201F"
     transform="translate(238,1236)"
     id="path32" />
  <path
     d="M0 0 C6.41852 -0.3424902 10.21030051 0.10515026 16 3 C19.34922986 3.25802224 22.64792253 3.17886579 26 3 C26 3.66 26 4.32 26 5 C17.75 5 9.5 5 1 5 C0.67 3.35 0.34 1.7 0 0 Z "
     fill="#EFEFEE"
     transform="translate(146,1240)"
     id="path33" />
  <path
     d="M0 0 C0.78375 0.04125 1.5675 0.0825 2.375 0.125 C2.045 1.115 1.715 2.105 1.375 3.125 C1.30562938 5.35318441 1.29042916 7.58334524 1.3125 9.8125 C1.32152344 10.99199219 1.33054688 12.17148438 1.33984375 13.38671875 C1.35144531 14.29035156 1.36304688 15.19398437 1.375 16.125 C-0.546875 15.75390625 -0.546875 15.75390625 -2.625 15.125 C-5.15632596 10.94831217 -4.93516011 6.85494174 -4.625 2.125 C-2.625 0.125 -2.625 0.125 0 0 Z "
     fill="#040403"
     transform="translate(152.625,1218.875)"
     id="path34" />
  <path
     d="M0 0 C8.38011029 -0.15392039 16.64895793 0.31728707 25 1 C25 1.33 25 1.66 25 2 C21.7 2 18.4 2 15 2 C15 2.66 15 3.32 15 4 C17.97 4.495 17.97 4.495 21 5 C16.78080897 6.25180279 13.03911435 5.67252421 8.75 5.0625 C8.00492188 4.96259766 7.25984375 4.86269531 6.4921875 4.75976562 C4.66054558 4.51319844 2.83013749 4.25749609 1 4 C0.67 2.68 0.34 1.36 0 0 Z "
     fill="#D7D6D3"
     transform="translate(145,1208)"
     id="path35" />
  <path
     d="M0 0 C8.25 0 16.5 0 25 0 C24 2 24 2 22.24902344 2.61889648 C19.79286971 3.03509883 17.50680692 3.11284638 15.015625 3.09765625 C14.08105469 3.09443359 13.14648438 3.09121094 12.18359375 3.08789062 C11.21550781 3.07951172 10.24742187 3.07113281 9.25 3.0625 C8.26644531 3.05798828 7.28289062 3.05347656 6.26953125 3.04882812 C3.84629209 3.03706483 1.42317727 3.02062684 -1 3 C-0.67 2.01 -0.34 1.02 0 0 Z "
     fill="#F9F9F8"
     transform="translate(196,1211)"
     id="path36" />
  <path
     d="M0 0 C4.875 0.875 4.875 0.875 6 2 C6.16796875 3.9609375 6.16796875 3.9609375 6.1875 6.375 C6.20167969 7.16648437 6.21585938 7.95796875 6.23046875 8.7734375 C6 11 6 11 4 14 C1.375 14.1875 1.375 14.1875 -1 14 C-0.67 13.01 -0.34 12.02 0 11 C0.0685495 9.10529184 0.08480372 7.2083166 0.0625 5.3125 C0.05347656 4.31863281 0.04445312 3.32476563 0.03515625 2.30078125 C0.02355469 1.54152344 0.01195312 0.78226563 0 0 Z "
     fill="#1B1B1B"
     transform="translate(231,1220)"
     id="path37" />
  <path
     d="M0 0 C0.02720824 2.68756955 0.0469388 5.37485798 0.0625 8.0625 C0.07087891 8.81466797 0.07925781 9.56683594 0.08789062 10.34179688 C0.10808341 15.00633118 -0.22404041 19.39923173 -1 24 C-1.33 24 -1.66 24 -2 24 C-2 16.74 -2 9.48 -2 2 C-4.31 2 -6.62 2 -9 2 C-9 2.66 -9 3.32 -9 4 C-7.68 4.33 -6.36 4.66 -5 5 C-7.31 5.33 -9.62 5.66 -12 6 C-12 5.01 -12 4.02 -12 3 C-15.96 3 -19.92 3 -24 3 C-24 2.67 -24 2.34 -24 2 C-20.93796326 1.66231828 -17.87530542 1.33063107 -14.8125 1 C-13.51602539 0.85691406 -13.51602539 0.85691406 -12.19335938 0.7109375 C-8.11207075 0.27309811 -4.11211498 -0.13621913 0 0 Z "
     fill="#929293"
     transform="translate(238,1273)"
     id="path38" />
  <path
     d="M0 0 C6.95041086 -0.26618595 13.23514355 0.3879491 20 2 C16.34606463 3.26823485 13.50929974 2.75715321 9.75 2.0625 C8.67234375 1.86785156 7.5946875 1.67320313 6.484375 1.47265625 C5.66453125 1.31667969 4.8446875 1.16070313 4 1 C4 1.66 4 2.32 4 3 C6.97 3.495 6.97 3.495 10 4 C10 4.33 10 4.66 10 5 C8.02 5 6.04 5 4 5 C4.165 6.093125 4.33 7.18625 4.5 8.3125 C5.16622112 13.53905159 5.08701543 18.7404008 5 24 C4.67 24 4.34 24 4 24 C3.81824219 22.40671875 3.81824219 22.40671875 3.6328125 20.78125 C2.80431481 13.7265172 1.99472803 6.83906752 0 0 Z "
     fill="#ABACAF"
     transform="translate(147,1273)"
     id="path39" />
  <path
     d="M0 0 C-0.33 1.65 -0.66 3.3 -1 5 C-5.29 5 -9.58 5 -14 5 C-13.67 3.68 -13.34 2.36 -13 1 C-8.59085217 -0.10228696 -4.51617599 -0.07654536 0 0 Z "
     fill="#E2E1DF"
     transform="translate(240,1207)"
     id="path40" />
  <path
     d="M0 0 C1.98 0 3.96 0 6 0 C6.01981934 0.83136475 6.03963867 1.66272949 6.06005859 2.51928711 C6.13880532 5.64501012 6.22551574 8.77038913 6.31738281 11.89575195 C6.37386098 13.89713729 6.42139768 15.89876858 6.46875 17.90039062 C6.67941402 24.86985875 7.18041844 31.2616309 9 38 C6.1324997 35.30165 4.5502816 32.64316175 3 29 C3.33 28.34 3.66 27.68 4 27 C4.15378852 25.04225931 4.24971463 23.07982648 4.31640625 21.1171875 C4.35830078 19.95058594 4.40019531 18.78398438 4.44335938 17.58203125 C4.50233398 15.74705078 4.50233398 15.74705078 4.5625 13.875 C4.62727539 12.02841797 4.62727539 12.02841797 4.69335938 10.14453125 C4.79968704 7.09647147 4.90171781 4.0483281 5 1 C3.35 1 1.7 1 0 1 C0 0.67 0 0.34 0 0 Z "
     fill="#585757"
     transform="translate(151,1278)"
     id="path41" />
  <path
     d="M0 0 C0.91523438 -0.020625 1.83046875 -0.04125 2.7734375 -0.0625 C3.65257812 -0.06765625 4.53171875 -0.0728125 5.4375 -0.078125 C6.24058594 -0.0874707 7.04367188 -0.09681641 7.87109375 -0.10644531 C10.47918624 0.33023072 11.34979556 1.24030568 13 3.25 C11.35 3.58 9.7 3.91 8 4.25 C7.67 3.59 7.34 2.93 7 2.25 C4.87506859 2.22306425 2.75004088 2.20363372 0.625 2.1875 C-1.15003906 2.17009766 -1.15003906 2.17009766 -2.9609375 2.15234375 C-5.91921521 2.03533407 -5.91921521 2.03533407 -8 3.25 C-7.67 3.91 -7.34 4.57 -7 5.25 C-9.31 4.59 -11.62 3.93 -14 3.25 C-11.69730949 -1.35538102 -4.48047694 0.02524212 0 0 Z "
     fill="#404040"
     transform="translate(192,1322.75)"
     id="path42" />
  <path
     d="M0 0 C0.33 0.66 0.66 1.32 1 2 C4.04581269 2.46954261 4.04581269 2.46954261 7.5625 2.625 C8.76003906 2.69976563 9.95757812 2.77453125 11.19140625 2.8515625 C12.11824219 2.90054687 13.04507813 2.94953125 14 3 C14 3.33 14 3.66 14 4 C11.31243045 4.02720824 8.62514202 4.0469388 5.9375 4.0625 C5.18533203 4.07087891 4.43316406 4.07925781 3.65820312 4.08789062 C-0.99786818 4.10804678 -5.43082922 3.94473102 -10 3 C-10.33 2.34 -10.66 1.68 -11 1 C-7.32589215 -0.17571451 -3.83070817 -0.07366746 0 0 Z "
     fill="#414040"
     transform="translate(213,1258)"
     id="path43" />
  <path
     d="M0 0 C0.2475 0.61875 0.495 1.2375 0.75 1.875 C2.20628639 4.35068687 3.37812506 4.95125002 6 6 C6.33 5.01 6.66 4.02 7 3 C7 4.32 7 5.64 7 7 C12.94 7 18.88 7 25 7 C25 7.33 25 7.66 25 8 C21.02084841 8.02886984 17.04172347 8.04675406 13.0625 8.0625 C11.35803711 8.07506836 11.35803711 8.07506836 9.61914062 8.08789062 C8.53955078 8.09111328 7.45996094 8.09433594 6.34765625 8.09765625 C4.84730835 8.10551147 4.84730835 8.10551147 3.31665039 8.11352539 C1 8 1 8 0 7 C-0.04092937 4.66702567 -0.04241723 2.33294775 0 0 Z "
     fill="#CBCBCB"
     transform="translate(148,1229)"
     id="path44" />
  <path
     d="M0 0 C5.61 0 11.22 0 17 0 C15.02 0.99 15.02 0.99 13 2 C12.67 2.33 12.34 2.66 12 3 C9.98035801 3.07244053 7.95832876 3.08377188 5.9375 3.0625 C4.83277344 3.05347656 3.72804687 3.04445313 2.58984375 3.03515625 C1.30787109 3.01775391 1.30787109 3.01775391 0 3 C0 2.01 0 1.02 0 0 Z "
     fill="#F8F8F7"
     transform="translate(197,1255)"
     id="path45" />
  <path
     d="M0 0 C0.66 0 1.32 0 2 0 C2.29296875 6.0546875 2.29296875 6.0546875 2 8 C1.01 8.66 0.02 9.32 -1 10 C-1 9.34 -1 8.68 -1 8 C-1.825 8.165 -2.65 8.33 -3.5 8.5 C-7.41272317 9.05896045 -11.05183173 9.06807187 -15 9 C-15 8.67 -15 8.34 -15 8 C-10.71 7.34 -6.42 6.68 -2 6 C-1.34 4.02 -0.68 2.04 0 0 Z "
     fill="#B9B7B7"
     transform="translate(242,1253)"
     id="path46" />
  <path
     d="M0 0 C2.125 0.375 2.125 0.375 4 1 C3.67 1.33 3.34 1.66 3 2 C2.92820036 3.51928038 2.91607993 5.04167482 2.9375 6.5625 C2.94652344 7.38878906 2.95554688 8.21507812 2.96484375 9.06640625 C2.97644531 9.70449219 2.98804688 10.34257813 3 11 C1.0546875 10.21875 1.0546875 10.21875 -1 9 C-1.875 5.5 -1.875 5.5 -2 2 C-1.34 1.34 -0.68 0.68 0 0 Z "
     fill="#2A2A29"
     transform="translate(147,1252)"
     id="path47" />
  <path
     d="M0 0 C3.63 0 7.26 0 11 0 C10.01 0.33 9.02 0.66 8 1 C8 1.66 8 2.32 8 3 C8.66 3.33 9.32 3.66 10 4 C7.03 4 4.06 4 1 4 C0.67 2.68 0.34 1.36 0 0 Z "
     fill="#E3E0DE"
     transform="translate(145,1208)"
     id="path48" />
  <path
     d="M0 0 C0.99 0 1.98 0 3 0 C2.96744792 1.98567708 2.93489583 3.97135417 2.90234375 5.95703125 C2.91736783 8.20305461 2.91736783 8.20305461 4 11 C0.125 10.125 0.125 10.125 -1 9 C-1.1328125 7.1875 -1.1328125 7.1875 -1.125 5 C-1.12757813 4.278125 -1.13015625 3.55625 -1.1328125 2.8125 C-1 1 -1 1 0 0 Z "
     fill="#1B1A19"
     transform="translate(147,1189)"
     id="path49" />
  <path
     d="M0 0 C-0.33 0.99 -0.66 1.98 -1 3 C-5.62 3 -10.24 3 -15 3 C-15 2.34 -15 1.68 -15 1 C-9.9752761 0.37470103 -5.07471573 -0.13012092 0 0 Z "
     fill="#F7F6F5"
     transform="translate(241,1261)"
     id="path50" />
  <path
     d="M0 0 C-0.33 0.33 -0.66 0.66 -1 1 C-0.01 1.33 0.98 1.66 2 2 C1.67 2.66 1.34 3.32 1 4 C-2.96 3.67 -6.92 3.34 -11 3 C-10.67 2.01 -10.34 1.02 -10 0 C-2.25 -1.125 -2.25 -1.125 0 0 Z "
     fill="#181718"
     transform="translate(238,1236)"
     id="path51" />
  <path
     d="M0 0 C0.95310059 0.05236816 1.90620117 0.10473633 2.88818359 0.15869141 C3.91943359 0.21025391 4.95068359 0.26181641 6.01318359 0.31494141 C7.63353516 0.41162109 7.63353516 0.41162109 9.28662109 0.51025391 C10.37458984 0.56697266 11.46255859 0.62369141 12.58349609 0.68212891 C15.27684496 0.82388411 17.96930039 0.97532032 20.66162109 1.13525391 C20.66162109 1.46525391 20.66162109 1.79525391 20.66162109 2.13525391 C16.87035511 2.33153805 13.07859937 2.51579286 9.28662109 2.69775391 C8.20638672 2.75382812 7.12615234 2.80990234 6.01318359 2.86767578 C4.98193359 2.91601562 3.95068359 2.96435547 2.88818359 3.01416016 C1.93508301 3.0612915 0.98198242 3.10842285 0 3.15698242 C-2.33837891 3.13525391 -2.33837891 3.13525391 -4.33837891 2.13525391 C-2.33837891 0.13525391 -2.33837891 0.13525391 0 0 Z "
     fill="#BEBDBC"
     transform="translate(149.33837890625,1216.86474609375)"
     id="path52" />
  <path
     d="M0 0 C2.97 0 5.94 0 9 0 C8.67 0.99 8.34 1.98 8 3 C8.99 3.33 9.98 3.66 11 4 C1.58997722 6.29612756 1.58997722 6.29612756 -3 6 C-0.66785852 4.79371992 1.49642139 3.8345262 4 3 C2.68 2.01 1.36 1.02 0 0 Z "
     fill="#383736"
     transform="translate(225,1213)"
     id="path53" />
  <path
     d="M0 0 C0.33 0 0.66 0 1 0 C1.33 2.97 1.66 5.94 2 9 C1.34 9 0.68 9 0 9 C-0.33 10.32 -0.66 11.64 -1 13 C-1.66 9.7 -2.32 6.4 -3 3 C-2.01 3.495 -2.01 3.495 -1 4 C-0.67 2.68 -0.34 1.36 0 0 Z "
     fill="#BFC0C1"
     transform="translate(152,1298)"
     id="path54" />
  <path
     d="M0 0 C5.20833333 0.52083333 10.41666667 1.04166667 15.625 1.5625 C16.46289062 1.64628906 17.30078125 1.73007813 18.1640625 1.81640625 C18.76992187 1.87699219 19.37578125 1.93757813 20 2 C20 2.33 20 2.66 20 3 C17.60385874 3.05425226 15.20896147 3.09379027 12.8125 3.125 C11.80219727 3.15013672 11.80219727 3.15013672 10.77148438 3.17578125 C6.71192193 3.21538674 3.65001185 2.80020002 0 1 C0 0.67 0 0.34 0 0 Z "
     fill="#3A3A3A"
     transform="translate(149,1265)"
     id="path55" />
  <path
     d="M0 0 C1.32 0 2.64 0 4 0 C4 0.66 4 1.32 4 2 C7.96 2 11.92 2 16 2 C16 2.33 16 2.66 16 3 C10.06 3.33 4.12 3.66 -2 4 C-1.01 3.34 -0.02 2.68 1 2 C0.67 1.34 0.34 0.68 0 0 Z "
     fill="#383737"
     transform="translate(223,1237)"
     id="path56" />
  <path
     d="M0 0 C0.78375 0.28875 1.5675 0.5775 2.375 0.875 C6.8622758 2.26760284 11.385279 3.14271981 16 4 C12.63250359 5.1224988 10.45778825 4.97408483 6.9375 4.6875 C5.87402344 4.60886719 4.81054688 4.53023437 3.71484375 4.44921875 C1 4 1 4 -1 2 C-0.67 1.34 -0.34 0.68 0 0 Z "
     fill="#9E9A9B"
     transform="translate(146,1198)"
     id="path57" />
  <path
     d="M0 0 C0.66 1.32 1.32 2.64 2 4 C-1.21451269 5.60725635 -4.43612536 5.05748185 -8 5 C-7.67 3.68 -7.34 2.36 -7 1 C-6.67 1.66 -6.34 2.32 -6 3 C-4.35 3 -2.7 3 -1 3 C-0.67 2.01 -0.34 1.02 0 0 Z "
     fill="#BCBBBB"
     transform="translate(236,1231)"
     id="path58" />
  <path
     d="M0 0 C0.33 0 0.66 0 1 0 C1.33 3.96 1.66 7.92 2 12 C0.68 11.67 -0.64 11.34 -2 11 C-2.33 9.68 -2.66 8.36 -3 7 C-2.67 7.66 -2.34 8.32 -2 9 C-1.34 9 -0.68 9 0 9 C0 6.03 0 3.06 0 0 Z "
     fill="#3C3D3C"
     transform="translate(152,1223)"
     id="path59" />
  <path
     d="M0 0 C2.97 0.33 5.94 0.66 9 1 C7.515 2.485 7.515 2.485 6 4 C2.3125 3.6875 2.3125 3.6875 -1 3 C-0.67 2.01 -0.34 1.02 0 0 Z "
     fill="#F6F7F8"
     transform="translate(151,1274)"
     id="path60" />
  <path
     d="M0 0 C2.97 0 5.94 0 9 0 C9 0.99 9 1.98 9 3 C5.7 2.67 2.4 2.34 -1 2 C-0.67 1.34 -0.34 0.68 0 0 Z "
     fill="#F6F5F4"
     transform="translate(233,1252)"
     id="path61" />
  <path
     d="M0 0 C0.78375 0.04125 1.5675 0.0825 2.375 0.125 C2.045 1.115 1.715 2.105 1.375 3.125 C0.055 3.125 -1.265 3.125 -2.625 3.125 C-2.955 5.435 -3.285 7.745 -3.625 10.125 C-3.955 10.125 -4.285 10.125 -4.625 10.125 C-4.8203125 4.0703125 -4.8203125 4.0703125 -4.625 2.125 C-2.625 0.125 -2.625 0.125 0 0 Z "
     fill="#4F4E4C"
     transform="translate(152.625,1218.875)"
     id="path62" />
  <path
     d="M0 0 C-1.875 3.875 -1.875 3.875 -3 5 C-3.36760731 7.32817964 -3.70241581 9.6618385 -4 12 C-4.33 12 -4.66 12 -5 12 C-5.08131463 10.56344146 -5.13933559 9.1255517 -5.1875 7.6875 C-5.22230469 6.88699219 -5.25710937 6.08648438 -5.29296875 5.26171875 C-5 3 -5 3 -3.61328125 1.20703125 C-2 0 -2 0 0 0 Z "
     fill="#DDDDDC"
     transform="translate(158,1219)"
     id="path63" />
  <path
     d="M0 0 C4.16138263 -0.08159574 7.9472484 0.01751476 12 1 C12 1.33 12 1.66 12 2 C10.02 2 8.04 2 6 2 C5.67 2.66 5.34 3.32 5 4 C4.67 3.34 4.34 2.68 4 2 C1.98330173 0.86649466 1.98330173 0.86649466 0 0 Z "
     fill="#868585"
     transform="translate(145,1187)"
     id="path64" />
</svg>
