<svg xmlns="http://www.w3.org/2000/svg" width="864" height="1184" viewBox="0 0 864 1184" version="1.1">
	<path d="M 396 71.096 C 375.752 72.300, 353.696 75.548, 349.096 78.003 C 345.337 80.008, 359.996 84.711, 378.500 87.435 C 384 88.245, 396.231 89.407, 405.680 90.018 C 436.572 92.014, 517.185 87.354, 524.723 83.135 C 526.932 81.899, 509.216 76.345, 495.688 74.032 C 473.407 70.223, 431.457 68.987, 396 71.096 M 339.942 81.281 C 335.546 84.023, 331.937 86.958, 330.109 89.279 C 328.900 90.814, 328.920 90.968, 330.262 90.453 C 331.111 90.127, 333.734 90.844, 336.091 92.046 C 342.252 95.190, 360.433 99.546, 375.450 101.478 C 389.567 103.294, 391.193 103.838, 393.639 107.571 C 395.275 110.069, 395.197 115.921, 393.408 124.750 C 392.753 127.983, 392.771 128, 396.735 128 L 400.720 128 401.288 122.494 C 402.020 115.408, 405.405 109.358, 410.730 105.619 C 415.702 102.128, 417.875 101.886, 465.500 99.500 C 482 98.674, 504.776 97.246, 516.114 96.328 C 536.353 94.688, 536.790 94.693, 540.114 96.618 C 541.976 97.696, 545.018 100.810, 546.873 103.539 C 550.158 108.371, 550.372 107.327, 547.497 100.500 C 545.788 96.441, 540.073 90.016, 535.120 86.583 C 531.072 83.778, 531.028 83.772, 526.900 85.423 C 514.654 90.323, 443.714 94.738, 406.989 92.886 C 375.323 91.289, 348.381 85.764, 346.342 80.448 C 345.586 78.478, 344.134 78.667, 339.942 81.281 M 327.202 96.422 C 324.134 99.916, 322.016 105.371, 322.006 109.805 C 321.998 112.906, 328.822 115.970, 344.500 119.903 C 355.455 122.652, 381.765 127, 387.441 127 C 390.324 127, 390.739 125.973, 391.567 116.785 C 392.141 110.424, 391.988 109.297, 390.362 107.901 C 389.153 106.864, 382.451 105.388, 371.264 103.697 C 356.338 101.441, 343.254 98.065, 331.898 93.538 C 330.824 93.110, 329.275 94.061, 327.202 96.422 M 518 99.071 C 508.042 100.132, 482.987 101.703, 447.358 103.499 C 431.329 104.307, 416.929 105.455, 415.358 106.050 C 408.950 108.478, 404.062 116.082, 404.022 123.683 C 404.005 126.820, 404.437 127.991, 405.750 128.368 C 406.712 128.644, 417.400 129.167, 429.500 129.529 C 471.210 130.779, 519.835 126.737, 545.349 119.901 C 549.123 118.890, 549.185 118.797, 548.515 115.185 C 547.621 110.363, 543.219 102.317, 540.156 99.908 C 537.491 97.812, 531.823 97.598, 518 99.071 M 321 134.313 C 321 181.444, 327.211 227.629, 339.156 269.323 C 344.422 287.702, 353.811 312.898, 365.864 340.995 L 375.513 363.489 382.007 365.848 C 400.112 372.424, 431.092 375.838, 456.366 374.043 C 469.757 373.092, 482.951 371.063, 488.076 369.168 C 490.292 368.348, 502.240 344.016, 510.993 322.500 C 515.686 310.966, 530 270.866, 530 269.256 C 530 268.914, 527.638 272.651, 524.750 277.560 C 517.244 290.322, 504.850 302.749, 494.965 307.427 C 480.663 314.194, 466.716 314.070, 452.500 307.051 C 428.447 295.174, 412.654 267.651, 405.134 224.500 C 401.867 205.755, 400.954 193.802, 400.314 161.351 L 399.718 131.203 393.109 130.559 C 361.758 127.502, 339.080 122.664, 322.750 115.549 C 321.117 114.837, 321 116.092, 321 134.313 M 538.500 124.626 C 513.439 130.579, 473.929 133.548, 431.250 132.687 L 403 132.117 403 154.859 C 403 226.231, 414.400 270.150, 439.173 294.217 C 455.316 309.899, 475.102 313.706, 494 304.766 C 508.814 297.758, 526.748 273.831, 534.439 250.812 C 539.421 235.902, 544.939 206.404, 547.499 181 C 549.391 162.229, 550.697 121.947, 549.408 122.125 C 548.909 122.194, 544 123.319, 538.500 124.626 M 377.328 372.707 C 377.322 379.432, 375.572 383.377, 370.342 388.456 C 364.188 394.433, 357.416 396.871, 324.281 405.038 C 288.212 413.928, 267.800 420.214, 256.277 425.982 C 236.304 435.978, 221.662 457.249, 219.122 479.959 C 218.603 484.591, 218.637 547.002, 219.203 630.192 C 219.736 708.461, 219.888 787.800, 219.542 806.500 C 219.196 825.200, 218.853 889.775, 218.781 950 L 218.649 1059.500 220.804 1064.330 C 224.841 1073.380, 231.004 1079.443, 244.500 1087.639 L 249.500 1090.675 249.077 1074.088 C 247.821 1024.888, 247.836 1022.899, 249.477 1020.395 C 251.477 1017.342, 254.041 1017.351, 256.926 1020.422 L 259.201 1022.843 258.851 1056.172 C 258.501 1089.426, 258.505 1089.508, 260.782 1093.170 C 262.586 1096.071, 264.626 1097.490, 270.519 1099.944 C 278.003 1103.059, 294.336 1109, 295.418 1109 C 295.736 1109, 294.437 1106.830, 292.532 1104.177 C 285.415 1094.271, 285.797 1105.480, 286.530 928 C 287.232 758.149, 287.136 761.262, 292.011 750.241 C 296.512 740.066, 305.335 730.117, 315.106 724.199 C 320.492 720.937, 344.013 711.710, 358.629 707.125 C 394.732 695.800, 429.081 688.965, 470.500 684.862 C 487.482 683.181, 540.572 683.166, 557.500 684.839 C 570.533 686.127, 596.750 690.236, 600.500 691.578 C 605.688 693.436, 599.491 689.901, 589.500 685.305 C 569.528 676.118, 555.301 670.966, 540.305 667.491 C 525.802 664.131, 498.133 659.804, 482.750 658.491 L 475 657.829 475 663.842 C 475 669.148, 474.690 670.099, 472.362 671.930 C 460.498 681.262, 416.135 682.403, 396.228 673.888 C 389.089 670.834, 387 668.443, 387 663.326 C 387 659.471, 386.748 659, 384.686 659 C 380.865 659, 360.431 661.847, 345.343 664.481 C 332.218 666.772, 297.041 675.238, 294.743 676.659 C 294.097 677.058, 293.911 683.433, 294.226 694.391 C 294.776 713.575, 295.680 717.076, 301.500 722.565 L 304.987 725.853 299.226 731.677 C 293.314 737.652, 288.163 746.215, 285.930 753.778 C 285.235 756.131, 284.179 757.896, 283.583 757.701 C 281.841 757.130, 278.075 751.004, 277.066 747.099 C 276.252 743.950, 274.091 594.170, 273.832 523 C 273.749 500.054, 273.950 496.719, 275.841 489.704 C 281.512 468.660, 293.409 454.351, 312.732 445.332 C 316.710 443.475, 333.810 437.960, 350.732 433.076 C 367.654 428.191, 384.549 422.974, 388.275 421.481 C 402.213 415.898, 412.017 407.574, 416.698 397.349 C 419.426 391.391, 421.398 377.006, 419.557 376.497 C 418.976 376.337, 413.610 375.454, 407.633 374.536 C 398.413 373.120, 384.723 369.779, 378.917 367.528 C 377.584 367.011, 377.333 367.831, 377.328 372.707 M 481.148 373.526 C 472.286 375.686, 452.376 377.185, 437.248 376.833 L 422.997 376.500 422.998 380.114 C 423.006 396.340, 414.092 410.867, 399 419.225 C 390.372 424.003, 380.292 427.440, 348.264 436.526 C 314.186 446.193, 305.854 450.003, 295.079 460.851 C 286.489 469.498, 282.210 476.777, 278.806 488.535 C 276.513 496.456, 276.502 496.786, 276.778 548 C 276.931 576.325, 277.444 632.350, 277.918 672.500 C 278.710 739.599, 278.925 745.803, 280.575 749.250 C 282.378 753.017, 284 754.158, 284 751.660 C 284 748.577, 290.603 737.463, 295.713 731.943 L 301.211 726.005 298.216 722.594 C 291.989 715.501, 292.175 718.580, 291.843 617 C 291.542 524.736, 291.547 524.486, 293.667 518.894 C 298.065 507.296, 305.471 498.671, 315.636 493.305 C 326.654 487.489, 358.215 478.600, 378.743 475.531 C 394.336 473.200, 404.184 473.540, 419.372 476.932 C 438.963 481.308, 448.676 482.344, 464 481.689 C 479.140 481.043, 483.750 479.962, 507.706 471.443 C 525.631 465.067, 536.256 463, 551.093 463 C 562.542 463, 588.855 465.996, 599.914 468.559 C 614.025 471.829, 623.108 478.382, 628.322 489.054 C 633.170 498.979, 633.292 501.573, 632.031 568 C 629.782 686.524, 629.689 688.011, 624.001 695.999 L 621.959 698.866 626.549 702.683 C 629.074 704.782, 632.885 709.104, 635.018 712.286 L 638.896 718.072 639.410 714.786 C 640.241 709.479, 644.653 567.854, 645.587 516.500 C 646.124 486.982, 645.973 479.988, 644.626 471.849 C 641.822 454.910, 634.785 438.539, 627.700 432.475 C 620.064 425.939, 613.869 424.704, 560 418.978 C 530.673 415.860, 520.602 413.859, 511.808 409.403 C 505.127 406.017, 497.367 398.658, 494.488 392.977 C 491.362 386.808, 488.700 377.348, 489.263 374.405 C 489.794 371.627, 489.201 371.563, 481.148 373.526 M 495 388.967 C 495 390.248, 501.091 398.409, 503.847 400.822 C 514.847 410.451, 521.163 412.088, 566 416.924 C 605.437 421.178, 613.291 422.312, 619 424.577 C 622.334 425.899, 622.232 425.717, 616.858 420.733 C 609.927 414.304, 597.841 407.059, 588.463 403.710 C 578.729 400.234, 535.137 393.319, 511 391.423 C 506.325 391.055, 500.813 390.188, 498.750 389.494 C 496.688 388.801, 495 388.564, 495 388.967 M 564.414 468.512 C 564.982 470.778, 562.847 610.997, 561.587 654.095 L 561.102 670.690 573.301 675.518 C 580.010 678.173, 593.270 684.273, 602.766 689.073 L 620.033 697.800 622.460 693.650 C 623.795 691.368, 625.356 687.398, 625.930 684.829 C 627.203 679.129, 629.032 601.364, 629.302 541.500 L 629.500 497.500 626.840 491.825 C 623.138 483.929, 617.169 477.798, 610.090 474.621 C 604.546 472.133, 584.982 468.249, 569.636 466.590 L 563.772 465.956 564.414 468.512 M 393.888 476.802 L 390.276 477.104 389.535 570.440 C 389.128 621.775, 389.099 664.735, 389.471 665.908 C 390.435 668.945, 398.309 672.603, 408.315 674.663 C 413.038 675.635, 417.088 676.221, 417.315 675.965 C 417.542 675.709, 417.988 631.334, 418.306 577.352 L 418.884 479.205 412.692 478.133 C 405.282 476.850, 398.800 476.391, 393.888 476.802 M 421.627 486.177 C 421.325 489.654, 420.837 534.075, 420.541 584.888 L 420.004 677.276 436.752 676.702 C 458.683 675.950, 471.425 672.712, 472.452 667.631 C 472.689 666.459, 473.091 624.775, 473.345 575 L 473.806 484.500 458.653 484.432 C 445.171 484.371, 429.207 482.552, 423.736 480.452 C 422.454 479.960, 422.077 480.982, 421.627 486.177 M 472 687.603 C 441.387 690.307, 413.310 695.030, 386.243 702.031 C 356.797 709.647, 324.652 721.192, 314.365 727.845 C 306.482 732.945, 299.409 741.008, 295.342 749.529 C 288.903 763.021, 289.037 760.563, 289.017 866.316 C 289.006 929.467, 289.347 962.780, 290.018 964.034 C 291.455 966.718, 298.758 970.778, 303.520 971.539 C 308.669 972.363, 324.994 970.356, 520 944.925 C 553.825 940.514, 590.275 935.776, 601 934.397 C 625.075 931.301, 629.560 930.101, 634.321 925.477 C 641.210 918.786, 640.742 925.759, 641.139 824 L 641.500 731.500 638.107 723.630 C 631.372 708.009, 620.562 698.942, 604.055 695.067 C 577.486 688.829, 548.157 685.964, 512.500 686.123 C 498.750 686.184, 480.525 686.850, 472 687.603 M 482.500 711.614 C 433.447 714.745, 390.738 723.662, 351.231 739.022 C 340.272 743.283, 337.017 745.046, 332.526 749.151 C 326.524 754.636, 322.515 761.795, 321.129 769.500 C 320.610 772.382, 320.500 807.537, 320.867 852.500 C 321.491 928.762, 321.552 930.601, 323.591 935.011 C 327.904 944.342, 339.598 951.998, 349.540 951.999 C 354.539 952, 438.115 942.037, 538.955 929.419 C 567.805 925.809, 592.932 922.220, 594.793 921.442 C 601.060 918.824, 605.804 914.143, 609.215 907.214 L 612.500 900.542 612.500 821.521 L 612.500 742.500 610.137 737.273 C 607.376 731.166, 601.269 725.184, 594.077 721.539 C 588.575 718.751, 575.155 716.181, 552 713.482 C 539.091 711.977, 495.265 710.799, 482.500 711.614 M 440 718.508 C 411.281 722.842, 385.694 729.117, 362.494 737.515 C 337.288 746.641, 331.445 750.553, 326.148 761.852 L 323.500 767.500 323.500 848 L 323.500 928.500 326.195 934.250 C 327.677 937.413, 329.114 940, 329.388 940 C 329.663 940, 328.901 937.862, 327.696 935.250 L 325.505 930.500 325.814 852 C 326.153 766.148, 326.041 767.811, 332.090 758.677 C 336.763 751.622, 342.666 747.686, 356.820 742.183 C 388.118 730.016, 424.831 720.921, 458 717.119 C 464.330 716.394, 464.720 716.252, 460.500 716.214 C 457.750 716.189, 448.525 717.221, 440 718.508 M 503 716.665 C 462.715 718.026, 426.620 723.363, 392.356 733.026 C 375.906 737.665, 350.572 746.889, 344.490 750.453 C 338.990 753.676, 334.329 759.072, 331.101 765.954 L 328.500 771.500 328.500 851 L 328.500 930.500 330.870 935.742 C 333.727 942.064, 339.478 947.513, 344.805 948.947 C 348.047 949.821, 360.781 948.534, 418.612 941.489 C 559.290 924.352, 586.605 920.869, 591.791 919.409 C 598.205 917.604, 603.669 912.915, 607.033 906.330 L 609.500 901.500 609.500 821.500 L 609.500 741.500 606.396 736 C 602.007 728.222, 597.557 725.439, 585.500 722.932 C 564.775 718.622, 527.926 715.823, 503 716.665 M 247.422 861.418 C 243.443 863.151, 238.432 869.269, 236.308 874.988 C 235.386 877.469, 233.411 881.313, 231.920 883.528 C 222.997 896.786, 224.667 916.871, 235.535 927.017 C 236.998 928.383, 239.105 931.300, 240.218 933.500 C 241.331 935.700, 243.762 939.376, 245.621 941.668 L 249 945.837 249 978.464 L 249 1011.091 251.455 1013.545 C 254.326 1016.417, 255.297 1016.560, 257.429 1014.429 C 258.792 1013.066, 259 1008.621, 259 980.929 L 259 949 261.250 948.995 C 264.474 948.988, 270.498 945.069, 273.461 941.052 C 284.266 926.408, 283.797 894.686, 272.490 875.393 C 264.908 862.454, 256.196 857.598, 247.422 861.418 M 246.784 864.554 C 244.481 865.804, 239 873.361, 239 875.287 C 239 875.623, 240.674 875.198, 242.720 874.343 C 248.443 871.952, 256.128 872.948, 260.760 876.680 C 269.517 883.736, 273.500 893.528, 273.500 908 C 273.500 916.437, 273.179 918.154, 270.628 923.350 C 266.815 931.115, 261.016 935, 253.238 935 C 250.285 935, 246.960 934.514, 245.849 933.919 C 242.714 932.241, 242.728 933.325, 245.897 937.700 C 252.067 946.217, 260.924 948.583, 267.594 943.496 C 271.878 940.229, 276.628 930.312, 278.103 921.558 C 281.593 900.839, 272.923 873.182, 260.336 864.883 C 256.944 862.646, 250.583 862.492, 246.784 864.554 M 243.007 877.593 C 235.229 880.966, 230.207 889.141, 229.305 899.900 C 227.821 917.607, 238.585 932, 253.312 932 C 260.172 932, 264.483 929.246, 267.843 922.716 C 273 912.694, 271.358 893.558, 264.577 884.668 C 258.249 876.371, 251.175 874.051, 243.007 877.593 M 635.124 928.096 C 632.717 930.240, 628.892 932.498, 626.624 933.112 C 624.356 933.726, 621.938 934.388, 621.250 934.583 C 620.277 934.859, 619.996 943.763, 619.980 974.719 C 619.969 996.598, 619.507 1017.650, 618.953 1021.500 C 617.101 1034.367, 609.955 1045.906, 600.356 1051.532 C 594.801 1054.787, 579.960 1058.599, 548 1064.979 C 491.626 1076.234, 437.570 1082.251, 363 1085.573 C 346.324 1086.316, 340.117 1085.209, 332.090 1080.058 C 326.596 1076.532, 322.917 1071.728, 319.702 1063.878 C 317.571 1058.673, 317.490 1057.140, 317.200 1016.276 L 316.900 974.053 309.200 974.149 C 300.907 974.252, 295.296 972.566, 291.235 968.751 L 288.943 966.597 289.221 1030.628 L 289.500 1094.659 292.521 1099.545 C 296.107 1105.344, 302.464 1110.454, 308.292 1112.223 C 322.452 1116.521, 430.139 1107.482, 508.500 1095.418 C 555.030 1088.255, 602.231 1078.901, 620 1073.321 C 630.448 1070.040, 634.960 1066.086, 637.512 1057.972 C 639.038 1053.120, 639.290 1045.473, 639.730 990.500 C 640.003 956.400, 640.063 927.532, 639.863 926.348 C 639.524 924.338, 639.212 924.453, 635.124 928.096 M 611.250 935.706 L 609 936.139 608.964 968.820 C 608.912 1017.010, 607.899 1024.350, 600.076 1033.260 C 595.736 1038.204, 589.270 1041.061, 571.500 1045.889 C 511.117 1062.295, 456.344 1069.953, 387 1071.683 C 351.911 1072.559, 343.844 1070.711, 337.205 1060.280 C 331.688 1051.612, 331.203 1047.873, 330.490 1008.503 C 330.132 988.704, 329.748 972.415, 329.638 972.304 C 329.527 972.194, 327.201 972.423, 324.468 972.814 L 319.500 973.525 319.825 1014.513 C 320.012 1038.123, 320.585 1057.189, 321.176 1059.483 C 325.036 1074.463, 334.400 1081.998, 350.144 1082.796 C 365.450 1083.572, 425.835 1079.637, 463 1075.442 C 511.371 1069.981, 586.397 1055.983, 597.181 1050.406 C 605.873 1045.912, 613.550 1035.149, 615.875 1024.201 C 616.606 1020.756, 617 1004.225, 617 976.951 C 617 930.779, 617.519 934.498, 611.250 935.706 M 596.750 937.689 C 595.366 938.051, 595 939.235, 595 943.351 C 595 949.503, 593.180 952.582, 588.999 953.500 C 586.022 954.154, 586 954.209, 586 961.030 C 586 968.760, 584.481 977.081, 582.287 981.377 L 580.818 984.253 586.658 983.524 C 593.962 982.611, 597.551 980.787, 600.016 976.734 C 602.537 972.587, 603.077 968.408, 603.308 951.250 L 603.500 936.999 601 937.116 C 599.625 937.180, 597.712 937.438, 596.750 937.689 M 570.065 941.135 C 567.076 941.631, 564.503 942.164, 564.347 942.319 C 564.192 942.475, 564.545 944.166, 565.132 946.079 L 566.199 949.556 574.100 948.636 C 582.426 947.666, 582.830 947.313, 581.025 942.565 C 579.954 939.749, 579.097 939.637, 570.065 941.135 M 557.364 942.805 L 554.229 943.110 555.600 947.667 C 559.179 959.558, 558.258 976.276, 553.441 986.872 L 550.999 992.245 553.249 990.766 C 561.198 985.545, 566.089 968.730, 563.982 953.870 C 562.659 944.542, 561.386 942.414, 557.364 942.805 M 541.500 944.735 C 536.277 945.256, 535.553 946.115, 536.899 950.195 L 538.014 953.573 545.757 952.629 C 550.016 952.110, 553.598 951.621, 553.718 951.542 C 553.837 951.463, 553.424 949.734, 552.800 947.699 C 551.571 943.697, 551.667 943.722, 541.500 944.735 M 528.316 946.697 C 526.198 947.109, 526.174 947.262, 527.531 951.769 C 531.121 963.698, 530.015 981.329, 525.046 991.373 C 523.952 993.583, 523.189 995.523, 523.351 995.684 C 523.512 995.845, 525.110 994.544, 526.902 992.791 C 533.330 986.507, 536.148 977.829, 536.090 964.500 C 536.053 955.880, 533.677 945.915, 531.711 946.136 C 531.045 946.211, 529.517 946.463, 528.316 946.697 M 251 975.933 C 251 1000.359, 251.226 1005, 252.418 1005 C 253.198 1005, 254.436 1005.230, 255.168 1005.512 C 256.263 1005.932, 256.441 1000.904, 256.166 977.262 C 255.983 961.443, 255.758 948.443, 255.666 948.374 C 255.575 948.305, 254.488 947.937, 253.250 947.557 L 251 946.865 251 975.933 M 515.193 948.297 L 507.886 949.203 508.560 952.351 C 509.519 956.824, 509.873 957.176, 512.845 956.623 C 514.305 956.351, 517.687 955.840, 520.359 955.487 C 525.182 954.850, 525.214 954.820, 524.591 951.704 C 524.245 949.976, 523.633 948.299, 523.231 947.977 C 522.829 947.655, 519.212 947.799, 515.193 948.297 M 498.381 950.595 C 497.585 950.940, 497.697 952.297, 498.767 955.290 C 501.248 962.228, 501.490 979.218, 499.226 987.500 C 498.173 991.350, 496.945 995.349, 496.497 996.386 C 494.961 999.940, 498.263 997.558, 501.614 992.695 C 507.284 984.468, 509.397 969.080, 506.654 956 C 505.581 950.885, 505.290 950.486, 502.500 950.306 C 500.850 950.199, 498.996 950.329, 498.381 950.595 M 579.500 950.502 C 578.950 950.692, 575.913 951.139, 572.750 951.495 L 567 952.144 567 958.572 C 567 965.892, 566.372 965.558, 577.853 964.358 L 584 963.715 584 959.983 C 584 951.891, 582.801 949.365, 579.500 950.502 M 481.529 952.657 C 476.045 953.449, 471.214 954.638, 470.794 955.299 C 470.374 955.959, 470.024 960.839, 470.015 966.142 C 469.998 977.312, 471.468 976.089, 455.625 978.115 C 446.381 979.298, 445.664 979.261, 444.411 977.547 C 443.675 976.540, 442.943 975.348, 442.786 974.898 C 442.480 974.022, 426.196 976.143, 424.320 977.302 C 423.703 977.684, 415.166 978.917, 405.349 980.044 C 395.532 981.170, 383 982.774, 377.500 983.608 C 372 984.442, 361.425 985.768, 354 986.554 C 346.575 987.340, 338.813 988.252, 336.750 988.580 L 333 989.176 333 1005.133 L 333 1021.091 336.250 1020.532 C 338.038 1020.225, 356.375 1017.951, 377 1015.480 C 413.401 1011.118, 480.126 1002.527, 486.795 1001.345 C 489.102 1000.936, 490.827 999.677, 492.545 997.148 C 493.895 995.161, 495 993.180, 495 992.744 C 495 992.309, 491.288 992.246, 486.750 992.603 C 475.982 993.451, 477.285 991.496, 488.529 989.934 C 492.913 989.325, 496.591 988.737, 496.703 988.628 C 496.814 988.518, 497.313 985.828, 497.811 982.650 L 498.717 976.871 492.268 977.562 C 482.693 978.587, 482.747 978.588, 482.319 977.384 C 482.066 976.672, 484.857 975.894, 490.029 975.234 C 494.487 974.665, 498.357 973.976, 498.629 973.705 C 498.901 973.433, 498.809 970.434, 498.425 967.040 L 497.727 960.870 491.273 961.561 C 487.723 961.941, 484.211 962.308, 483.468 962.376 C 482.725 962.444, 481.978 962.050, 481.809 961.500 C 481.639 960.950, 484.875 960.050, 489 959.500 C 493.125 958.950, 496.422 958.155, 496.326 957.733 C 496.230 957.312, 495.857 955.624, 495.496 953.983 C 494.751 950.589, 495.410 950.652, 481.529 952.657 M 551 954.561 C 550.175 954.735, 547.025 955.147, 544 955.477 L 538.500 956.077 538.840 962.639 L 539.180 969.200 543.840 968.550 C 546.403 968.192, 549.983 967.643, 551.795 967.330 L 555.089 966.761 554.795 960.710 C 554.505 954.762, 553.991 953.930, 551 954.561 M 461 965 C 461 975.513, 461.058 975.627, 465.750 974.370 C 467.881 973.799, 468 973.269, 468 964.383 L 468 955 464.500 955 L 461 955 461 965 M 449.750 956.728 L 446 957.121 446 967.041 L 446 976.962 450.750 976.396 C 458.345 975.491, 458 976.008, 458 965.531 C 458 954.852, 458.865 955.775, 449.750 956.728 M 433.500 958.674 C 425.890 959.624, 426 959.516, 426 966.019 C 426 969.309, 426.432 972, 426.959 972 C 427.487 972, 431.312 971.495, 435.459 970.878 L 443 969.757 443 963.878 L 443 958 439.750 958.150 C 437.962 958.232, 435.150 958.468, 433.500 958.674 M 514.500 958.892 L 510.500 959.500 510.855 966 C 511.050 969.575, 511.275 972.551, 511.355 972.613 C 511.435 972.675, 514.987 972.285, 519.250 971.746 L 527 970.766 527 965.965 C 527 957.595, 526.159 957.119, 514.500 958.892 M 415 961.124 C 411.425 961.599, 407.038 962.236, 405.250 962.539 L 402 963.091 402 970.673 L 402 978.256 405.750 977.681 C 407.813 977.365, 412.323 976.798, 415.772 976.422 C 419.222 976.045, 422.215 975.458, 422.422 975.118 C 423.348 973.601, 423.417 960.650, 422.500 960.463 C 421.950 960.352, 418.575 960.649, 415 961.124 M 387.750 964.847 L 377 966.233 377 972.196 L 377 978.159 379.750 977.612 C 381.262 977.311, 386.069 976.594, 390.432 976.017 C 394.794 975.441, 398.531 974.802, 398.735 974.598 C 398.939 974.394, 398.970 971.805, 398.803 968.844 L 398.500 963.462 387.750 964.847 M 605.155 967.500 C 604.469 976.447, 599.774 983.176, 592.935 985.017 L 589 986.077 589 992.878 C 589 996.618, 588.702 1008.581, 588.337 1019.461 L 587.675 1039.244 589.926 1038.040 C 593.889 1035.919, 600.088 1029.749, 601.978 1026.044 C 605.342 1019.448, 606.113 1011.537, 605.780 987 C 605.605 974.075, 605.323 965.300, 605.155 967.500 M 575.019 967.254 C 570.905 967.735, 567.378 968.289, 567.182 968.485 C 566.986 968.681, 566.484 970.340, 566.067 972.171 C 565.650 974.002, 564.963 976.577, 564.541 977.894 C 563.780 980.268, 563.818 980.282, 569.137 979.609 C 580.401 978.183, 580.848 978.009, 581.861 974.647 C 583.464 969.328, 583.841 967.015, 583.156 966.691 C 582.795 966.520, 579.134 966.774, 575.019 967.254 M 359.709 968.265 L 351.917 969.247 352.209 976.374 L 352.500 983.500 359.299 983.224 C 363.039 983.072, 367.764 982.604, 369.799 982.182 L 373.500 981.417 373.794 974.208 L 374.088 967 370.794 967.141 C 368.982 967.219, 363.994 967.725, 359.709 968.265 M 343.500 970.500 C 342.950 970.689, 340.363 971.131, 337.750 971.483 L 333 972.123 333 977.175 L 333 982.227 337.750 981.563 C 349.758 979.884, 349 980.334, 349 974.889 C 349 970.462, 348.787 970.007, 346.750 970.079 C 345.512 970.122, 344.050 970.312, 343.500 970.500 M 544.269 970.940 C 541.941 971.319, 539.707 971.960, 539.303 972.363 C 538.708 972.959, 536.212 981.102, 536.044 983 C 535.949 984.074, 552.954 981.563, 553.385 980.440 C 553.635 979.789, 554.151 977.173, 554.533 974.628 L 555.227 970 551.864 970.125 C 550.014 970.194, 546.596 970.561, 544.269 970.940 M 514.558 974.892 C 510.758 975.478, 510.566 975.694, 509.260 980.869 C 508.514 983.822, 508.117 986.451, 508.378 986.711 C 508.638 986.972, 512.292 986.862, 516.498 986.468 C 524.864 985.684, 525.064 985.508, 526.546 977.607 L 527.223 974 522.861 974.142 C 520.463 974.220, 516.726 974.557, 514.558 974.892 M 573 981.552 C 572.175 981.729, 569.385 982.151, 566.800 982.490 C 563.455 982.930, 561.932 983.639, 561.515 984.953 C 561.193 985.968, 559.708 988.024, 558.215 989.523 L 555.500 992.249 559.500 991.651 C 561.700 991.323, 565.750 990.761, 568.500 990.404 C 573.900 989.703, 576.400 988.062, 578.628 983.752 C 580.019 981.062, 579.989 981.003, 577.276 981.116 C 575.749 981.180, 573.825 981.376, 573 981.552 M 538.870 985.892 C 536.042 986.366, 534.424 987.573, 531.550 991.350 L 527.861 996.199 531.681 995.626 C 533.781 995.311, 537.745 994.749, 540.488 994.377 C 544.200 993.874, 546.183 992.945, 548.238 990.745 C 552.258 986.442, 551.868 984.971, 546.750 985.142 C 544.413 985.220, 540.866 985.557, 538.870 985.892 M 581.510 986.725 C 580.416 987.008, 578.952 988.051, 578.257 989.043 C 577.562 990.035, 575.533 991.305, 573.747 991.865 C 569.707 993.133, 557.711 994.466, 552.891 994.184 C 550.906 994.068, 547.981 994.651, 546.391 995.480 C 544.801 996.309, 541.813 996.990, 539.750 996.994 C 537.688 996.997, 536 997.372, 536 997.826 C 536 999.207, 540.257 1002.652, 544.750 1004.907 C 547.087 1006.081, 549 1007.659, 549 1008.415 C 549 1013.050, 553.414 1023.351, 557.028 1027.150 L 560.975 1031.299 569.483 1030.698 C 575.903 1030.245, 578.877 1030.468, 581.603 1031.608 C 583.590 1032.438, 585.363 1032.970, 585.543 1032.791 C 585.722 1032.611, 585.963 1022.122, 586.077 1009.482 C 586.298 984.998, 586.392 985.464, 581.510 986.725 M 510 989.763 C 507.242 990.100, 505.797 991.147, 503.186 994.698 C 501.363 997.177, 500.013 999.331, 500.186 999.484 C 500.540 999.797, 513.277 998.242, 516.781 997.457 C 518.786 997.008, 522.986 991.800, 522.996 989.750 C 523 988.986, 516.316 988.992, 510 989.763 M 251.227 1038.677 C 251.488 1055.742, 251.585 1056.500, 253.500 1056.500 C 255.424 1056.500, 255.500 1055.833, 255.500 1039 C 255.500 1021.560, 255.492 1021.499, 253.227 1021.177 L 250.953 1020.855 251.227 1038.677 M 251.765 1070.939 C 251.157 1083.755, 251.978 1089.422, 254.858 1092.302 C 257.303 1094.747, 258.636 1094.057, 257.081 1091.151 C 256.448 1089.969, 256 1083.092, 256 1074.566 C 256 1061.037, 255.868 1060, 254.142 1060 C 252.475 1060, 252.230 1061.131, 251.765 1070.939" stroke="none" fill="#000000" fill-rule="evenodd"/>
</svg>